<?xml version="1.0" encoding="UTF-8" standalone="no"?>
<!-- Created with Inkscape (http://www.inkscape.org/) -->

<svg
   width="830"
   height="830"
   viewBox="0 0 219.60416 219.60417"
   version="1.1"
   id="svg12296"
   inkscape:version="1.2.1 (9c6d41e410, 2022-07-14)"
   sodipodi:docname="moneda.svg"
   xmlns:inkscape="http://www.inkscape.org/namespaces/inkscape"
   xmlns:sodipodi="http://sodipodi.sourceforge.net/DTD/sodipodi-0.dtd"
   xmlns="http://www.w3.org/2000/svg"
   xmlns:svg="http://www.w3.org/2000/svg">
  <sodipodi:namedview
     id="namedview12298"
     pagecolor="#ffffff"
     bordercolor="#000000"
     borderopacity="0.25"
     inkscape:showpageshadow="2"
     inkscape:pageopacity="0.0"
     inkscape:pagecheckerboard="0"
     inkscape:deskcolor="#d1d1d1"
     inkscape:document-units="mm"
     showgrid="false"
     inkscape:zoom="0.50646226"
     inkscape:cx="212.25669"
     inkscape:cy="461.04127"
     inkscape:window-width="1920"
     inkscape:window-height="991"
     inkscape:window-x="-9"
     inkscape:window-y="-9"
     inkscape:window-maximized="1"
     inkscape:current-layer="layer1" />
  <defs
     id="defs12293" />
  <g
     inkscape:label="Capa 1"
     inkscape:groupmode="layer"
     id="layer1">
    <g
       id="moneda"
       inkscape:label="moneda"
       transform="matrix(0.66825922,0,0,0.66825922,-475.66339,-14.945994)">
      <circle
         style="fill:#000000;fill-opacity:1;stroke-width:0.772728;paint-order:stroke fill markers"
         id="path10520-2"
         cx="876.10535"
         cy="186.67618"
         r="162.28099" />
      <path
         d="m 853.02212,29.93515 c 25.01657,-3.728827 50.84012,-1.238305 74.72969,7.01243 25.86524,8.960326 49.3931,24.766115 67.41113,45.358168 19.13116,21.774702 32.16806,48.766982 37.06566,77.345412 8.8769,49.03132 -7.0263,101.12368 -41.69886,136.8815 -19.31201,20.28594 -44.10598,35.28477 -71.04259,42.9511 -29.64978,8.5012 -61.83181,8.06988 -91.21722,-1.26611 -24.98874,-7.83332 -48.00175,-22.09472 -66.14502,-40.97539 -21.4686,-21.89992 -36.27261,-50.33924 -41.97717,-80.46204 -4.68886,-24.29308 -3.54795,-49.64356 3.25577,-73.4079 8.80728,-31.06896 27.43752,-59.17433 52.50973,-79.502024 22.05298,-17.976303 48.94787,-29.900215 77.10888,-33.935146 z m 5.56543,20.912065 c -44.28682,5.273234 -84.3161,33.503824 -104.58815,73.157435 -21.0512,40.32145 -20.11899,90.74416 2.39313,130.25864 14.77619,26.2966 38.34574,47.36171 66.1311,59.06302 37.58052,15.931 82.243,14.02485 118.18168,-5.41236 25.00264,-13.38487 45.67817,-34.60302 58.18647,-60.07871 18.33802,-36.52307 18.92242,-81.11601 1.78092,-118.1956 C 988.86011,103.85783 968.81068,81.916169 944.18368,67.849573 918.45756,52.975988 888.04254,47.146213 858.58755,50.847215 Z"
         id="use904-8"
         style="fill:#f7931e;stroke-width:1.39137" />
      <path
         d="m 857.74542,49.474131 c 28.57221,-3.904278 58.16486,1.449315 83.57224,15.099497 37.38642,19.802378 64.45014,57.129632 71.37134,98.908362 5.0135,29.62223 0.2071,60.69377 -13.82761,87.28427 -18.85589,36.26245 -54.1127,63.05999 -94.14633,71.32701 -23.81018,4.90992 -49.0253,3.63807 -72.11082,-4.08175 -25.76232,-8.60716 -49.0253,-24.9785 -65.63327,-46.51118 -15.27697,-19.5066 -25.11161,-43.2872 -28.09897,-67.89598 -2.75074,-22.99679 0.10352,-46.58513 8.75505,-68.10302 8.91772,-22.5827 23.98764,-42.370288 42.93226,-57.484574 19.34392,-15.262176 42.74001,-25.289071 67.18611,-28.542635 z M 812.23988,225.21099 c -6.22614,17.8946 -5.94515,37.60825 2.32186,54.80777 11.12128,24.20948 36.48429,40.41815 63.16352,40.15195 26.0581,0.5324 50.69646,-14.65583 62.63112,-37.6822 9.25787,-17.64319 10.0269,-38.59911 3.46061,-57.29231 17.65798,-2.85427 33.73355,-11.90509 44.78088,-26.04331 14.18263,-17.73193 18.51573,-42.00056 12.11213,-63.71071 C 995.56346,117.82857 982.91892,102.50723 966.7842,93.826132 951.5516,85.514753 932.71051,83.680926 915.79197,86.535189 901.71291,88.797896 890.65079,96.325461 878.10978,102.6847 868.15683,97.745198 858.5736,91.519059 848.05867,88.369017 835.54724,84.583051 822.5034,84.59784 809.6814,86.697868 c -22.86369,3.993011 -42.76959,20.172102 -51.68731,41.542102 -9.99732,23.35172 -6.27051,51.64295 9.86421,71.32701 11.10649,13.91638 26.8567,22.76016 44.38158,25.64401 z"
         id="use908-3"
         style="fill:#ff0202;fill-opacity:0.755102;stroke-width:1.47889" />
      <path
         d="m 848.05867,88.369017 c 10.51493,3.150042 20.09816,9.376181 30.05111,14.315683 12.54101,-6.359239 23.60313,-13.886804 37.68219,-16.149511 16.91854,-2.854263 35.75963,-1.020436 50.99223,7.290943 16.13472,8.681098 28.77926,24.002438 33.9258,41.616048 6.4036,21.71015 2.0705,45.97878 -12.11213,63.71071 -11.04733,14.13822 -27.1229,23.18904 -44.78088,26.04331 6.56629,18.6932 5.79726,39.64912 -3.46061,57.29231 -11.93466,23.02637 -36.57302,38.2146 -62.63112,37.6822 -26.67923,0.2662 -52.04224,-15.94247 -63.16352,-40.15195 -8.26701,-17.19952 -8.548,-36.91317 -2.32186,-54.80777 -17.52488,-2.88385 -33.27509,-11.72763 -44.38158,-25.64401 -16.13472,-19.68406 -19.86153,-47.97529 -9.86421,-71.32701 8.91772,-21.37 28.82362,-37.549091 51.68731,-41.542102 12.822,-2.100028 25.86584,-2.114817 38.37727,1.671149 z M 816.32163,221.52854 c -1.86341,7.30573 -3.65287,14.74457 -4.83598,22.1834 -0.36973,4.99866 1.25706,10.07126 1.58241,15.08471 1.95214,7.85292 4.46626,16.09035 8.76984,23.02636 7.3501,11.6241 17.82066,21.45874 30.50956,26.97501 17.39178,7.77898 38.08149,7.06911 54.95566,-1.70073 20.73408,-10.64803 34.84272,-32.74269 34.78357,-56.18314 0.38451,-10.20437 -2.48454,-19.52139 -5.70853,-29.04546 1.41974,-0.54719 2.85426,-1.09438 4.274,-1.65636 16.50445,-3.22399 31.57437,-10.63324 42.29634,-23.85455 13.96075,-16.65233 18.3383,-40.09279 11.43184,-60.69377 -7.6163,-23.72144 -29.6518,-41.556888 -54.51199,-43.790017 -14.15301,-1.922561 -27.80319,0.842969 -41.15759,5.383171 -8.03039,2.913416 -14.47837,7.734606 -22.21298,11.579736 -12.9551,-7.58673 -26.41303,-15.439647 -41.63084,-17.022063 -14.52272,-1.611993 -30.52435,0.458457 -43.36114,7.823344 -15.41006,8.607159 -27.24121,23.810179 -31.23422,41.054069 -3.99301,16.57839 -1.21269,35.15329 7.97124,49.58728 4.62893,6.24093 9.31702,13.14736 15.43964,17.99813 9.70154,6.93601 21.22211,10.41141 32.63917,13.25088 z"
         id="use910-1"
         style="fill:none;stroke-width:1.47889" />
      <path
         d="m 834.86694,91.814837 c 15.21781,1.582416 28.67574,9.435333 41.63084,17.022063 7.73461,-3.84513 14.18259,-8.66632 22.21298,-11.579736 13.3544,-4.540202 27.00458,-7.305732 41.15759,-5.383171 24.86019,2.233129 46.89569,20.068577 54.51199,43.790017 6.90646,20.60098 2.52891,44.04144 -11.43184,60.69377 -10.72197,13.22131 -25.79189,20.63056 -42.29634,23.85455 -1.41974,0.56198 -2.85426,1.10917 -4.274,1.65636 3.22399,9.52407 6.09304,18.84109 5.70853,29.04546 0.0592,23.44045 -14.04949,45.53511 -34.78357,56.18314 -16.87417,8.76984 -37.56388,9.47971 -54.95566,1.70073 -12.6889,-5.51627 -23.15946,-15.35091 -30.50956,-26.97501 -4.30358,-6.93601 -6.8177,-15.17344 -8.76984,-23.02636 -0.32535,-5.01345 -1.95214,-10.08605 -1.58241,-15.08471 1.18311,-7.43883 2.97257,-14.87767 4.83598,-22.1834 -11.41706,-2.83947 -22.93763,-6.31487 -32.63917,-13.25088 -6.12262,-4.85077 -10.81071,-11.7572 -15.43964,-17.99813 -9.18393,-14.43399 -11.96425,-33.00889 -7.97124,-49.58728 3.99301,-17.24389 15.82416,-32.44691 31.23422,-41.054069 12.83679,-7.364887 28.83842,-9.435337 43.36114,-7.823344 z M 774.4098,161.64816 c 3.94864,-7.03953 4.37752,-14.4192 10.8255,-19.97984 -0.69508,6.35924 -1.99651,12.06777 -0.66551,18.50095 1.56763,7.05432 4.42189,13.99033 9.59802,19.15167 7.27615,7.29094 16.74107,10.5445 26.60528,12.64453 -4.37752,1.47889 -8.84378,2.49933 -13.36919,3.40146 11.8903,1.34579 23.15947,-0.44367 33.76313,-6.0191 2.82468,-1.78946 4.8064,-0.6655 7.7494,0.0148 0.0444,1.16833 0.0887,2.33665 0.14789,3.50498 2.60285,2.04087 5.26486,4.03737 7.92686,6.0043 -2.57327,-4.12611 -4.73245,-8.19307 -6.55149,-12.70369 1.05001,-1.64157 2.07045,-3.31272 3.0761,-4.98387 2.662,-2.02608 5.61979,-6.59586 9.33181,-5.64937 4.02259,0.65071 7.36489,4.9395 10.4262,7.32052 -1.70073,-6.72896 -8.20786,-12.48186 -15.32134,-12.64453 -0.87254,1.22748 -1.74509,2.44017 -2.63242,3.65286 1.74509,-5.36838 3.81554,-10.27831 4.22963,-15.98683 0.42888,-6.30009 -0.20705,-12.5558 -0.60635,-18.81152 1.70073,2.24792 3.41625,4.48104 5.16134,6.6846 -3.53455,-11.0917 -8.71068,-21.75452 -19.13688,-27.80319 -9.89379,-6.50713 -23.39608,-6.99517 -34.54694,-4.11133 -9.56843,3.41625 -19.96505,8.93252 -25.40738,17.86503 -5.69374,8.72547 -10.44098,19.38829 -10.60366,29.94758 z m 118.00087,-27.04895 c -1.0648,3.69723 -2.38102,7.30573 -3.68244,10.92902 1.61199,-2.14439 3.2092,-4.28879 4.82119,-6.41839 -0.42888,6.58107 -1.18312,13.65018 -0.50282,20.21646 0.59155,5.08739 2.48454,9.65717 4.1409,14.46358 -0.84297,-1.02044 -1.67115,-2.04088 -2.49933,-3.04652 -1.33101,-0.19226 -2.64722,-0.38452 -3.97823,-0.59156 -6.01909,3.46061 -9.58322,7.69024 -13.47271,13.60582 5.27965,-3.63808 8.62195,-8.13392 15.27696,-8.63674 3.49019,3.35709 6.87686,6.78812 9.98253,10.50014 -2.02608,4.59936 -4.45147,8.9473 -6.93601,13.32483 4.21485,-2.58807 6.90643,-4.79162 8.68111,-9.4945 5.02823,-2.7951 7.48319,0.66551 12.11213,2.32187 8.96209,3.71202 18.92983,4.65851 28.52785,3.57892 -4.52542,-0.93171 -8.99167,-1.96693 -13.39878,-3.37188 9.33182,-1.95214 18.02771,-4.79161 25.30386,-11.21001 6.27051,-5.53106 9.70154,-13.4875 11.32832,-21.53268 1.19791,-6.07825 -0.38451,-11.63889 -0.84296,-17.77629 6.77333,4.9395 7.02474,15.33612 12.09734,22.22776 -2.21834,-13.96075 -7.66067,-29.31166 -18.07207,-39.30898 -9.19872,-7.217 -19.80238,-12.49664 -31.78141,-12.14171 -10.76634,-0.54719 -21.01507,3.46061 -28.72011,10.92902 -3.26835,3.3423 -5.85641,7.52756 -8.38532,11.43184 z m -30.56872,50.26758 c -0.0592,5.70852 2.21834,8.34095 5.6198,12.30438 3.7416,1.44932 7.21699,3.6085 11.35789,2.49933 6.6846,-1.77467 12.27482,-7.49798 11.78678,-14.8185 -6.46276,3.54934 -9.05082,9.77548 -14.4192,14.56709 -5.16134,-4.98387 -7.76419,-11.06212 -14.34527,-14.5523 z m 17.377,23.88412 c 0.7986,2.67679 1.43452,5.27964 3.1944,7.52756 l 0.0148,0.0296 0.0444,0.0148 c 3.17962,1.47889 6.5515,2.30707 9.95295,3.16483 -4.56978,-3.13525 -7.55714,-9.99732 -13.20651,-10.73676 z M 877.25202,267.67 c 1.55284,-5.61979 2.45496,-10.55929 7.37967,-14.12342 6.12262,-5.51627 14.47837,-6.00431 21.93199,-3.09089 4.36273,2.01129 7.36488,7.42404 10.20436,10.9586 -1.30143,-4.48105 -1.49368,-9.93816 -4.61415,-13.51709 -4.79161,-5.41274 -12.40791,-9.16913 -19.72843,-7.67545 -6.83249,2.30707 -13.02905,6.40361 -15.21781,13.65018 -1.83383,4.76204 -0.45846,8.88815 0.0444,13.79807 z"
         id="use912-3"
         style="fill:#f7931e;stroke-width:1.47889" />
      <path
         d="m 844.96778,117.94688 c 10.4262,6.04867 15.60233,16.71149 19.13688,27.80319 -1.74509,-2.20356 -3.46061,-4.43668 -5.16134,-6.6846 0.3993,6.25572 1.03523,12.51143 0.60635,18.81152 -0.41409,5.70852 -2.48454,10.61845 -4.22963,15.98683 0.88733,-1.21269 1.75988,-2.42538 2.63242,-3.65286 7.11348,0.16267 13.62061,5.91557 15.32134,12.64453 -3.06131,-2.38102 -6.40361,-6.66981 -10.4262,-7.32052 -3.71202,-0.94649 -6.66981,3.62329 -9.33181,5.64937 -1.00565,1.67115 -2.02609,3.3423 -3.0761,4.98387 1.81904,4.51062 3.97822,8.57758 6.55149,12.70369 -2.662,-1.96693 -5.32401,-3.96343 -7.92686,-6.0043 -0.0592,-1.16833 -0.10352,-2.33665 -0.14789,-3.50498 -2.943,-0.68029 -4.92472,-1.80425 -7.7494,-0.0148 -10.60366,5.57543 -21.87283,7.36489 -33.76313,6.0191 4.52541,-0.90213 8.99167,-1.92257 13.36919,-3.40146 -9.86421,-2.10003 -19.32913,-5.35359 -26.60528,-12.64453 -5.17613,-5.16134 -8.03039,-12.09735 -9.59802,-19.15167 -1.331,-6.43318 -0.0296,-12.14171 0.66551,-18.50095 -6.44798,5.56064 -6.87686,12.94031 -10.8255,19.97984 0.16268,-10.55929 4.90992,-21.22211 10.60366,-29.94758 5.44233,-8.93251 15.83895,-14.44878 25.40738,-17.86503 11.15086,-2.88384 24.65315,-2.3958 34.54694,4.11133 z m -55.54722,42.23718 c 0.3993,1.53805 0.90213,3.01694 1.52326,4.46626 0.78382,1.65636 1.44932,3.3423 2.1444,5.04302 5.94515,10.04169 16.48965,17.18474 28.4539,16.72628 7.51278,0.54719 13.38398,-2.63243 19.83195,-5.93036 2.61764,-2.91342 5.42754,-5.64937 8.37054,-8.23743 1.92256,-4.02259 3.6085,-8.04518 4.70288,-12.37834 -6.04867,0.48804 -12.00861,1.4789 -18.08686,1.58242 -2.18876,2.24792 -4.11133,4.34794 -7.3501,4.92471 -3.75639,-0.0739 -5.29444,-2.67679 -7.80856,-4.90992 -10.70718,-0.17747 -21.00028,-2.30708 -31.78141,-1.28664 z"
         id="use914-1"
         style="fill:#0b0f1d;stroke-width:1.47889" />
      <path
         d="m 929.5161,112.23835 c 11.97903,-0.35493 22.58269,4.92471 31.78141,12.14171 10.4114,9.99732 15.85373,25.34823 18.07207,39.30898 -5.0726,-6.89164 -5.32401,-17.28826 -12.09734,-22.22776 0.45845,6.1374 2.04087,11.69804 0.84296,17.77629 -1.62678,8.04518 -5.05781,16.00162 -11.32832,21.53268 -7.27615,6.4184 -15.97204,9.25787 -25.30386,11.21001 4.40711,1.40495 8.87336,2.44017 13.39878,3.37188 -9.59802,1.07959 -19.56576,0.1331 -28.52785,-3.57892 -4.62894,-1.65636 -7.0839,-5.11697 -12.11213,-2.32187 -1.77468,4.70288 -4.46626,6.90643 -8.68111,9.4945 2.48454,-4.37753 4.90993,-8.72547 6.93601,-13.32483 -3.10567,-3.71202 -6.49234,-7.14305 -9.98253,-10.50014 -6.65501,0.50282 -9.99731,4.99866 -15.27696,8.63674 3.88949,-5.91558 7.45362,-10.14521 13.47271,-13.60582 1.33101,0.20704 2.64722,0.3993 3.97823,0.59156 0.82818,1.00564 1.65636,2.02608 2.49933,3.04652 -1.65636,-4.80641 -3.54935,-9.37619 -4.1409,-14.46358 -0.6803,-6.56628 0.0739,-13.63539 0.50282,-20.21646 -1.61199,2.1296 -3.2092,4.274 -4.82119,6.41839 1.30142,-3.62329 2.61764,-7.23179 3.68244,-10.92902 2.52891,-3.90428 5.11697,-8.08954 8.38532,-11.43184 7.70504,-7.46841 17.95377,-11.47621 28.72011,-10.92902 z m -31.2638,48.99572 c 1.25706,3.77118 2.79511,7.40926 4.46626,11.01776 2.94299,2.54369 5.66416,5.23528 8.22264,8.16349 4.71767,2.32186 8.9473,4.79161 14.19737,5.7381 8.51843,0.76903 16.74107,0.25141 23.66229,-5.3388 1.0648,-0.59156 2.12961,-1.16833 3.19441,-1.7451 5.41275,-5.0726 7.8825,-11.52057 11.52058,-17.74671 -4.36274,-0.2662 -8.71068,-0.75424 -13.07342,-1.10917 -2.89863,3.10567 -5.32401,5.7381 -9.73111,6.46276 -1.46411,-0.9317 -2.92821,-1.83383 -4.4071,-2.72116 -0.60635,-0.87255 -1.2127,-1.73031 -1.81904,-2.58806 -6.96559,-0.0444 -14.47837,0.54719 -21.26648,-0.91692 -5.14655,-0.34014 -9.87901,-0.10352 -14.9664,0.78381 z"
         id="use916-8"
         style="fill:#0b0f1d;stroke-width:1.47889" />
      <path
         d="m 789.42056,160.18406 c 10.78113,-1.02044 21.07423,1.10917 31.78141,1.28664 2.51412,2.23313 4.05217,4.83598 7.80856,4.90992 3.23877,-0.57677 5.16134,-2.67679 7.3501,-4.92471 6.07825,-0.10352 12.03819,-1.09438 18.08686,-1.58242 -1.09438,4.33316 -2.78032,8.35575 -4.70288,12.37834 -2.943,2.58806 -5.7529,5.32401 -8.37054,8.23743 -6.44797,3.29793 -12.31917,6.47755 -19.83195,5.93036 -11.96425,0.45846 -22.50875,-6.68459 -28.4539,-16.72628 -0.69508,-1.70072 -1.36058,-3.38666 -2.1444,-5.04302 -0.62113,-1.44932 -1.12396,-2.92821 -1.52326,-4.46626 z"
         id="use918-7"
         style="display:inline;fill:#ffffff;stroke-width:1.47889" />
      <path
         d="m 898.2523,161.23407 c 5.08739,-0.88733 9.81985,-1.12395 14.9664,-0.78381 6.78811,1.46411 14.30089,0.87255 21.26648,0.91692 0.60634,0.85775 1.21269,1.71551 1.81904,2.58806 1.47889,0.88733 2.94299,1.78946 4.4071,2.72116 4.4071,-0.72466 6.83248,-3.35709 9.73111,-6.46276 4.36274,0.35493 8.71068,0.84297 13.07342,1.10917 -3.63808,6.22614 -6.10783,12.67411 -11.52058,17.74671 -1.0648,0.57677 -2.12961,1.15354 -3.19441,1.7451 -6.92122,5.59021 -15.14386,6.10783 -23.66229,5.3388 -5.25007,-0.94649 -9.4797,-3.41624 -14.19737,-5.7381 -2.55848,-2.92821 -5.27965,-5.6198 -8.22264,-8.16349 -1.67115,-3.6085 -3.2092,-7.24658 -4.46626,-11.01776 z"
         id="use920-2"
         style="display:inline;fill:#ffffff;stroke-width:1.47889" />
      <path
         d="m 861.84195,184.86679 c 6.58108,3.49018 9.18393,9.56843 14.34527,14.5523 5.36838,-4.79161 7.95644,-11.01775 14.4192,-14.56709 0.48804,7.32052 -5.10218,13.04383 -11.78678,14.8185 -4.1409,1.10917 -7.61629,-1.05001 -11.35789,-2.49933 -3.40146,-3.96343 -5.67895,-6.59586 -5.6198,-12.30438 z"
         id="use922-4"
         style="fill:#0b0f1d;stroke-width:1.47889" />
      <path
         d="m 879.21895,208.75091 c 5.64937,0.73944 8.63673,7.60151 13.20651,10.73676 -3.40145,-0.85776 -6.77333,-1.68594 -9.95295,-3.16483 l -0.0592,-0.0444 c -1.75988,-2.24792 -2.3958,-4.85077 -3.1944,-7.52756 z"
         id="use924-0"
         style="fill:#0b0f1d;stroke-width:1.47889" />
      <path
         d="m 882.41335,216.27847 0.0592,0.0444 -0.0444,-0.0148 z"
         id="use926-4"
         style="fill:#ffffff;stroke-width:1.47889" />
      <path
         d="m 892.42546,240.22175 c 7.32052,-1.49368 14.93682,2.26271 19.72843,7.67545 3.12047,3.57893 3.31272,9.03604 4.61415,13.51709 -2.83948,-3.53456 -5.84163,-8.94731 -10.20436,-10.9586 -7.45362,-2.91342 -15.80937,-2.42538 -21.93199,3.09089 -4.92471,3.56413 -5.82683,8.50363 -7.37967,14.12342 -0.50283,-4.90992 -1.8782,-9.03603 -0.0444,-13.79807 2.18876,-7.24657 8.38532,-11.34311 15.21781,-13.65018 z"
         id="use928-7"
         style="fill:#0b0f1d;stroke-width:1.47889" />
    </g>
  </g>
</svg>
