<?xml version="1.0" encoding="UTF-8" standalone="no"?>
<svg
   xmlns:ns="&amp;#38;ns_sfw;"
   xmlns:dc="http://purl.org/dc/elements/1.1/"
   xmlns:cc="http://creativecommons.org/ns#"
   xmlns:rdf="http://www.w3.org/1999/02/22-rdf-syntax-ns#"
   xmlns:svg="http://www.w3.org/2000/svg"
   xmlns="http://www.w3.org/2000/svg"
   xmlns:sodipodi="http://sodipodi.sourceforge.net/DTD/sodipodi-0.dtd"
   xmlns:inkscape="http://www.inkscape.org/namespaces/inkscape"
   version="1.1"
   id="Livello_1"
   x="0px"
   y="0px"
   viewBox="0 0 1082 452"
   xml:space="preserve"
   sodipodi:docname="android.svg"
   width="1082"
   height="452"
   inkscape:version="1.0.1 (3bc2e813f5, 2020-09-07)"><defs
   id="defs1889" /><sodipodi:namedview
   pagecolor="#ffffff"
   bordercolor="#666666"
   borderopacity="1"
   objecttolerance="10"
   gridtolerance="10"
   guidetolerance="10"
   inkscape:pageopacity="0"
   inkscape:pageshadow="2"
   inkscape:window-width="1366"
   inkscape:window-height="705"
   id="namedview1887"
   showgrid="false"
   inkscape:zoom="0.10394055"
   inkscape:cx="-877.49779"
   inkscape:cy="3.3317986"
   inkscape:window-x="-8"
   inkscape:window-y="-8"
   inkscape:window-maximized="1"
   inkscape:current-layer="Livello_1"
   inkscape:document-rotation="0" />
<style
   type="text/css"
   id="style1822">
	.st0{fill-rule:evenodd;clip-rule:evenodd;}
	.st1{fill-rule:evenodd;clip-rule:evenodd;fill:#A6A6A6;}
	.st2{fill:#FFFFFF;}
	.st3{fill-rule:evenodd;clip-rule:evenodd;fill:#FFFFFF;}
	.st4{fill-rule:evenodd;clip-rule:evenodd;fill:url(#SVGID_1_);}
	.st5{fill-rule:evenodd;clip-rule:evenodd;fill:url(#SVGID_2_);}
	.st6{fill-rule:evenodd;clip-rule:evenodd;fill:url(#SVGID_3_);}
	.st7{fill-rule:evenodd;clip-rule:evenodd;fill:url(#SVGID_4_);}
	.st8{opacity:0.2;fill-rule:evenodd;clip-rule:evenodd;enable-background:new    ;}
	.st9{opacity:0.12;fill-rule:evenodd;clip-rule:evenodd;enable-background:new    ;}
	.st10{opacity:0.25;fill-rule:evenodd;clip-rule:evenodd;fill:#FFFFFF;enable-background:new    ;}
</style>
<metadata
   id="metadata1824">
	<ns:sfw>
		<ns:slices />
		<ns:sliceSourceBounds
   bottomLeftOrigin="true"
   height="1604"
   width="5435.8"
   x="-2656.9"
   y="-784" />
	</ns:sfw>
<rdf:RDF><cc:Work
     rdf:about=""><dc:format>image/svg+xml</dc:format><dc:type
       rdf:resource="http://purl.org/dc/dcmitype/StillImage" /><dc:title></dc:title></cc:Work></rdf:RDF></metadata>
<path
   class="st0"
   d="M 1035.9635,385.82295 H 46.198676 c -21.828826,0 -39.6064242,-17.77767 -39.6064242,-39.42936 V 109.81747 c 0,-21.730381 17.7775982,-39.429356 39.6064242,-39.429356 H 1035.9635 c 21.8091,0 39.6065,17.698975 39.6065,39.429356 v 236.57612 c 0,21.65169 -17.7974,39.42936 -39.6065,39.42936 z"
   id="path1826"
   style="opacity:1;stroke-width:0.196655" />
<path
   class="st1"
   d="m 1035.9635,76.700748 c 18.3089,0 33.294,14.88682 33.294,33.116722 v 236.57612 c 0,18.22989 -14.887,33.11671 -33.294,33.11671 H 46.198676 c -18.308788,0 -33.293949,-14.88682 -33.293949,-33.11671 V 109.81747 c 0,-18.229902 14.88696,-33.116722 33.293949,-33.116722 0,0 989.764824,0 989.764824,0 z m 0,-6.312634 H 46.198676 c -21.828826,0 -39.6064242,17.777656 -39.6064242,39.429356 v 236.57612 c 0,21.73036 17.7775982,39.42936 39.6064242,39.42936 H 1035.9635 c 21.8091,0 39.6065,-17.699 39.6065,-39.42936 V 109.81747 c 0,-21.6517 -17.7974,-39.429356 -39.6065,-39.429356 z"
   id="path1828"
   style="opacity:1;stroke-width:0.196655" />
<path
   class="st2"
   d="m 569.73388,174.73336 c -7.13865,0 -13.15652,-2.49754 -17.91527,-7.41393 -4.72002,-4.77869 -7.35513,-11.36665 -7.23721,-18.09226 0,-7.17791 2.43871,-13.25458 7.23721,-18.07257 4.73939,-4.91642 10.75689,-7.41392 17.89554,-7.41392 7.05978,0 13.07766,2.4975 17.91525,7.41392 4.79814,4.97533 7.23684,11.05197 7.23684,18.07257 -0.0787,7.19758 -2.51717,13.27421 -7.23684,18.07261 -4.73938,4.9557 -10.75724,7.43358 -17.89552,7.43358 z m -212.40733,0 c -6.9813,0 -13.03822,-2.45819 -17.9941,-7.31562 -4.91606,-4.83768 -7.41389,-10.95366 -7.41389,-18.17086 0,-7.21726 2.49783,-13.33328 7.41389,-18.17098 4.85768,-4.85738 10.91461,-7.31556 17.9941,-7.31556 3.46126,0 6.82398,0.68828 10.04903,2.08455 3.16627,1.35691 5.74222,3.2055 7.65009,5.467 l 0.47169,0.57028 -5.32934,5.23103 -0.55053,-0.64897 c -3.00896,-3.57908 -7.0401,-5.32933 -12.36944,-5.32933 -4.75908,0 -8.90852,1.69124 -12.33035,5.03438 -3.44153,3.36277 -5.19169,7.76789 -5.19169,13.09723 0,5.32936 1.75016,9.73441 5.19169,13.09719 3.42183,3.34316 7.57127,5.03441 12.33035,5.03441 5.07345,0 9.34114,-1.69125 12.6644,-5.03441 1.96666,-1.96652 3.18599,-4.71968 3.6186,-8.20048 h -17.08943 v -7.3549 h 24.42448 l 0.10042,0.66863 c 0.17565,1.23892 0.35485,2.51715 0.35485,3.69712 0,6.78461 -2.04515,12.27125 -6.09639,16.32235 -4.60174,4.79839 -10.61924,7.23694 -17.89552,7.23694 z m 282.41632,-1.04231 h -7.53183 l -23.06751,-36.91215 0.19698,6.64693 v 30.24554 h -7.5318 v -48.86878 h 8.59381 l 0.23655,0.37367 21.69084,34.76861 -0.19699,-6.62727 v -28.51501 h 7.61032 z m -126.60633,0 h -7.63039 v -41.53356 h -13.23499 v -7.3549 h 34.08031 v 7.3549 h -13.23462 v 41.53356 z m -27.07966,0 h -7.61032 v -48.88846 h 7.61032 z m -42.77236,0 h -7.61066 V 132.15749 H 422.4392 v -7.3549 h 34.0803 v 7.3549 h -13.23498 z m -25.66357,-0.0784 h -29.18359 v -48.80972 h 29.18359 v 7.3549 h -21.55319 v 13.41185 h 19.44892 v 7.27622 h -19.44892 v 13.41192 h 21.55319 z m 139.78256,-11.34697 c 3.40212,3.40214 7.53184,5.11302 12.33037,5.11302 4.93579,0 8.96727,-1.67154 12.32999,-5.11302 3.34333,-3.34313 5.03435,-7.72853 5.03435,-13.01854 0,-5.29003 -1.69102,-9.69512 -5.01466,-13.01861 -3.40212,-3.40211 -7.55152,-5.11303 -12.32998,-5.11303 -4.93614,0 -8.96767,1.67159 -12.31062,5.11303 -3.34336,3.34317 -5.0344,7.72858 -5.0344,13.01861 0,5.29001 1.67133,9.69507 4.99495,13.01854 z"
   id="path1830"
   style="opacity:1;stroke-width:0.196655" />
<path
   class="st3"
   d="m 543.87354,241.95007 c -18.5837,0 -33.64771,14.10013 -33.64771,33.54935 0,19.27218 15.16221,33.54935 33.64771,33.54935 18.58404,0 33.6477,-14.19851 33.6477,-33.54935 0,-19.44922 -15.06366,-33.54935 -33.6477,-33.54935 z m 0,53.80482 c -10.16694,0 -18.9181,-8.41684 -18.9181,-20.33413 0,-12.09431 8.77089,-20.33418 18.9181,-20.33418 10.1673,0 18.91812,8.23987 18.91812,20.33418 0.0359,11.99592 -8.75082,20.33413 -18.91812,20.33413 z m -73.41115,-53.80482 c -18.58403,0 -33.64768,14.10013 -33.64768,33.54935 0,19.27218 15.16185,33.54935 33.64768,33.54935 18.5837,0 33.64734,-14.19851 33.64734,-33.54935 0,-19.44922 -15.08335,-33.54935 -33.64734,-33.54935 z m 0,53.80482 c -10.16727,0 -18.91845,-8.41684 -18.91845,-20.33413 0,-12.09431 8.77091,-20.33418 18.91845,-20.33418 10.16695,0 18.9181,8.23987 18.9181,20.33418 0,11.99592 -8.75115,20.33413 -18.9181,20.33413 z m -87.35435,-43.55912 v 14.19851 h 34.0803 c -1.04227,7.96454 -3.67739,13.84452 -7.70887,17.87594 -4.99494,4.99506 -12.70383,10.4227 -26.29258,10.4227 -20.9439,0 -37.32546,-16.91231 -37.32546,-37.85608 0,-20.94378 16.38156,-37.85611 37.32546,-37.85611 11.3074,0 19.54747,4.46411 25.6632,10.16708 l 10.0687,-10.06876 c -8.49525,-8.14148 -19.80302,-14.37549 -35.65343,-14.37549 -28.73125,0 -52.84106,23.40197 -52.84106,52.05459 0,28.73134 24.09013,52.05466 52.84106,52.05466 15.51602,0 27.15818,-5.07375 36.36168,-14.63117 9.3802,-9.38045 12.34968,-22.61535 12.34968,-33.2937 0,-3.32349 -0.25444,-6.31262 -0.78636,-8.84949 h -48.10205 c 0.0359,-0.0169 0.0359,0.15726 0.0359,0.15726 z m 357.30271,11.05199 c -2.81217,-7.53186 -11.30777,-21.37637 -28.73127,-21.37637 -17.2665,0 -31.62227,13.58887 -31.62227,33.54937 0,18.83957 14.1984,33.54935 33.29359,33.54935 15.33928,0 24.26749,-9.38044 27.94489,-14.88677 l -11.38627,-7.63023 c -3.77596,5.60465 -9.02645,9.2821 -16.47979,9.2821 -7.53181,0 -12.80237,-3.4218 -16.30269,-10.16706 l 44.8569,-18.58393 c 0,0.0169 -1.57309,-3.73646 -1.57309,-3.73646 z m -45.74186,11.20939 c -0.35486,-12.95957 10.0687,-19.54753 17.5217,-19.54753 5.88022,0 10.77694,2.89083 12.44824,7.09925 z m -36.44052,32.50704 h 14.72961 v -98.56348 h -14.72961 z m -24.18831,-57.5609 h -0.53117 c -3.32326,-3.95275 -9.63611,-7.5319 -17.69876,-7.5319 -16.73534,0 -32.15312,14.72945 -32.15312,33.64768 0,18.83958 15.33895,33.39204 32.15312,33.39204 7.96444,0 14.3755,-3.5988 17.69876,-7.63022 h 0.53117 v 4.81806 c 0,12.80225 -6.84365,19.70481 -17.87618,19.70481 -9.02643,0 -14.63103,-6.48961 -16.91238,-11.91727 l -12.80202,5.34899 c 3.67738,8.84952 13.49056,19.80319 29.6947,19.80319 17.2665,0 31.89755,-10.16707 31.89755,-34.96529 v -60.19609 h -13.92316 v 5.526 c 0.0359,0 -0.0789,0 -0.0789,0 z m -16.91238,46.3516 c -10.16729,0 -18.66257,-8.49552 -18.66257,-20.23582 0,-11.83864 8.49528,-20.41281 18.66257,-20.41281 10.06873,0 17.87583,8.67249 17.87583,20.41281 0.0966,11.7403 -7.78741,20.23582 -17.87583,20.23582 z m 192.24979,-87.35418 h -35.22079 v 98.56348 h 14.72959 v -37.32511 h 20.51092 c 16.30271,0 32.33014,-11.81895 32.33014,-30.57985 0,-18.76089 -15.96829,-30.65852 -32.34986,-30.65852 z m 0.43298,47.47251 h -20.94388 v -33.82467 h 20.94388 c 11.03216,0 17.26614,9.10513 17.26614,16.91232 0,7.72856 -6.31248,16.91235 -17.26614,16.91235 z m 90.95291,-14.10016 c -10.69813,0 -21.73062,4.73943 -26.29295,15.06378 l 13.05795,5.42769 c 2.81215,-5.42769 7.96444,-7.27622 13.41205,-7.27622 7.63003,0 15.33892,4.56237 15.51599,12.70392 v 1.04223 c -2.63512,-1.49456 -8.41678,-3.77575 -15.33929,-3.77575 -14.09988,0 -28.39686,7.70885 -28.39686,22.163 0,13.2349 11.56335,21.73039 24.44421,21.73039 9.89167,0 15.33929,-4.46406 18.7414,-9.6361 h 0.53082 v 7.63023 h 14.19842 v -37.75778 c 0,-17.58095 -13.05793,-27.31539 -29.87174,-27.31539 z m -1.84873,53.98183 c -4.81788,0 -11.56335,-2.35985 -11.56335,-8.41684 0,-7.63024 8.41675,-10.52105 15.59485,-10.52105 6.48955,0 9.55762,1.39627 13.41204,3.32349 -1.06198,8.84942 -8.53503,15.53572 -17.44354,15.6144 z m 83.51962,-51.8776 -16.91237,42.75282 h -0.53119 l -17.5217,-42.75282 h -15.85037 l 26.29258,59.76347 -14.98518,33.21503 h 15.33934 l 40.45203,-92.9785 c 0,0 -16.28314,0 -16.28314,0 z m -132.58511,63.0869 h 14.7296 v -98.56348 h -14.7296 z"
   id="path1832"
   style="opacity:1;stroke-width:0.196655" />
<linearGradient
   id="SVGID_1_"
   gradientUnits="userSpaceOnUse"
   x1="1682.1077"
   y1="1339.4783"
   x2="1624.2924"
   y2="1309.6345"
   gradientTransform="matrix(2.2890652,0,0,-4.4345722,-3671.9584,6079.06)">
	<stop
   offset="0"
   style="stop-color:#00A0FF"
   id="stop1834" />
	<stop
   offset="6.569999e-03"
   style="stop-color:#00A1FF"
   id="stop1836" />
	<stop
   offset="0.2601"
   style="stop-color:#00BEFF"
   id="stop1838" />
	<stop
   offset="0.5122"
   style="stop-color:#00D2FF"
   id="stop1840" />
	<stop
   offset="0.7604"
   style="stop-color:#00DFFF"
   id="stop1842" />
	<stop
   offset="1"
   style="stop-color:#00E3FF"
   id="stop1844" />
</linearGradient>
<path
   class="st4"
   d="m 88.872829,129.79764 c -2.281334,2.45818 -3.598894,6.21433 -3.598894,11.13069 v 174.37409 c 0,4.91637 1.31756,8.67247 3.677389,11.03232 l 0.609666,0.53097 97.69836,-97.69823 v -2.18287 L 89.482506,129.26668 c 0,0 -0.609677,0.53096 -0.609677,0.53096 z"
   id="path1847"
   style="opacity:1;fill:url(#SVGID_1_);stroke-width:0.196655" />
<linearGradient
   id="SVGID_2_"
   gradientUnits="userSpaceOnUse"
   x1="1712.6624"
   y1="1274.8376"
   x2="1606.5613"
   y2="1274.8376"
   gradientTransform="matrix(1.7984108,0,0,-1.514244,-2806.6644,2158.5211)">
	<stop
   offset="0"
   style="stop-color:#FFE000"
   id="stop1849" />
	<stop
   offset="0.4087"
   style="stop-color:#FFBD00"
   id="stop1851" />
	<stop
   offset="0.7754"
   style="stop-color:#FFA500"
   id="stop1853" />
	<stop
   offset="1"
   style="stop-color:#FF9C00"
   id="stop1855" />
</linearGradient>
<path
   class="st5"
   d="m 219.76622,261.83187 -32.58571,-32.58573 v -2.28122 l 32.58571,-32.58573 0.70821,0.43265 38.54409,21.90734 c 11.03252,6.21431 11.03252,16.47972 0,22.7727 l -38.54409,21.90735 c 0,0 -0.70821,0.43264 -0.70821,0.43264 z"
   id="path1858"
   style="opacity:1;fill:url(#SVGID_2_);stroke-width:0.196655" />
<linearGradient
   id="SVGID_3_"
   gradientUnits="userSpaceOnUse"
   x1="1707.4414"
   y1="1290.0475"
   x2="1646.682"
   y2="1211.2225"
   gradientTransform="matrix(2.9537592,0,0,-2.276774,-4841.0008,3183.3686)">
	<stop
   offset="0"
   style="stop-color:#FF3A44"
   id="stop1860" />
	<stop
   offset="1"
   style="stop-color:#C31162"
   id="stop1862" />
</linearGradient>
<path
   class="st6"
   d="m 220.47443,261.39923 -33.29392,-33.2937 -98.307681,98.30789 c 3.598532,3.85445 9.636112,4.28708 16.381201,0.53097 l 115.2204,-65.54516"
   id="path1865"
   style="opacity:1;fill:url(#SVGID_3_);stroke-width:0.196655" />
<linearGradient
   id="SVGID_4_"
   gradientUnits="userSpaceOnUse"
   x1="1660.6357"
   y1="1365.6676"
   x2="1687.767"
   y2="1330.4501"
   gradientTransform="matrix(2.9537592,0,0,-2.2755944,-4841.0008,3179.503)">
	<stop
   offset="0"
   style="stop-color:#32A071"
   id="stop1867" />
	<stop
   offset="6.850000e-02"
   style="stop-color:#2DA771"
   id="stop1869" />
	<stop
   offset="0.4762"
   style="stop-color:#15CF74"
   id="stop1871" />
	<stop
   offset="0.8009"
   style="stop-color:#06E775"
   id="stop1873" />
	<stop
   offset="1"
   style="stop-color:#00F076"
   id="stop1875" />
</linearGradient>
<path
   class="st7"
   d="m 220.47443,194.81184 -115.2204,-65.44685 c -6.745089,-3.85443 -12.802382,-3.32342 -16.381201,0.53095 l 98.307681,98.20959 z"
   id="path1878"
   style="opacity:1;fill:url(#SVGID_4_);stroke-width:0.196655" />
<path
   class="st8"
   d="m 219.76622,260.6913 -114.43333,65.01417 c -6.391336,3.67742 -12.094511,3.42179 -15.7719,0.0785 l -0.609666,0.60966 0.609666,0.53096 c 3.677389,3.32347 9.380564,3.59879 15.7719,-0.0784 l 115.22005,-65.44697 c 0,0 -0.78672,-0.70793 -0.78672,-0.70793 z"
   id="path1880"
   style="opacity:1;stroke-width:0.196655" />
<path
   class="st9"
   d="m 259.01852,238.35126 -39.35053,22.34004 0.7079,0.70793 38.54443,-21.90735 c 5.52612,-3.14649 8.24007,-7.27624 8.24007,-11.38635 -0.33332,3.77576 -3.14657,7.35493 -8.14187,10.24573 z"
   id="path1882"
   style="opacity:1;stroke-width:0.196655" />
<path
   class="st10"
   d="m 105.25403,130.50559 153.76449,87.35422 c 4.9953,2.81216 7.80746,6.4896 8.24008,10.24572 0,-4.11011 -2.71397,-8.23986 -8.24008,-11.38635 L 105.25403,129.36499 c -11.032145,-6.31262 -19.980095,-1.04224 -19.980095,11.56334 v 1.14059 c 0,-12.62524 8.94795,-17.79729 19.980095,-11.56333 z"
   id="path1884"
   style="opacity:1;stroke-width:0.196655" />
</svg>
