<?xml version="1.0" encoding="UTF-8" standalone="no"?>
<svg
   xmlns:d="https://loading.io/stock/"
   xmlns:dc="http://purl.org/dc/elements/1.1/"
   xmlns:cc="http://creativecommons.org/ns#"
   xmlns:rdf="http://www.w3.org/1999/02/22-rdf-syntax-ns#"
   xmlns:svg="http://www.w3.org/2000/svg"
   xmlns="http://www.w3.org/2000/svg"
   xmlns:sodipodi="http://sodipodi.sourceforge.net/DTD/sodipodi-0.dtd"
   xmlns:inkscape="http://www.inkscape.org/namespaces/inkscape"
   width="2720"
   height="830"
   viewBox="0 0 719.66666 219.60416"
   version="1.1"
   id="svg8"
   inkscape:version="1.0.1 (3bc2e813f5, 2020-09-07)"
   sodipodi:docname="drawing.svg">
  <defs
     id="defs2" />
  <sodipodi:namedview
     id="base"
     pagecolor="#ffffff"
     bordercolor="#666666"
     borderopacity="1.0"
     inkscape:pageopacity="0.0"
     inkscape:pageshadow="2"
     inkscape:zoom="0.24748738"
     inkscape:cx="1241.1515"
     inkscape:cy="283.61151"
     inkscape:document-units="mm"
     inkscape:current-layer="g1505"
     inkscape:document-rotation="0"
     showgrid="false"
     units="px"
     inkscape:window-width="1366"
     inkscape:window-height="705"
     inkscape:window-x="-8"
     inkscape:window-y="-8"
     inkscape:window-maximized="1"
     inkscape:snap-global="false" />
  <metadata
     id="metadata5">
    <rdf:RDF>
      <cc:Work
         rdf:about="">
        <dc:format>image/svg+xml</dc:format>
        <dc:type
           rdf:resource="http://purl.org/dc/dcmitype/StillImage" />
        <dc:title></dc:title>
      </cc:Work>
    </rdf:RDF>
  </metadata>
  <g
     inkscape:label="Layer 1"
     inkscape:groupmode="layer"
     id="layer1">
    <g
       id="g852"
       transform="translate(-283.37432,-25.623173)" />
    <g
       id="g1505"
       transform="translate(-217.54129)">
      <g
         aria-label="BLOCKSw"
         id="text1421"
         style="font-weight:bold;font-size:179.917px;line-height:1.25;font-family:Nero;-inkscape-font-specification:'Nero Bold';fill:#333333;fill-opacity:1;stroke-width:0.264583"
         transform="translate(116.946)">
        <path
           d="m 298.21811,150.0752 37.60777,37.60777 -27.20173,27.20174 h -73.0248 l 27.20173,-27.20174 H 297.3053 L 259.69753,150.0752 Z m 0,0 v -27.74942 h -38.52058 l 27.20174,-27.20174 h 38.52058 v 27.56686 z m -65.90488,-0.36512 27.3843,-27.3843 v 27.74942 37.60777 l -27.3843,27.20174 z"
           style="font-size:182.562px;fill:#333333;fill-opacity:1"
           id="path1432" />
        <path
           d="m 426.55891,187.50041 v 0 l -27.20173,27.3843 h -53.12555 l 27.20174,-27.3843 z M 370.32982,95.12404 v 92.37637 l -27.20174,27.3843 v -92.55893 z"
           style="font-size:182.562px;fill:#333333;fill-opacity:1"
           id="path1434" />
        <path
           d="M 537.81024,187.50041 V 122.6909 l 27.20174,-27.3843 v 119.57811 z m 84.16108,-92.19381 -27.3843,27.3843 H 567.38529 V 95.3066 Z m -54.58603,92.55894 h 20.44694 l 30.67041,-30.48786 v 38.52058 l -19.35157,19.16901 h -31.76578 z"
           style="font-size:182.562px;fill:#333333;fill-opacity:1"
           id="path1438" />
        <path
           d="m 658.3011,160.6638 h 38.52058 l 15.70034,15.70033 v 38.52058 z m 0,-65.53976 v 23.73306 l -27.20173,27.3843 V 95.12404 Z m 26.83662,0 h 38.52058 l -65.3572,65.53976 v 27.01917 l -27.20173,27.20174 v -65.53976 z"
           style="font-size:182.562px;fill:#333333;fill-opacity:1"
           id="path1440" />
        <path
           d="m 819.50318,95.12404 -27.3843,27.20174 H 766.37764 V 95.12404 Z m -55.31628,0 v 37.42521 l 27.74942,27.74942 h -38.52058 l -16.43058,-16.43058 v -21.54231 z m 27.74942,65.17463 27.20174,27.20174 v 0.18256 0 l -27.20174,27.20174 h -38.70314 l -27.3843,-27.20174 27.3843,-27.3843 v 27.3843 h 38.70314 z"
           style="font-size:182.562px;fill:#333333;fill-opacity:1"
           id="path1442" />
        <g
           class="ldl-scale"
           id="g5369"
           transform="matrix(1.2179233,0,0,1.2179233,417.13347,94.67583)"
           style="fill:#333333;fill-opacity:1">
          <g
             id="g5365"
             style="fill:#333333;fill-opacity:1">
            <path
               d="M 42,8 42.3,7.8 42.5,7.7 H 42.2 L 42,7.8 H 41.8 L 41.7,7.9 41.4,8 41.3,8.1 h 0.3 z"
               fill="#333"
               style="fill:#333333;fill-opacity:1"
               id="path5287" />
            <path
               d="m 22.7,24.2 0.2,-0.3 -0.2,0.1 -0.1,0.2 v 0.5 l 0.1,0.1 0.3,-0.2 -0.2,-0.1 z"
               fill="#333"
               style="fill:#333333;fill-opacity:1"
               id="path5289" />
            <path
               d="M 41.5,8.4 41.8,8.3 41.9,8.2 V 8.1 l -0.3,0.1 h -0.3 l -0.1,0.1 0.1,0.1 z"
               fill="#333"
               style="fill:#333333;fill-opacity:1"
               id="path5291" />
            <path
               d="M 40.9,8.6 41.1,8.5 V 8.4 h -0.2 l -0.1,0.1 v 0.1 z"
               fill="#333"
               style="fill:#333333;fill-opacity:1"
               id="path5293" />
            <path
               d="M 43.2,8.5 42.9,8.6 43,8.8 42.9,8.9 H 42.6 L 42.7,8.8 V 8.7 H 42.4 L 42.1,8.9 H 41.8 L 41.6,8.8 H 41.4 L 41.2,9 40.8,9.2 41.1,8.9 H 41 L 40.5,9 40.3,8.9 40,9 39.9,9.2 39.8,9.3 40,9.5 39.8,9.7 40.3,9.8 40.5,9.7 40.4,9.6 h 1.2 L 42,9.4 h 0.1 l 0.1,-0.1 0.1,0.2 h 0.2 l 0.2,0.1 0.6,-0.1 h 0.8 L 44,9.4 h 1 L 45.1,9.3 V 8.9 L 44.9,8.8 H 45 L 44.9,8.6 H 44.3 L 44.5,8.5 44.2,8.4 H 44.1 V 8.3 h -0.4 l -0.2,0.1 z"
               fill="#333"
               style="fill:#333333;fill-opacity:1"
               id="path5295" />
            <path
               d="m 26.6,22.7 -0.4,0.3 -1.1,0.7 -0.5,0.2 v 0.3 h -0.3 l -0.1,0.2 0.4,0.4 0.3,0.2 0.1,0.3 -0.4,0.2 0.2,0.1 0.7,-0.3 v 0.1 l -0.4,0.5 0.1,0.2 0.1,0.1 0.5,-0.5 0.2,-0.4 0.2,-0.4 H 26 l 0.4,-0.4 -0.1,-0.4 -0.2,0.1 -0.1,-0.3 0.2,-0.2 v -0.2 l -0.3,0.1 0.5,-0.4 0.5,-0.3 0.2,-0.1 -0.1,-0.1 z"
               fill="#333"
               style="fill:#333333;fill-opacity:1"
               id="path5297" />
            <path
               d="M 24.4,23.1 24.5,23 v -0.4 l -0.1,-0.4 h -0.1 l -0.1,0.4 0.1,0.4 z"
               fill="#333"
               style="fill:#333333;fill-opacity:1"
               id="path5299" />
            <path
               d="M 39.7,8.5 40,8.4 40.4,8.3 h -0.1 l 0.1,-0.1 h -0.2 l 0.1,-0.1 -0.5,0.1 -0.1,0.1 h -0.4 l -0.1,0.1 v 0.2 z"
               fill="#333"
               style="fill:#333333;fill-opacity:1"
               id="path5301" />
            <path
               d="m 42.2,8.3 v 0.1 h -0.5 l -0.3,0.1 -0.1,0.2 v 0.1 h 0.8 L 42.3,8.7 42.8,8.6 42.9,8.5 43.1,8.4 43.5,8.3 V 8.2 H 43.1 L 42.8,8.1 42.5,8.2 Z"
               fill="#333"
               style="fill:#333333;fill-opacity:1"
               id="path5303" />
            <path
               d="m 37.8,10.3 -0.4,0.2 v 0.1 h 0.1 v 0.3 L 37.7,10.8 38,10.5 38.1,10.3 38,10.2 Z"
               fill="#333"
               style="fill:#333333;fill-opacity:1"
               id="path5305" />
            <path
               d="m 30.9,13.2 h 0.2 l 0.2,-0.2 -0.1,-0.1 0.4,-0.1 0.2,-0.3 0.2,-0.2 0.1,-0.2 H 32 l 0.3,-0.2 0.1,-0.1 -0.6,0.2 -0.6,0.3 h -0.3 l 0.1,0.2 -0.4,0.2 h 0.7 L 31,12.9 Z"
               fill="#333"
               style="fill:#333333;fill-opacity:1"
               id="path5307" />
            <path
               d="M 39.2,8.8 39.5,8.7 H 39.1 L 38.8,8.8 38.7,8.9 H 39 Z"
               fill="#333"
               style="fill:#333333;fill-opacity:1"
               id="path5309" />
            <path
               d="M 30.2,13.1 30,13.3 v 0.1 l 0.4,-0.1 h 0.1 v -0.2 z"
               fill="#333"
               style="fill:#333333;fill-opacity:1"
               id="path5311" />
            <path
               d="m 34.6,14.3 -0.1,-0.2 0.4,-0.5 v -0.2 l 0.2,-0.5 h 0.5 l 0.5,-0.4 0.2,-0.3 0.2,-0.3 0.3,-0.3 -0.2,-0.1 0.3,-0.2 0.2,-0.2 0.3,-0.4 H 37.1 L 36.9,10.6 37.3,10.5 38,10.1 37.7,10 37.1,10.1 37.6,9.8 H 38 L 37.9,9.6 H 37.6 L 37,9.7 36.2,9.9 v 0.2 h -0.3 l -0.3,0.1 -0.1,0.2 -0.2,0.3 -0.1,0.5 0.1,0.1 h 0.3 l -0.2,0.2 -0.1,0.1 -0.3,0.3 h -0.2 l -0.2,0.4 -0.2,0.3 -0.2,0.1 -0.3,0.2 -0.7,0.2 -0.4,0.2 -0.2,0.1 -0.2,-0.2 -0.1,-0.2 -0.6,0.1 -0.1,0.3 0.2,0.3 0.2,-0.1 -0.2,0.4 -0.2,0.4 h -0.2 l -0.3,0.4 -0.1,0.5 v 0.6 l 0.2,-0.2 0.3,-0.4 0.4,-0.6 -0.3,0.7 v 0.3 l 0.5,-0.3 0.6,-0.5 0.1,-0.1 0.1,-0.4 0.3,-0.3 0.4,-0.2 0.2,0.1 -0.5,0.5 -0.1,0.3 1,-0.2 z"
               fill="#333"
               style="fill:#333333;fill-opacity:1"
               id="path5313" />
            <path
               d="M 38.6,9.8 38.5,10 h 0.4 L 39.2,9.9 39.5,9.8 V 9.6 L 39.4,9.5 39.3,9.4 V 9.3 L 39.4,9.2 39.5,9.1 39.7,9 40,8.9 40.2,8.8 40.3,8.7 40.5,8.6 40.6,8.4 H 40.4 L 40.1,8.5 40,8.7 39.6,8.8 39.3,8.9 38.9,9 38.6,9.3 38.5,9.5 v 0.1 z"
               fill="#333"
               style="fill:#333333;fill-opacity:1"
               id="path5315" />
            <path
               d="M 30,13.8 29.8,14 v 0.1 l 0.3,-0.2 0.1,-0.1 v -0.1 z"
               fill="#333"
               style="fill:#333333;fill-opacity:1"
               id="path5317" />
            <path
               d="m 33.8,12.6 0.1,-0.1 0.3,-0.1 0.2,-0.2 h -0.2 l -0.4,0.1 -0.3,0.2 0.1,0.1 z"
               fill="#333"
               style="fill:#333333;fill-opacity:1"
               id="path5319" />
            <path
               d="m 37.5,9.4 h 0.6 L 38.3,9.2 38.4,9 38.2,8.9 38,9 H 37.6 L 37,9.2 36.9,9.4 37.4,9.3 Z"
               fill="#333"
               style="fill:#333333;fill-opacity:1"
               id="path5321" />
            <path
               d="m 67.1,39 0.5,-0.4 -0.1,-0.1 v -0.1 l 0.2,-0.4 -0.4,0.3 -0.4,0.1 v 0.2 l -0.3,0.1 0.2,0.3 z"
               fill="#333"
               style="fill:#333333;fill-opacity:1"
               id="path5323" />
            <path
               d="M 53.5,25.9 53.7,25.4 53.5,25 52.9,25.3 53,25.6 Z"
               fill="#333"
               style="fill:#333333;fill-opacity:1"
               id="path5325" />
            <path
               d="m 52.9,35.6 0.2,-0.6 -0.2,-0.6 -0.3,0.3 -0.1,0.2 0.2,0.5 z"
               fill="#333"
               style="fill:#333333;fill-opacity:1"
               id="path5327" />
            <path
               d="M 47.8,26.1 47.5,25.3 V 25.2 L 47,25.1 47.5,24.6 47.6,24 h -0.4 l -0.4,0.1 0.5,-0.7 h -0.8 l -0.4,0.5 -0.2,0.6 0.1,0.4 -0.1,0.6 0.3,-0.3 0.1,0.2 -0.2,0.3 0.1,0.2 0.5,0.1 v 0.1 l 0.3,0.4 -0.2,0.4 -0.6,-0.1 -0.1,0.4 0.2,0.4 -0.6,0.2 0.1,0.3 0.7,0.1 h 0.1 l -0.5,0.2 -0.8,0.7 0.3,0.1 0.3,-0.2 0.5,0.1 0.3,-0.3 0.2,0.1 0.8,-0.2 0.7,0.1 0.4,-0.4 -0.2,-0.3 0.3,-0.2 L 49,27.4 48.4,27.3 48.3,27 48.1,26.2 Z"
               fill="#333"
               style="fill:#333333;fill-opacity:1"
               id="path5329" />
            <path
               d="m 62.4,39.7 0.8,-0.2 0.1,-0.3 -0.3,0.2 v -0.2 h -0.5 l -0.4,0.2 -0.4,-0.3 v 0.4 h 0.7 z"
               fill="#333"
               style="fill:#333333;fill-opacity:1"
               id="path5331" />
            <path
               d="m 35.4,18.8 0.3,-0.4 0.7,-0.3 0.5,-0.3 0.3,-0.3 0.5,-0.3 h 1 l 0.8,-0.1 0.8,-0.5 0.4,-0.1 0.2,0.1 h 0.8 l 0.9,-0.3 0.9,-0.3 -0.3,-0.1 -0.5,-0.1 0.4,-0.2 0.2,-0.4 v 0.3 l 0.1,0.3 h 0.4 L 44,15.3 43.9,15 l -0.2,-0.2 0.2,-0.1 0.3,0.3 0.1,-0.2 v -0.4 h 0.6 L 45.1,14.3 45,14 l 0.4,0.1 v -0.5 h 0.2 l 0.2,-0.4 -0.1,-0.3 0.4,-0.1 0.2,0.1 v -0.3 l 0.3,-0.5 0.3,-0.3 0.4,-0.3 H 47 47.4 l 0.2,-0.1 0.6,-0.2 V 11 L 48,10.9 H 47.4 L 47,11 47.3,10.8 V 10.7 L 47,10.8 46.9,10.6 46.6,10.5 v -0.1 l 0.5,0.1 0.3,0.1 0.3,-0.1 L 47.5,10.1 47,9.9 46.7,9.8 46.5,9.9 46.3,9.8 45.7,9.9 45.5,10 45.3,10.2 45.4,10.1 45.3,10 45.4,9.8 44.9,9.9 45.1,9.8 44.9,9.6 H 44.6 L 44.4,9.5 44.1,9.7 43.9,9.6 H 43.3 L 43,9.7 42.9,9.9 h -0.8 l -0.5,-0.2 -0.3,0.1 -0.2,0.3 0.1,0.3 -0.2,-0.1 -0.3,-0.1 -0.4,0.3 -0.1,0.1 0.1,0.2 0.2,0.1 0.1,0.2 -0.1,0.4 -0.3,0.1 -0.1,0.2 -0.6,0.5 -0.3,0.3 -0.2,0.2 -0.7,0.2 v 0.2 h 0.2 l -0.1,0.2 -0.1,0.4 -0.2,-0.2 -0.1,-0.1 -0.4,0.2 -0.4,0.2 v 0.3 H 38 l -0.5,0.3 -0.3,0.1 h -0.5 l -0.8,0.4 -0.1,0.3 -0.5,0.2 -0.3,0.6 -0.5,0.4 -0.2,0.4 -0.4,0.8 -0.3,0.6 -0.1,0.4 0.4,0.2 v 0.7 l 0.4,0.1 0.6,-0.5 z"
               fill="#333"
               style="fill:#333333;fill-opacity:1"
               id="path5333" />
            <path
               d="M 45.5,26.5 45.8,26 45.4,25.6 h -0.3 l -0.4,0.3 -0.7,0.4 0.1,0.7 -0.5,0.7 0.6,0.2 0.9,-0.3 0.4,-0.6 z"
               fill="#333"
               style="fill:#333333;fill-opacity:1"
               id="path5335" />
            <path
               d="m 44.5,19.1 -0.1,-0.4 0.2,-0.4 -0.5,-0.1 -0.6,0.2 -0.3,-0.2 -0.5,0.2 L 42.4,18 H 42 l -0.4,0.3 0.5,0.3 -0.1,0.1 h -0.5 l 0.4,0.4 -0.4,0.2 0.8,0.4 0.3,0.1 h 0.3 L 44,19.5 Z"
               fill="#333"
               style="fill:#333333;fill-opacity:1"
               id="path5337" />
            <path
               d="m 56.1,38.8 0.5,0.2 0.1,-0.4 -0.1,-0.2 0.1,-0.6 -0.4,0.1 -0.6,0.1 H 55 v 0.4 l 0.8,0.3 z"
               fill="#333"
               style="fill:#333333;fill-opacity:1"
               id="path5339" />
            <path
               d="m 52.6,37.3 0.2,0.2 0.2,-0.3 h 0.3 v -1 l -0.4,-0.5 -0.2,0.3 -0.4,-0.1 0.2,0.5 z"
               fill="#333"
               style="fill:#333333;fill-opacity:1"
               id="path5341" />
            <path
               d="m 80,71.4 -0.1,-0.2 -0.2,-0.2 -0.2,0.4 -0.1,0.4 -0.3,0.5 -0.2,0.1 v 0.2 l -0.2,0.4 -0.5,0.6 -0.4,0.5 h -0.3 l -0.2,0.2 -0.3,0.3 -0.3,0.1 -0.2,0.4 -0.2,0.4 -0.1,0.6 v 0.6 l -0.1,0.4 -0.4,0.6 -0.1,0.2 -0.2,0.1 -0.3,0.5 v 0.8 L 75,79.8 V 80 l 0.3,0.1 h 0.3 l 0.5,-0.4 0.5,-0.3 0.4,-0.7 0.5,-0.9 0.7,-1.3 0.5,-0.9 0.4,-0.8 0.1,-0.6 0.2,-0.2 0.1,-0.3 v -0.4 l 0.2,-0.2 v 0.3 L 79.9,73.2 80,72.8 79.9,72.6 80,71.8 Z"
               fill="#333"
               style="fill:#333333;fill-opacity:1"
               id="path5343" />
            <path
               d="m 52.8,12.3 -0.3,0.1 0.2,0.2 -0.1,0.1 0.4,0.1 0.2,-0.3 h -0.3 z"
               fill="#333"
               style="fill:#333333;fill-opacity:1"
               id="path5345" />
            <path
               d="m 52.1,11.8 0.1,0.1 h 0.4 l 0.3,-0.1 v -0.3 l -0.3,-0.1 h -0.3 l -0.1,0.1 -0.2,-0.1 -0.3,0.2 0.2,0.2 z"
               fill="#333"
               style="fill:#333333;fill-opacity:1"
               id="path5347" />
            <path
               d="m 51.4,12.7 0.3,0.1 -0.1,0.1 0.4,0.3 h 0.2 v -0.4 l 0.1,-0.1 -0.1,-0.4 0.3,-0.2 -0.6,-0.2 -0.2,-0.2 -0.2,0.1 v 0.1 H 51.3 L 51.2,11.8 50.9,12 51,12.3 Z"
               fill="#333"
               style="fill:#333333;fill-opacity:1"
               id="path5349" />
            <path
               d="m 11.8,42.8 v -0.2 l -0.1,-0.2 -0.2,-0.2 -0.1,0.3 0.1,0.2 0.2,0.2 z"
               fill="#333"
               style="fill:#333333;fill-opacity:1"
               id="path5351" />
            <path
               d="m 54.9,10.9 0.2,0.1 0.1,-0.1 -0.1,-0.1 v -0.1 h 0.1 l -0.1,-0.1 h -0.2 v 0.1 l 0.1,0.1 -0.2,-0.1 h -0.1 l -0.1,0.2 0.2,-0.1 z"
               fill="#333"
               style="fill:#333333;fill-opacity:1"
               id="path5353" />
            <path
               d="m 57.2,8.8 h 0.9 L 58.3,8.7 58.2,8.5 57.6,8.4 h -0.7 l -0.4,0.1 0.2,0.1 z"
               fill="#333"
               style="fill:#333333;fill-opacity:1"
               id="path5355" />
            <path
               d="M 58.9,8.7 58.5,8.3 58.2,8.2 57.9,8.3 57.8,8.4 h 0.1 z"
               fill="#333"
               style="fill:#333333;fill-opacity:1"
               id="path5357" />
            <path
               d="m 58.7,11.1 v 0.2 l -0.1,0.3 V 12 l 0.1,0.4 0.2,0.1 0.2,0.5 h 0.2 l 0.2,0.5 0.3,0.2 v 0.2 l 0.3,0.2 h 0.4 l 0.3,0.1 0.5,-0.2 0.1,-0.1 -0.8,-0.2 -0.5,-0.3 -0.3,-0.5 -0.4,-0.4 -0.2,-0.6 V 11.1 L 59,11 58.7,10.9 Z"
               fill="#333"
               style="fill:#333333;fill-opacity:1"
               id="path5359" />
            <path
               d="m 11.6,49.4 v 0.3 l -0.1,0.1 v 0.1 l 0.3,0.2 0.1,-0.6 -0.1,-0.1 z"
               fill="#333"
               style="fill:#333333;fill-opacity:1"
               id="path5361" />
            <path
               fill="#333"
               d="M 94.8,45.1 94,40.2 92.8,35.4 91.1,30.7 89,26.3 86.5,22.1 83.6,18.2 80.3,14.7 76.7,11.5 72.8,8.8 68.6,6.5 64.2,4.7 59.6,3.4 54.9,2.6 50,2.3 l -4.6,0.3 -4.7,0.8 -4.6,1.3 -4.4,1.8 -4.2,2.3 -4,2.7 -3.7,3.1 -3.3,3.5 -3,3.9 -2.6,4.2 L 8.8,30.6 7.1,35.2 6,40 5.3,44.9 5,50 l 0.2,4.9 0.8,4.9 1.2,4.8 1.7,4.7 2.1,4.4 2.5,4.2 2.9,3.9 3.3,3.5 3.6,3.2 3.9,2.7 4.2,2.3 4.4,1.8 4.6,1.3 4.7,0.8 4.8,0.3 4.6,-0.3 4.7,-0.8 4.6,-1.3 4.4,-1.8 4.2,-2.3 4,-2.7 3.7,-3.1 3.3,-3.5 3,-3.9 2.6,-4.2 2.1,-4.4 1.7,-4.6 L 94,60 94.7,55.1 95,50 Z M 76.2,34 75.7,34.5 75,34.6 74.6,34.4 h -0.5 l -0.4,-0.5 -0.2,-0.3 0.1,-0.2 v -0.3 l -0.2,-0.6 0.3,-0.2 -0.2,-0.1 H 73.3 L 72.9,31.8 72.5,31.5 71.7,30.9 71.5,30.4 70.8,29.9 V 29.1 L 71.1,28.8 71,28.3 71.3,28 71.5,27.5 h 0.4 l 0.3,-0.2 0.3,0.4 0.3,0.7 h -0.4 l -0.2,0.2 0.3,0.5 -0.4,0.1 0.1,0.2 0.3,0.1 0.5,0.5 h 0.6 l 0.2,0.2 0.1,0.3 0.1,0.2 0.4,0.4 -0.2,-0.5 0.2,-0.3 0.3,0.3 0.5,0.3 -0.2,0.4 h -0.4 l 0.2,0.6 0.3,-0.1 0.2,0.5 0.4,0.1 0.3,0.8 0.3,0.5 z M 61.3,8.4 61,8.3 h -0.1 z m 28.8,34.1 0.1,0.8 V 43.2 Z M 37.7,8.7 h 0.2 z m 52.8,45.8 -0.7,4.5 -1.1,4.4 -1.5,4.2 -1.9,4.1 -2.3,3.8 -2.7,3.5 -3,3.2 -3.3,2.9 -3.6,2.5 -3.8,2.1 -4,1.6 -4.1,1.2 -4.2,0.7 -4.3,0.2 -4.2,-0.2 -4.2,-0.7 -4.1,-1.2 -4,-1.6 -3.8,-2.1 -3.6,-2.5 -3.3,-2.9 -2.8,-3 -0.2,-0.5 -0.2,-0.3 -0.2,-0.4 0.1,-0.4 0.3,-0.2 0.4,0.1 0.2,-0.1 0.6,0.1 0.5,0.2 V 77.4 L 21.8,77.3 21.7,76.7 22,76.1 21.9,75.3 22,75.1 v -0.4 l -0.1,-0.9 -0.3,-1.2 0.1,-0.4 h 0.1 l 0.3,-0.4 0.2,-0.6 0.7,-0.7 0.2,-0.3 0.1,-1.1 -0.1,-0.5 -0.3,-1 -0.2,-0.3 -0.5,-0.2 -0.4,-0.4 -0.8,-1.1 -0.8,-0.9 -0.8,-0.3 -1,-0.8 H 17.8 L 17.9,63.2 17.6,62.7 16.9,62 16.3,61.4 16,61.7 V 61 L 15.2,60.4 15,60.1 15.3,59.7 V 59.2 L 15.1,58.9 14.9,57.5 14.8,57 H 14.7 L 14.6,56.7 14.2,55.8 14,55.4 13.9,55.2 13.5,54.7 13.2,54.5 13.1,54.6 12.7,54.1 12.6,53.7 12.4,53.2 12.3,53.1 V 52.7 L 12.1,52 12,51.7 11.9,51.4 11.7,51.3 v -0.6 l -0.2,-0.6 -0.2,-0.3 v -0.4 h 0.3 L 11.2,49 10.8,48.7 v 0.2 L 10.6,49 10.4,48.7 10.3,48.2 10,48 9.8,47.7 V 47.4 L 9.7,46.8 9.6,46.6 V 46 l -0.1,0.1 v 0.4 H 9.4 v -1.1 l 0.7,-4.5 0.1,-0.4 0.1,0.2 0.1,0.1 0.1,0.3 -0.1,0.2 v 0.2 l 0.2,-0.4 h 0.1 v 0.2 l 0.1,0.1 0.1,-0.1 0.1,0.1 0.1,0.1 v 0.3 l 0.2,-0.2 V 41.2 L 11.2,41 11.3,40.8 11.2,40.7 V 40.4 L 11.1,40.3 V 39.9 H 11 l -0.1,0.1 -0.1,-0.4 -0.1,-0.2 -0.1,0.1 0.1,0.3 -0.1,0.3 v 0.4 l -0.1,0.1 -0.1,-0.3 0.9,-3.8 1.5,-4.2 1.8,-3.7 0.1,-0.1 0.1,0.1 0.3,-0.2 0.2,0.1 0.4,-0.3 0.4,-0.7 0.1,-0.2 v -0.1 l 0.4,-0.6 0.1,-0.4 v 0.3 l 0.3,-0.4 0.2,-0.2 -0.4,0.5 -0.1,0.4 -0.3,0.3 0.4,-0.4 0.2,-0.2 0.2,-0.2 0.1,-0.2 0.2,-0.4 -0.1,0.2 V 26 l -0.1,0.2 0.4,-0.3 0.4,-0.4 v -0.1 l 0.2,-0.1 -0.1,0.1 0.1,0.1 0.3,0.1 0.1,-0.2 -0.3,-0.2 h 0.2 l 0.1,0.1 0.1,0.1 0.2,0.1 0.1,0.1 0.2,0.1 0.1,-0.2 0.1,-0.2 -0.2,0.2 -0.1,-0.1 0.2,-0.4 0.3,-0.3 0.1,-0.1 0.4,-0.2 0.3,0.1 h 0.3 l 0.4,-0.1 0.1,-0.2 0.3,0.2 0.3,0.3 -0.7,0.3 -0.4,0.5 0.1,0.2 0.6,-0.2 h 0.4 l 0.8,0.1 0.6,-0.2 v -0.3 l 0.3,-0.4 -0.8,0.3 -0.4,-0.2 v -0.6 l 0.3,-0.5 0.5,-0.7 0.5,-0.2 0.1,-0.4 -0.3,-0.2 -0.8,0.1 -0.9,0.4 -0.2,-0.1 0.6,-0.3 0.9,-0.4 h 0.4 l 0.5,-0.2 0.2,0.2 0.3,0.3 0.3,0.5 0.4,0.2 0.7,-0.2 0.5,0.1 0.3,-0.1 0.4,-0.1 0.6,-0.6 0.1,-0.3 -0.1,-0.2 0.4,-0.5 v -0.3 l -0.2,-0.4 0.1,-0.4 0.1,-0.5 0.4,-0.3 0.5,-0.8 0.6,-0.8 0.4,-0.5 -0.4,0.1 -0.8,0.4 h -0.5 l 0.3,-0.4 v -0.2 l 0.7,-0.6 0.5,-0.4 0.2,-0.4 0.2,-0.2 0.3,-0.4 0.1,-0.3 h -0.2 v -0.2 l 0.1,-0.3 h -0.2 l -1,0.7 -0.6,0.4 -0.7,0.2 -0.4,0.5 -0.5,0.5 -0.4,0.3 -0.5,0.2 -0.5,0.1 -0.4,-0.1 -0.3,0.4 -0.9,0.8 -0.6,0.4 h -0.2 l 0.5,-0.7 0.6,-0.7 0.6,-0.5 0.5,-0.4 v -0.5 l 0.3,-0.4 0.2,-0.3 0.3,-0.3 3.3,-2.3 0.9,-0.5 V 12 l 0.4,-0.2 h 0.3 V 12 l 0.4,-0.1 0.3,-0.1 0.6,-0.1 0.3,-0.1 -0.2,0.2 0.1,0.1 h 0.5 l 0.3,-0.1 0.4,-0.2 0.4,-0.1 0.3,-0.1 0.3,-0.3 0.1,-0.2 v -0.2 l -0.5,0.3 -0.6,0.1 -0.5,0.1 0.5,-0.3 0.5,-0.2 0.5,-0.3 h -0.5 l 0.7,-0.2 0.2,-0.2 h 0.3 l 0.8,-0.4 0.3,-0.2 0.2,-0.2 h -0.5 l -0.8,0.2 -0.3,0.2 -0.5,0.4 -0.7,0.2 v -0.1 l 0.6,-0.2 h 0.1 L 35.1,9.8 35.2,9.7 36.4,9.2 36.6,9.3 37.4,9 37.8,8.8 h 0.3 L 38.3,8.7 V 8.6 l 0.2,-0.1 h -0.2 l 3.3,-0.9 h 0.7 l 0.1,0.1 0.2,-0.1 h 0.1 l 3.3,-0.5 4,-0.5 4.2,0.2 4.2,0.7 1.2,0.3 -0.2,0.2 0.1,0.2 0.2,0.1 H 59.4 V 8.4 L 59.2,8.3 59,8.4 59.4,8.6 59.7,8.7 60,8.8 v 0.1 l 0.4,0.2 h -0.2 l 0.1,0.2 0.2,0.1 0.1,0.2 0.3,0.3 V 10 l 0.4,0.2 0.4,0.1 v 0.2 l -0.1,0.2 0.1,0.2 0.7,0.3 0.6,0.2 h -0.5 l -0.1,0.2 0.2,0.3 0.5,0.2 H 62.9 L 62.3,11.8 62,11.7 v 0.1 l 0.5,0.2 0.3,0.4 0.6,0.2 0.6,0.4 0.4,0.2 0.2,-0.1 0.4,0.3 0.4,0.1 0.2,0.3 0.3,0.2 0.1,0.2 0.2,0.2 -0.2,0.1 -0.7,-0.8 -0.4,-0.3 -0.5,-0.1 -0.9,-0.5 -0.5,-0.2 -0.3,-0.1 -0.5,-0.4 -0.4,-0.2 -0.4,0.1 0.1,0.1 0.5,0.4 0.4,0.5 0.2,0.1 0.6,0.2 0.3,0.2 0.2,-0.1 0.1,0.1 0.5,0.1 0.3,0.3 -1.2,-0.1 H 63 l -0.7,0.2 0.1,0.2 0.5,0.1 0.2,0.4 -0.5,-0.2 v 0.3 L 62.3,15 62.4,15.2 62.1,15.3 62,15 h -0.2 l -0.2,0.7 -0.2,0.4 0.3,0.3 -0.2,0.2 -0.3,-0.1 -0.3,-0.3 0.2,-0.2 H 60 l 0.4,0.3 0.2,0.3 0.4,0.2 0.2,0.4 -0.4,-0.1 h -0.2 l -0.2,0.7 0.5,0.3 -0.1,0.2 -0.9,-0.2 v 0.3 l 0.3,0.2 0.1,0.3 H 60 L 59.5,18.8 59.1,18.2 59,18 l -0.7,-0.3 0.1,-0.1 1.4,0.1 0.3,-0.3 0.1,-0.4 -0.3,-0.3 -0.4,-0.2 -1.3,-0.3 H 57.5 L 56.9,16 56.8,16.2 56.4,16 56.6,15.8 55.7,15.6 55.4,15.8 H 55 l -0.2,0.5 h -0.4 l -0.5,0.3 -0.5,0.8 -0.4,0.4 -0.5,1.1 -0.4,0.8 -0.6,0.6 -0.8,0.7 -0.3,0.4 0.1,1.4 0.2,0.7 0.6,0.3 0.5,-0.2 0.7,-0.8 0.3,0.4 0.4,0.9 0.4,0.7 0.2,0.6 0.5,-0.1 0.1,-0.5 h 0.5 L 55,24.2 54.9,23.1 55.3,22.9 55.5,22.2 55,21.9 54.6,21.5 v -0.9 l 0.5,-0.6 0.3,-0.5 -0.2,-0.3 0.1,-0.4 0.4,-0.2 0.5,0.2 0.1,0.2 -0.1,0.2 -0.2,0.6 -0.2,0.4 v 0.4 l 0.3,0.5 0.1,0.6 0.4,0.2 0.3,0.3 0.5,-0.2 0.5,-0.3 0.6,-0.2 0.5,0.2 -0.2,0.4 -0.4,0.1 H 58 l -0.4,0.2 -0.4,0.2 0.2,0.4 0.3,0.2 0.1,-0.1 0.1,0.4 0.1,0.5 h -0.3 l -0.5,-0.4 -0.2,0.2 -0.1,0.4 0.1,0.5 0.2,0.5 -0.5,0.3 v 0.3 h -0.4 l -0.1,-0.2 -0.4,-0.1 -0.5,0.5 -0.6,0.4 -0.3,0.2 -0.2,-0.2 -0.5,-0.2 -0.2,0.2 -0.5,0.1 v -0.2 l -0.5,-0.1 v -0.3 l -0.1,-0.3 0.3,-0.5 0.1,0.1 0.1,-0.3 -0.2,-0.1 -0.1,-0.2 0.1,-0.2 v -0.3 l -0.3,0.2 -0.1,0.2 -0.4,0.1 -0.1,0.2 -0.1,0.2 0.1,0.7 0.2,0.4 v 0.4 l 0.1,0.3 -0.3,0.3 -0.1,-0.1 h -0.4 l -0.1,0.1 h -0.4 l -0.6,0.3 -0.4,1 -0.2,0.2 -0.4,0.1 -0.4,0.1 -0.2,0.6 -1.2,0.5 -0.4,-0.3 0.1,0.8 -0.7,-0.4 -0.6,0.1 v 0.5 l 0.7,0.3 0.3,0.4 0.5,0.8 -0.2,1.5 -0.3,0.4 h -1.3 l -0.6,-0.2 h -0.7 l -0.6,-0.2 -0.8,0.5 0.2,0.3 -0.1,0.5 v 0.3 l 0.1,0.3 v 0.3 l -0.2,0.4 -0.1,0.3 -0.3,0.3 -0.1,0.5 0.1,0.3 0.2,0.1 v 0.5 l -0.2,0.6 0.3,-0.1 0.3,0.1 0.3,-0.2 0.5,0.2 0.1,0.5 0.2,0.3 0.3,0.1 0.3,-0.3 0.4,-0.2 h 1.4 l 0.5,-0.6 0.5,-0.1 0.2,-0.5 0.4,-0.3 -0.2,-0.4 0.2,-0.6 0.4,-0.4 0.1,-0.3 0.7,-0.1 0.5,-0.5 V 35 l 0.1,-0.5 0.8,-0.2 1.1,0.2 0.5,-0.4 0.2,-0.1 0.3,-0.4 0.2,-0.1 0.5,0.2 0.3,0.1 0.2,0.7 0.4,0.4 0.5,0.5 0.5,0.3 h 0.4 L 56.1,36 H 56 l 0.2,0.3 0.2,0.1 0.2,0.4 0.3,0.4 -0.1,0.2 -0.1,0.4 V 38 l 0.2,-0.1 0.2,-0.7 0.2,-0.1 v -0.4 l -0.4,-0.2 0.2,-0.5 0.5,0.1 0.4,0.3 0.1,-0.3 V 36 l -0.5,-0.3 -0.4,-0.2 -0.5,-0.2 0.1,-0.2 -0.2,-0.2 H 56.2 L 55.5,34.3 55.2,33.7 54.7,33.4 54.5,33 v -0.2 l -0.1,-0.4 0.4,-0.3 0.4,0.1 -0.1,0.1 v 0.3 l 0.2,0.2 0.1,-0.3 0.3,0.1 v 0.2 l 0.3,0.3 v 0.2 l 0.5,0.5 0.5,0.2 0.4,0.2 0.5,0.2 0.3,0.1 0.2,0.2 h 0.1 l 0.1,0.1 v 0.7 l 0.1,0.4 0.3,0.2 v 0.2 h 0.1 l 0.1,0.2 0.4,0.4 0.3,0.3 0.2,0.5 0.3,0.6 0.5,0.3 0.4,-0.1 L 61,38 61.3,37.9 61.1,37.5 61.7,37.6 61.6,37.2 61.2,37 60.8,36.7 61,36.5 60.7,36.2 60.5,35.8 60.6,35.6 61,35.9 h 0.3 l 0.2,-0.2 -0.5,-0.3 0.6,-0.3 h 0.6 v 0.2 l 0.3,0.3 0.3,-0.5 0.2,-0.3 0.6,-0.2 V 34.4 L 63.1,34.2 63,34 62.7,33.6 V 33 l 0.2,-0.3 -0.1,-0.9 H 63 l 0.2,-0.2 -0.2,-0.1 0.2,-0.6 v -0.4 l 0.4,-0.2 0.1,0.3 h 0.8 l 0.2,0.1 -0.3,0.3 v 0.2 l 0.6,0.1 v 0.4 l 0.3,0.1 0.5,-0.6 0.4,-0.2 v -0.3 l -0.4,0.2 -0.3,-0.1 -0.2,-0.4 0.3,-0.4 0.4,-0.1 0.2,-0.3 0.3,-0.1 0.3,-0.2 0.1,0.1 -0.5,0.5 0.4,0.2 -0.1,0.7 -0.3,0.2 0.6,0.3 0.6,0.1 0.8,0.4 0.3,0.2 H 69 l 0.4,0.2 0.3,0.4 0.1,0.3 -0.4,0.5 -0.4,0.1 -0.5,0.3 -0.8,-0.1 -1,-0.3 -0.8,0.2 -0.5,0.3 -0.4,0.6 -1,0.1 -0.1,0.6 -0.8,0.2 -0.4,0.8 0.4,0.3 -0.3,0.5 0.5,0.3 0.5,0.7 0.6,-0.1 0.6,0.3 0.4,-0.2 v -0.3 l 0.6,-0.1 0.5,0.3 0.8,-0.3 0.2,-0.5 0.5,0.1 0.3,-0.1 -0.1,0.3 0.3,0.3 V 38 l 0.2,0.6 -0.1,0.6 v 1.5 l -0.1,0.4 -0.1,0.3 -0.2,0.3 -0.4,0.1 L 67.3,41.7 67.2,42 67,41.6 h -0.4 l -0.5,0.2 -0.2,0.2 -0.4,0.3 -0.3,-0.1 -0.6,-0.1 H 64 L 63.2,42.2 63,42 H 62.4 L 62.2,41.9 H 62 l -0.3,-0.3 h -0.8 l -0.4,0.2 -0.4,0.4 -0.1,0.4 0.2,0.6 L 60,43.6 59.7,43.8 59,43.5 58,43.2 57.4,43.1 57,42.4 56.1,42.1 55.7,42 55.4,42.1 54.7,41.9 54.5,41.8 54.3,41.4 H 54 L 53.8,41 54.2,40.6 V 39.9 L 54,39.7 v -0.4 l 0.3,-0.4 -0.1,-0.1 -0.5,0.3 V 38.7 L 53.3,38.6 52.6,39 H 52.2 L 52,38.9 h -0.6 l -0.6,0.3 -0.3,-0.1 -1,0.1 -1,0.1 -0.6,0.2 -0.4,0.3 -0.7,0.1 -0.6,0.4 H 45.9 L 45.3,40.1 H 44.7 L 44.4,39.7 H 44 l -0.2,0.5 -0.5,0.8 -0.5,0.3 -0.7,0.3 -0.4,0.4 -0.1,0.4 -0.3,0.6 v 1 l -0.6,0.6 -0.3,0.2 -0.6,0.5 h -0.6 l -0.4,0.3 -0.5,0.7 -0.5,0.2 -0.3,0.5 -0.1,0.4 -0.2,0.4 L 37,48 36.6,48.4 36.3,49 v 0.3 l -0.3,0.3 -0.3,0.2 -0.1,0.4 -0.1,0.3 0.3,0.4 0.1,0.4 -0.1,0.4 v 1.2 l -0.2,0.7 -0.2,0.4 v 0.4 l -0.2,0.4 -0.2,0.4 -0.3,0.1 0.3,0.3 0.2,0.7 -0.1,0.3 0.1,0.6 v 0.2 l 0.2,0.2 v 0.1 l 0.1,0.2 0.3,0.1 0.4,0.4 0.2,0.2 0.1,0.2 0.1,0.4 0.2,0.2 0.2,0.1 0.3,0.3 0.3,0.5 0.1,0.6 0.1,0.3 0.4,0.5 0.5,0.4 0.2,0.1 0.5,0.5 0.6,0.5 0.6,0.6 0.7,0.4 h 0.3 l 0.7,-0.2 0.5,-0.2 0.9,-0.1 h 0.5 l 0.5,0.2 H 45 l 0.7,0.2 0.7,-0.2 0.4,-0.2 1.2,-0.4 0.6,-0.1 0.6,-0.1 h 1.3 l 0.5,0.5 0.2,0.5 0.4,0.5 h 0.6 l 0.3,-0.2 h 0.3 l 0.8,-0.3 v 0.2 l 0.2,0.1 0.2,0.3 0.3,0.1 0.3,0.5 L 54.2,66 54,66.9 54.1,67 54,67.5 53.8,68 53.6,68.2 v 0.2 l 0.5,0.7 0.5,0.6 0.8,0.7 0.6,0.7 0.2,0.5 0.1,0.2 -0.1,0.1 0.4,0.4 0.1,0.4 0.2,0.6 -0.2,0.3 v 0.1 l 0.2,0.4 0.2,0.4 0.2,0.2 v 0.4 l -0.3,0.8 -0.2,0.3 -0.4,0.4 -0.2,0.3 -0.3,0.6 -0.1,0.3 -0.3,0.6 -0.1,0.5 v 0.9 l 0.5,0.5 0.1,0.4 0.3,0.7 0.3,0.4 0.2,0.2 0.1,0.3 V 83 l 0.1,0.8 0.1,0.4 0.1,0.5 0.2,0.3 0.4,0.3 0.4,0.6 0.2,0.4 0.3,0.4 0.2,0.3 -0.2,0.1 0.1,0.3 -0.1,0.3 0.1,0.1 v -0.1 l 0.2,0.2 h 0.2 l 0.2,0.1 h 0.3 l 0.4,-0.2 0.5,-0.1 0.7,-0.3 h 0.2 l 0.4,-0.1 h 0.6 l 0.3,-0.1 h 0.3 l 0.1,-0.1 0.3,-0.1 0.7,-0.3 0.5,-0.3 0.5,-0.4 0.8,-0.6 0.4,-0.4 0.2,-0.3 0.3,-0.3 0.1,-0.1 0.5,-0.3 0.2,-0.3 0.2,-0.4 0.3,-0.4 0.1,-0.3 h -0.1 v -0.2 l 0.3,-0.3 0.8,-0.5 0.5,-0.3 0.3,-0.3 0.2,-0.3 -0.1,-0.1 0.2,-0.3 0.2,-0.6 -0.1,0.1 V 79 l 0.1,-0.4 0.3,-0.2 0.5,-0.5 0.3,-0.2 0.8,-0.8 0.7,-0.5 0.6,-0.4 0.4,-0.5 0.3,-0.5 0.3,-0.5 v -0.3 l 0.1,-1 V 72.6 L 75,71.9 v -0.3 l -0.2,-0.1 -0.2,-0.6 -0.2,-0.4 0.1,-0.3 V 70 l 0.2,-0.5 v -0.2 l -0.4,-0.1 v -0.4 l 0.3,-1 0.3,-0.3 0.1,-0.5 0.2,-0.3 0.1,-0.5 0.2,-0.1 0.2,-0.3 0.4,-0.4 0.1,-0.2 0.1,-0.4 0.6,-1.1 0.5,-0.7 0.8,-1 0.8,-1 0.6,-1.3 0.4,-1 0.4,-1.3 0.2,-1.1 0.2,-1 v -0.9 l 0.1,-0.3 -0.1,-0.4 V 53 l -0.2,0.1 -0.2,0.4 -0.3,0.2 -0.2,0.3 -0.2,0.1 -0.3,0.1 -0.2,0.2 -0.2,0.2 -0.5,0.4 -0.6,0.3 -0.5,0.4 -0.3,0.1 -0.3,-0.2 -0.1,-0.3 -0.2,-0.1 -0.3,-0.1 0.3,-0.3 V 54.5 L 76.3,54.3 76,54.2 75.8,54 75.4,53.7 75,53.4 74.1,52.9 73.7,52.6 73.4,51.9 73,51 72.6,50.8 72.3,50.7 72,49.8 71.8,49 71.9,48.8 71.6,48.1 71.4,48 70.6,47.5 70.5,47 70.6,46.8 69.9,46.1 69.6,45.7 69.3,45.3 68.6,44.2 68.1,43.5 67.7,42.7 v -0.1 l 0.7,1 0.3,0.3 0.2,0.2 L 69,44 69.1,43.6 V 43 l 0.1,-0.3 v 1.1 l 0.3,-0.1 0.4,0.5 0.5,0.5 0.4,0.5 0.2,0.1 0.2,0.4 v 0.2 l 0.3,0.4 0.3,0.1 0.3,0.2 0.5,0.8 0.1,0.5 0.2,0.5 0.5,0.6 h 0.3 l 0.5,0.4 0.3,0.6 0.4,0.6 0.3,0.2 0.1,0.3 0.2,0.2 0.1,0.3 0.1,0.3 v 0.2 l 0.1,0.3 -0.1,0.1 0.2,0.3 0.2,0.5 0.1,0.2 v 0.4 l 0.2,0.4 0.4,-0.1 0.2,-0.2 0.3,-0.1 0.1,-0.2 0.1,-0.1 0.1,-0.2 0.1,-0.1 0.4,-0.2 0.3,-0.3 0.3,-0.4 h 0.2 l 0.2,-0.1 0.4,-0.7 0.7,-0.7 0.4,-0.5 v -0.7 l 0.3,-0.4 0.2,-0.1 0.3,-0.4 0.3,-0.1 0.2,-0.3 -0.1,-0.3 0.1,-0.3 0.3,-0.1 0.1,-0.2 v -0.4 l 0.2,-0.4 0.2,-0.1 V 46.5 L 82.5,46 v -0.6 l 0.2,-0.1 v -0.6 l 0.1,-0.3 V 43.7 L 82.7,43.5 H 82.5 L 82.4,43 82.1,42.7 h -0.3 l -0.3,0.1 -0.3,-0.1 -0.4,-0.4 -0.3,-0.6 V 41.5 L 80.4,41.2 H 80.3 V 42 l -0.2,0.6 -0.1,0.7 -0.3,0.1 -0.4,0.2 -0.3,0.3 -0.1,-0.2 -0.1,0.1 -0.2,-0.2 v -0.5 l -0.1,-0.4 -0.2,-0.2 -0.1,0.1 V 43 L 78.4,43.5 78.3,43.3 78.2,43.1 77.9,43 77.8,42.8 V 42.5 L 77.7,42.2 77.2,42 77,41.8 76.7,41.7 76.3,41.1 76,40.6 v -0.2 l -0.2,-0.3 0.3,-0.1 0.1,-0.4 0.4,0.1 0.2,-0.2 0.7,0.8 0.5,0.7 h 0.5 l 0.6,0.4 h 0.6 l 0.3,-0.6 0.3,-0.3 h 0.2 l 0.5,0.8 0.5,-0.2 0.5,-0.1 0.8,-0.2 0.5,-0.4 0.5,-0.4 0.5,-0.6 0.5,0.4 0.3,0.4 h 0.3 l 0.6,0.3 0.2,0.2 v 0.4 l 0.7,0.5 0.2,-0.1 0.2,-0.8 0.3,0.6 0.3,0.9 0.4,0.9 0.5,1.3 0.5,0.8 0.2,0.4 0.3,0.8 0.3,0.6 0.1,0.2 0.2,0.6 0.3,0.9 0.3,0.4 v 0.8 z m -25.6,6 -0.5,-0.3 h 0.1 z"
               style="fill:#333333;fill-opacity:1"
               id="path5363" />
          </g>
          <metadata
             id="metadata5367">
            <d:name
               style="animation-play-state:paused">globe</d:name>
            <d:tags
               style="animation-play-state:paused">globe,world map,atlas,earth,planet,visualization,visualize</d:tags>
            <d:license
               style="animation-play-state:paused">by</d:license>
            <d:slug
               style="animation-play-state:paused">f00uly</d:slug>
          </metadata>
        </g>
      </g>
      <path
         d="m 290.76237,167.4088 v -66.87231 l 46.47518,-48.45833 v 163.78862 z m 0,-72.36424 v -42.9664 h -72.67602 l 46.7872,-48.1352202 h 72.364 V 46.5862 Z m 93.2621,-91.1016202 h 24.32914 V 52.07816 h -71.11606 z"
         style="font-weight:bold;font-size:14.8167px;line-height:1.25;font-family:Nero;-inkscape-font-specification:'Nero Bold';fill:#ff0000;stroke-width:5.66849"
         id="path1407" />
    </g>
  </g>
</svg>
