<?xml version="1.0" encoding="UTF-8" standalone="no"?>
<svg
   xmlns:d="https://loading.io/stock/"
   xmlns:dc="http://purl.org/dc/elements/1.1/"
   xmlns:cc="http://creativecommons.org/ns#"
   xmlns:rdf="http://www.w3.org/1999/02/22-rdf-syntax-ns#"
   xmlns:svg="http://www.w3.org/2000/svg"
   xmlns="http://www.w3.org/2000/svg"
   xmlns:sodipodi="http://sodipodi.sourceforge.net/DTD/sodipodi-0.dtd"
   xmlns:inkscape="http://www.inkscape.org/namespaces/inkscape"
   width="830"
   height="830"
   viewBox="0 0 219.60416 219.60416"
   version="1.1"
   id="svg8"
   inkscape:version="1.0.1 (3bc2e813f5, 2020-09-07)"
   sodipodi:docname="icon.svg">
  <defs
     id="defs2" />
  <sodipodi:namedview
     id="base"
     pagecolor="#ffffff"
     bordercolor="#666666"
     borderopacity="1.0"
     inkscape:pageopacity="0.0"
     inkscape:pageshadow="2"
     inkscape:zoom="0.49497475"
     inkscape:cx="745.85377"
     inkscape:cy="518.52983"
     inkscape:document-units="mm"
     inkscape:current-layer="layer1"
     inkscape:document-rotation="0"
     showgrid="false"
     units="px"
     inkscape:window-width="1267"
     inkscape:window-height="728"
     inkscape:window-x="83"
     inkscape:window-y="0"
     inkscape:window-maximized="0"
     inkscape:snap-global="false" />
  <metadata
     id="metadata5">
    <rdf:RDF>
      <cc:Work
         rdf:about="">
        <dc:format>image/svg+xml</dc:format>
        <dc:type
           rdf:resource="http://purl.org/dc/dcmitype/StillImage" />
        <dc:title></dc:title>
      </cc:Work>
    </rdf:RDF>
  </metadata>
  <g
     inkscape:label="Layer 1"
     inkscape:groupmode="layer"
     id="layer1">
    <g
       id="g852"
       transform="translate(-283.37432,-25.623173)" />
    <g
       id="g1505"
       transform="translate(-217.54129)">
      <g
         aria-label="BLOCKSw"
         id="text1421"
         style="font-weight:bold;font-size:179.917px;line-height:1.25;font-family:Nero;-inkscape-font-specification:'Nero Bold';fill:#666666;fill-opacity:1;stroke-width:0.264583"
         transform="translate(116.946)" />
      <g
         id="g1634"
         transform="matrix(0.63458307,0,0,0.63458307,110.41135,-158.28326)">
        <rect
           style="font-weight:bold;font-size:179.917px;line-height:1.25;font-family:Nero;-inkscape-font-specification:'Nero Bold';opacity:0.999;fill:#4d4d4d;fill-opacity:1;fill-rule:evenodd;stroke-width:2.68953"
           id="rect1543"
           width="333.55234"
           height="333.55234"
           x="58.901257"
           y="257.64783"
           ry="68.420998"
           transform="translate(116.946)" />
        <g
           class="ldl-scale"
           id="g1536"
           transform="matrix(3.300413,0,0,3.1135926,169.3767,268.74436)"
           style="font-weight:bold;font-size:179.917px;line-height:1.25;font-family:Nero;-inkscape-font-specification:'Nero Bold';fill:#ffffff;fill-opacity:1;stroke-width:0.264583">
          <g
             id="g1532"
             style="fill:#ffffff;fill-opacity:1">
            <path
               d="M 42,8 42.3,7.8 42.5,7.7 H 42.2 L 42,7.8 H 41.8 L 41.7,7.9 41.4,8 41.3,8.1 h 0.3 z"
               fill="#333"
               style="fill:#ffffff;fill-opacity:1"
               id="path1454" />
            <path
               d="m 22.7,24.2 0.2,-0.3 -0.2,0.1 -0.1,0.2 v 0.5 l 0.1,0.1 0.3,-0.2 -0.2,-0.1 z"
               fill="#333"
               style="fill:#ffffff;fill-opacity:1"
               id="path1456" />
            <path
               d="M 41.5,8.4 41.8,8.3 41.9,8.2 V 8.1 l -0.3,0.1 h -0.3 l -0.1,0.1 0.1,0.1 z"
               fill="#333"
               style="fill:#ffffff;fill-opacity:1"
               id="path1458" />
            <path
               d="M 40.9,8.6 41.1,8.5 V 8.4 h -0.2 l -0.1,0.1 v 0.1 z"
               fill="#333"
               style="fill:#ffffff;fill-opacity:1"
               id="path1460" />
            <path
               d="M 43.2,8.5 42.9,8.6 43,8.8 42.9,8.9 H 42.6 L 42.7,8.8 V 8.7 H 42.4 L 42.1,8.9 H 41.8 L 41.6,8.8 H 41.4 L 41.2,9 40.8,9.2 41.1,8.9 H 41 L 40.5,9 40.3,8.9 40,9 39.9,9.2 39.8,9.3 40,9.5 39.8,9.7 40.3,9.8 40.5,9.7 40.4,9.6 h 1.2 L 42,9.4 h 0.1 l 0.1,-0.1 0.1,0.2 h 0.2 l 0.2,0.1 0.6,-0.1 h 0.8 L 44,9.4 h 1 L 45.1,9.3 V 8.9 L 44.9,8.8 H 45 L 44.9,8.6 H 44.3 L 44.5,8.5 44.2,8.4 H 44.1 V 8.3 h -0.4 l -0.2,0.1 z"
               fill="#333"
               style="fill:#ffffff;fill-opacity:1"
               id="path1462" />
            <path
               d="m 26.6,22.7 -0.4,0.3 -1.1,0.7 -0.5,0.2 v 0.3 h -0.3 l -0.1,0.2 0.4,0.4 0.3,0.2 0.1,0.3 -0.4,0.2 0.2,0.1 0.7,-0.3 v 0.1 l -0.4,0.5 0.1,0.2 0.1,0.1 0.5,-0.5 0.2,-0.4 0.2,-0.4 H 26 l 0.4,-0.4 -0.1,-0.4 -0.2,0.1 -0.1,-0.3 0.2,-0.2 v -0.2 l -0.3,0.1 0.5,-0.4 0.5,-0.3 0.2,-0.1 -0.1,-0.1 z"
               fill="#333"
               style="fill:#ffffff;fill-opacity:1"
               id="path1464" />
            <path
               d="M 24.4,23.1 24.5,23 v -0.4 l -0.1,-0.4 h -0.1 l -0.1,0.4 0.1,0.4 z"
               fill="#333"
               style="fill:#ffffff;fill-opacity:1"
               id="path1466" />
            <path
               d="M 39.7,8.5 40,8.4 40.4,8.3 h -0.1 l 0.1,-0.1 h -0.2 l 0.1,-0.1 -0.5,0.1 -0.1,0.1 h -0.4 l -0.1,0.1 v 0.2 z"
               fill="#333"
               style="fill:#ffffff;fill-opacity:1"
               id="path1468" />
            <path
               d="m 42.2,8.3 v 0.1 h -0.5 l -0.3,0.1 -0.1,0.2 v 0.1 h 0.8 L 42.3,8.7 42.8,8.6 42.9,8.5 43.1,8.4 43.5,8.3 V 8.2 H 43.1 L 42.8,8.1 42.5,8.2 Z"
               fill="#333"
               style="fill:#ffffff;fill-opacity:1"
               id="path1470" />
            <path
               d="m 37.8,10.3 -0.4,0.2 v 0.1 h 0.1 v 0.3 L 37.7,10.8 38,10.5 38.1,10.3 38,10.2 Z"
               fill="#333"
               style="fill:#ffffff;fill-opacity:1"
               id="path1472" />
            <path
               d="m 30.9,13.2 h 0.2 l 0.2,-0.2 -0.1,-0.1 0.4,-0.1 0.2,-0.3 0.2,-0.2 0.1,-0.2 H 32 l 0.3,-0.2 0.1,-0.1 -0.6,0.2 -0.6,0.3 h -0.3 l 0.1,0.2 -0.4,0.2 h 0.7 L 31,12.9 Z"
               fill="#333"
               style="fill:#ffffff;fill-opacity:1"
               id="path1474" />
            <path
               d="M 39.2,8.8 39.5,8.7 H 39.1 L 38.8,8.8 38.7,8.9 H 39 Z"
               fill="#333"
               style="fill:#ffffff;fill-opacity:1"
               id="path1476" />
            <path
               d="M 30.2,13.1 30,13.3 v 0.1 l 0.4,-0.1 h 0.1 v -0.2 z"
               fill="#333"
               style="fill:#ffffff;fill-opacity:1"
               id="path1478" />
            <path
               d="m 34.6,14.3 -0.1,-0.2 0.4,-0.5 v -0.2 l 0.2,-0.5 h 0.5 l 0.5,-0.4 0.2,-0.3 0.2,-0.3 0.3,-0.3 -0.2,-0.1 0.3,-0.2 0.2,-0.2 0.3,-0.4 H 37.1 L 36.9,10.6 37.3,10.5 38,10.1 37.7,10 37.1,10.1 37.6,9.8 H 38 L 37.9,9.6 H 37.6 L 37,9.7 36.2,9.9 v 0.2 h -0.3 l -0.3,0.1 -0.1,0.2 -0.2,0.3 -0.1,0.5 0.1,0.1 h 0.3 l -0.2,0.2 -0.1,0.1 -0.3,0.3 h -0.2 l -0.2,0.4 -0.2,0.3 -0.2,0.1 -0.3,0.2 -0.7,0.2 -0.4,0.2 -0.2,0.1 -0.2,-0.2 -0.1,-0.2 -0.6,0.1 -0.1,0.3 0.2,0.3 0.2,-0.1 -0.2,0.4 -0.2,0.4 h -0.2 l -0.3,0.4 -0.1,0.5 v 0.6 l 0.2,-0.2 0.3,-0.4 0.4,-0.6 -0.3,0.7 v 0.3 l 0.5,-0.3 0.6,-0.5 0.1,-0.1 0.1,-0.4 0.3,-0.3 0.4,-0.2 0.2,0.1 -0.5,0.5 -0.1,0.3 1,-0.2 z"
               fill="#333"
               style="fill:#ffffff;fill-opacity:1"
               id="path1480" />
            <path
               d="M 38.6,9.8 38.5,10 h 0.4 L 39.2,9.9 39.5,9.8 V 9.6 L 39.4,9.5 39.3,9.4 V 9.3 L 39.4,9.2 39.5,9.1 39.7,9 40,8.9 40.2,8.8 40.3,8.7 40.5,8.6 40.6,8.4 H 40.4 L 40.1,8.5 40,8.7 39.6,8.8 39.3,8.9 38.9,9 38.6,9.3 38.5,9.5 v 0.1 z"
               fill="#333"
               style="fill:#ffffff;fill-opacity:1"
               id="path1482" />
            <path
               d="M 30,13.8 29.8,14 v 0.1 l 0.3,-0.2 0.1,-0.1 v -0.1 z"
               fill="#333"
               style="fill:#ffffff;fill-opacity:1"
               id="path1484" />
            <path
               d="m 33.8,12.6 0.1,-0.1 0.3,-0.1 0.2,-0.2 h -0.2 l -0.4,0.1 -0.3,0.2 0.1,0.1 z"
               fill="#333"
               style="fill:#ffffff;fill-opacity:1"
               id="path1486" />
            <path
               d="m 37.5,9.4 h 0.6 L 38.3,9.2 38.4,9 38.2,8.9 38,9 H 37.6 L 37,9.2 36.9,9.4 37.4,9.3 Z"
               fill="#333"
               style="fill:#ffffff;fill-opacity:1"
               id="path1488" />
            <path
               d="m 67.1,39 0.5,-0.4 -0.1,-0.1 v -0.1 l 0.2,-0.4 -0.4,0.3 -0.4,0.1 v 0.2 l -0.3,0.1 0.2,0.3 z"
               fill="#333"
               style="fill:#ffffff;fill-opacity:1"
               id="path1490" />
            <path
               d="M 53.5,25.9 53.7,25.4 53.5,25 52.9,25.3 53,25.6 Z"
               fill="#333"
               style="fill:#ffffff;fill-opacity:1"
               id="path1492" />
            <path
               d="m 52.9,35.6 0.2,-0.6 -0.2,-0.6 -0.3,0.3 -0.1,0.2 0.2,0.5 z"
               fill="#333"
               style="fill:#ffffff;fill-opacity:1"
               id="path1494" />
            <path
               d="M 47.8,26.1 47.5,25.3 V 25.2 L 47,25.1 47.5,24.6 47.6,24 h -0.4 l -0.4,0.1 0.5,-0.7 h -0.8 l -0.4,0.5 -0.2,0.6 0.1,0.4 -0.1,0.6 0.3,-0.3 0.1,0.2 -0.2,0.3 0.1,0.2 0.5,0.1 v 0.1 l 0.3,0.4 -0.2,0.4 -0.6,-0.1 -0.1,0.4 0.2,0.4 -0.6,0.2 0.1,0.3 0.7,0.1 h 0.1 l -0.5,0.2 -0.8,0.7 0.3,0.1 0.3,-0.2 0.5,0.1 0.3,-0.3 0.2,0.1 0.8,-0.2 0.7,0.1 0.4,-0.4 -0.2,-0.3 0.3,-0.2 L 49,27.4 48.4,27.3 48.3,27 48.1,26.2 Z"
               fill="#333"
               style="fill:#ffffff;fill-opacity:1"
               id="path1496" />
            <path
               d="m 62.4,39.7 0.8,-0.2 0.1,-0.3 -0.3,0.2 v -0.2 h -0.5 l -0.4,0.2 -0.4,-0.3 v 0.4 h 0.7 z"
               fill="#333"
               style="fill:#ffffff;fill-opacity:1"
               id="path1498" />
            <path
               d="m 35.4,18.8 0.3,-0.4 0.7,-0.3 0.5,-0.3 0.3,-0.3 0.5,-0.3 h 1 l 0.8,-0.1 0.8,-0.5 0.4,-0.1 0.2,0.1 h 0.8 l 0.9,-0.3 0.9,-0.3 -0.3,-0.1 -0.5,-0.1 0.4,-0.2 0.2,-0.4 v 0.3 l 0.1,0.3 h 0.4 L 44,15.3 43.9,15 l -0.2,-0.2 0.2,-0.1 0.3,0.3 0.1,-0.2 v -0.4 h 0.6 L 45.1,14.3 45,14 l 0.4,0.1 v -0.5 h 0.2 l 0.2,-0.4 -0.1,-0.3 0.4,-0.1 0.2,0.1 v -0.3 l 0.3,-0.5 0.3,-0.3 0.4,-0.3 H 47 47.4 l 0.2,-0.1 0.6,-0.2 V 11 L 48,10.9 H 47.4 L 47,11 47.3,10.8 V 10.7 L 47,10.8 46.9,10.6 46.6,10.5 v -0.1 l 0.5,0.1 0.3,0.1 0.3,-0.1 L 47.5,10.1 47,9.9 46.7,9.8 46.5,9.9 46.3,9.8 45.7,9.9 45.5,10 45.3,10.2 45.4,10.1 45.3,10 45.4,9.8 44.9,9.9 45.1,9.8 44.9,9.6 H 44.6 L 44.4,9.5 44.1,9.7 43.9,9.6 H 43.3 L 43,9.7 42.9,9.9 h -0.8 l -0.5,-0.2 -0.3,0.1 -0.2,0.3 0.1,0.3 -0.2,-0.1 -0.3,-0.1 -0.4,0.3 -0.1,0.1 0.1,0.2 0.2,0.1 0.1,0.2 -0.1,0.4 -0.3,0.1 -0.1,0.2 -0.6,0.5 -0.3,0.3 -0.2,0.2 -0.7,0.2 v 0.2 h 0.2 l -0.1,0.2 -0.1,0.4 -0.2,-0.2 -0.1,-0.1 -0.4,0.2 -0.4,0.2 v 0.3 H 38 l -0.5,0.3 -0.3,0.1 h -0.5 l -0.8,0.4 -0.1,0.3 -0.5,0.2 -0.3,0.6 -0.5,0.4 -0.2,0.4 -0.4,0.8 -0.3,0.6 -0.1,0.4 0.4,0.2 v 0.7 l 0.4,0.1 0.6,-0.5 z"
               fill="#333"
               style="fill:#ffffff;fill-opacity:1"
               id="path1500" />
            <path
               d="M 45.5,26.5 45.8,26 45.4,25.6 h -0.3 l -0.4,0.3 -0.7,0.4 0.1,0.7 -0.5,0.7 0.6,0.2 0.9,-0.3 0.4,-0.6 z"
               fill="#333"
               style="fill:#ffffff;fill-opacity:1"
               id="path1502" />
            <path
               d="m 44.5,19.1 -0.1,-0.4 0.2,-0.4 -0.5,-0.1 -0.6,0.2 -0.3,-0.2 -0.5,0.2 L 42.4,18 H 42 l -0.4,0.3 0.5,0.3 -0.1,0.1 h -0.5 l 0.4,0.4 -0.4,0.2 0.8,0.4 0.3,0.1 h 0.3 L 44,19.5 Z"
               fill="#333"
               style="fill:#ffffff;fill-opacity:1"
               id="path1504" />
            <path
               d="m 56.1,38.8 0.5,0.2 0.1,-0.4 -0.1,-0.2 0.1,-0.6 -0.4,0.1 -0.6,0.1 H 55 v 0.4 l 0.8,0.3 z"
               fill="#333"
               style="fill:#ffffff;fill-opacity:1"
               id="path1506" />
            <path
               d="m 52.6,37.3 0.2,0.2 0.2,-0.3 h 0.3 v -1 l -0.4,-0.5 -0.2,0.3 -0.4,-0.1 0.2,0.5 z"
               fill="#333"
               style="fill:#ffffff;fill-opacity:1"
               id="path1508" />
            <path
               d="m 80,71.4 -0.1,-0.2 -0.2,-0.2 -0.2,0.4 -0.1,0.4 -0.3,0.5 -0.2,0.1 v 0.2 l -0.2,0.4 -0.5,0.6 -0.4,0.5 h -0.3 l -0.2,0.2 -0.3,0.3 -0.3,0.1 -0.2,0.4 -0.2,0.4 -0.1,0.6 v 0.6 l -0.1,0.4 -0.4,0.6 -0.1,0.2 -0.2,0.1 -0.3,0.5 v 0.8 L 75,79.8 V 80 l 0.3,0.1 h 0.3 l 0.5,-0.4 0.5,-0.3 0.4,-0.7 0.5,-0.9 0.7,-1.3 0.5,-0.9 0.4,-0.8 0.1,-0.6 0.2,-0.2 0.1,-0.3 v -0.4 l 0.2,-0.2 v 0.3 L 79.9,73.2 80,72.8 79.9,72.6 80,71.8 Z"
               fill="#333"
               style="fill:#ffffff;fill-opacity:1"
               id="path1510" />
            <path
               d="m 52.8,12.3 -0.3,0.1 0.2,0.2 -0.1,0.1 0.4,0.1 0.2,-0.3 h -0.3 z"
               fill="#333"
               style="fill:#ffffff;fill-opacity:1"
               id="path1512" />
            <path
               d="m 52.1,11.8 0.1,0.1 h 0.4 l 0.3,-0.1 v -0.3 l -0.3,-0.1 h -0.3 l -0.1,0.1 -0.2,-0.1 -0.3,0.2 0.2,0.2 z"
               fill="#333"
               style="fill:#ffffff;fill-opacity:1"
               id="path1514" />
            <path
               d="m 51.4,12.7 0.3,0.1 -0.1,0.1 0.4,0.3 h 0.2 v -0.4 l 0.1,-0.1 -0.1,-0.4 0.3,-0.2 -0.6,-0.2 -0.2,-0.2 -0.2,0.1 v 0.1 H 51.3 L 51.2,11.8 50.9,12 51,12.3 Z"
               fill="#333"
               style="fill:#ffffff;fill-opacity:1"
               id="path1516" />
            <path
               d="m 11.8,42.8 v -0.2 l -0.1,-0.2 -0.2,-0.2 -0.1,0.3 0.1,0.2 0.2,0.2 z"
               fill="#333"
               style="fill:#ffffff;fill-opacity:1"
               id="path1518" />
            <path
               d="m 54.9,10.9 0.2,0.1 0.1,-0.1 -0.1,-0.1 v -0.1 h 0.1 l -0.1,-0.1 h -0.2 v 0.1 l 0.1,0.1 -0.2,-0.1 h -0.1 l -0.1,0.2 0.2,-0.1 z"
               fill="#333"
               style="fill:#ffffff;fill-opacity:1"
               id="path1520" />
            <path
               d="m 57.2,8.8 h 0.9 L 58.3,8.7 58.2,8.5 57.6,8.4 h -0.7 l -0.4,0.1 0.2,0.1 z"
               fill="#333"
               style="fill:#ffffff;fill-opacity:1"
               id="path1522" />
            <path
               d="M 58.9,8.7 58.5,8.3 58.2,8.2 57.9,8.3 57.8,8.4 h 0.1 z"
               fill="#333"
               style="fill:#ffffff;fill-opacity:1"
               id="path1524" />
            <path
               d="m 58.7,11.1 v 0.2 l -0.1,0.3 V 12 l 0.1,0.4 0.2,0.1 0.2,0.5 h 0.2 l 0.2,0.5 0.3,0.2 v 0.2 l 0.3,0.2 h 0.4 l 0.3,0.1 0.5,-0.2 0.1,-0.1 -0.8,-0.2 -0.5,-0.3 -0.3,-0.5 -0.4,-0.4 -0.2,-0.6 V 11.1 L 59,11 58.7,10.9 Z"
               fill="#333"
               style="fill:#ffffff;fill-opacity:1"
               id="path1526" />
            <path
               d="m 11.6,49.4 v 0.3 l -0.1,0.1 v 0.1 l 0.3,0.2 0.1,-0.6 -0.1,-0.1 z"
               fill="#333"
               style="fill:#ffffff;fill-opacity:1"
               id="path1528" />
            <path
               fill="#333"
               d="m 97.292438,45.1 -0.8,-4.9 -1.2,-4.8 -1.7,-4.7 -2.1,-4.4 -2.5,-4.2 -2.9,-3.9 -3.3,-3.5 -3.6,-3.2 -3.9,-2.7 -4.2,-2.3 -4.4,-1.8 -4.6,-1.3 -4.7,-0.8 -4.9,-0.3 -4.6,0.3 -4.7,0.8 -4.6,1.3 -4.4,1.8 -4.2,2.3 -4,2.7 -3.7,3.1 -3.3,3.5 -3,3.9 -2.6,4.2 -2.100003,4.4 -1.7000021,4.6 -1.1,4.8 -0.7,4.9 -0.3,5.1 0.2,4.9 0.8,4.9 1.2,4.8 1.7000031,4.7 2.100002,4.4 2.5,4.2 2.9,3.9 3.3,3.5 3.6,3.2 3.9,2.7 4.2,2.3 4.4,1.8 4.6,1.3 4.7,0.8 4.8,0.3 4.6,-0.3 4.7,-0.8 4.6,-1.3 4.4,-1.8 4.2,-2.3 4,-2.7 3.7,-3.1 3.3,-3.5 3,-3.9 2.6,-4.2 2.1,-4.4 1.7,-4.6 1.2,-4.8 0.7,-4.9 0.3,-5.1 z m -18.6,-11.1 -0.5,0.5 -0.7,0.1 -0.4,-0.2 h -0.5 l -0.4,-0.5 -0.2,-0.3 0.1,-0.2 v -0.3 l -0.2,-0.6 0.3,-0.2 -0.2,-0.1 h -0.2 l -0.4,-0.4 -0.4,-0.3 -0.8,-0.6 -0.2,-0.5 -0.7,-0.5 v -0.8 l 0.3,-0.3 -0.1,-0.5 0.3,-0.3 0.2,-0.5 h 0.4 l 0.3,-0.2 0.3,0.4 0.3,0.7 h -0.4 l -0.2,0.2 0.3,0.5 -0.4,0.1 0.1,0.2 0.3,0.1 0.5,0.5 h 0.6 l 0.2,0.2 0.1,0.3 0.1,0.2 0.4,0.4 -0.2,-0.5 0.2,-0.3 0.3,0.3 0.5,0.3 -0.2,0.4 h -0.4 l 0.2,0.6 0.3,-0.1 0.2,0.5 0.4,0.1 0.3,0.8 0.3,0.5 z m -14.9,-25.6 -0.3,-0.1 h -0.1 z m 28.8,34.1 0.1,0.8 v -0.1 z m -52.4,-33.8 h 0.2 z m 52.8,45.8 -0.7,4.5 -1.1,4.4 -1.5,4.2 -1.9,4.1 -2.3,3.8 -2.7,3.5 -3,3.2 -3.3,2.9 -3.6,2.5 -3.8,2.1 -4,1.6 -4.1,1.2 -4.2,0.7 -4.3,0.2 -4.2,-0.2 -4.2,-0.7 -4.1,-1.2 -4,-1.6 -3.8,-2.1 -3.6,-2.5 -3.3,-2.9 -2.8,-3 -0.2,-0.5 -0.2,-0.3 -0.2,-0.4 0.1,-0.4 0.3,-0.2 0.4,0.1 0.2,-0.1 0.6,0.1 0.5,0.2 v -0.3 l 0.3,-0.1 -0.1,-0.6 0.3,-0.6 -0.1,-0.8 0.1,-0.2 v -0.4 l -0.1,-0.9 -0.3,-1.2 0.1,-0.4 h 0.1 l 0.3,-0.4 0.2,-0.6 0.7,-0.7 0.2,-0.3 0.1,-1.1 -0.1,-0.5 -0.3,-1 -0.2,-0.3 -0.5,-0.2 -0.4,-0.4 -0.8,-1.1 -0.8,-0.9 -0.8,-0.3 -1,-0.8 h -0.6 l 0.1,-0.4 -0.3,-0.5 -0.7,-0.7 -0.6,-0.6 -0.3,0.3 V 61 l -0.8,-0.6 -0.2,-0.3 0.3,-0.4 v -0.5 l -0.2,-0.3 -0.2,-1.4 -0.1,-0.5 h -0.1 l -0.1,-0.3 -0.4,-0.9 -0.2,-0.4 -0.1,-0.2 -0.4,-0.5 -0.3,-0.2 -0.1,0.1 -0.4,-0.5 -0.1,-0.4 -0.2,-0.5 -0.1,-0.1 v -0.4 l -0.2,-0.7 -0.1,-0.3 -0.1,-0.3 -0.2,-0.1 v -0.6 l -0.2,-0.6 -0.2,-0.3 v -0.4 h 0.3 l -0.4,-0.4 -0.4,-0.3 v 0.2 l -0.2,0.1 -0.2,-0.3 -0.1,-0.5 -0.3,-0.2 -0.200001,-0.3 v -0.3 l -0.1,-0.6 -0.1,-0.2 V 46 l -0.100001,0.1 v 0.4 h -0.1 v -1.1 l 0.7,-4.5 0.1,-0.4 0.1,0.2 0.1,0.1 0.1,0.3 -0.1,0.2 v 0.2 l 0.2,-0.4 h 0.1 v 0.2 l 0.1,0.1 0.1,-0.1 0.1,0.1 0.1,0.1 v 0.3 l 0.2,-0.2 v -0.4 l -0.1,-0.2 0.1,-0.2 -0.1,-0.1 v -0.3 l -0.1,-0.1 v -0.4 h -0.1 l -0.1,0.1 -0.1,-0.4 -0.1,-0.2 -0.1,0.1 0.1,0.3 -0.1,0.3 v 0.4 l -0.1,0.1 -0.1,-0.3 0.9,-3.8 1.5,-4.2 1.8,-3.7 0.1,-0.1 0.1,0.1 0.3,-0.2 0.2,0.1 0.4,-0.3 0.4,-0.7 0.1,-0.2 v -0.1 l 0.4,-0.6 0.1,-0.4 v 0.3 l 0.3,-0.4 0.2,-0.2 -0.4,0.5 -0.1,0.4 -0.3,0.3 0.4,-0.4 0.2,-0.2 0.2,-0.2 0.1,-0.2 0.2,-0.4 -0.1,0.2 V 26 l -0.1,0.2 0.4,-0.3 0.4,-0.4 v -0.1 l 0.2,-0.1 -0.1,0.1 0.1,0.1 0.3,0.1 0.1,-0.2 -0.3,-0.2 h 0.2 l 0.1,0.1 0.1,0.1 0.2,0.1 0.1,0.1 0.2,0.1 0.1,-0.2 0.1,-0.2 -0.2,0.2 -0.1,-0.1 0.2,-0.4 0.3,-0.3 0.1,-0.1 0.4,-0.2 0.3,0.1 h 0.3 l 0.4,-0.1 0.1,-0.2 0.3,0.2 0.3,0.3 -0.7,0.3 -0.4,0.5 0.1,0.2 0.6,-0.2 h 0.4 l 0.8,0.1 0.6,-0.2 v -0.3 l 0.3,-0.4 -0.8,0.3 -0.4,-0.2 v -0.6 l 0.3,-0.5 0.5,-0.7 0.5,-0.2 0.1,-0.4 -0.3,-0.2 -0.8,0.1 -0.9,0.4 -0.2,-0.1 0.6,-0.3 0.9,-0.4 h 0.4 l 0.5,-0.2 0.2,0.2 0.3,0.3 0.3,0.5 0.4,0.2 0.7,-0.2 0.5,0.1 0.3,-0.1 0.4,-0.1 0.6,-0.6 0.1,-0.3 -0.1,-0.2 0.4,-0.5 v -0.3 l -0.2,-0.4 0.1,-0.4 0.1,-0.5 0.4,-0.3 0.5,-0.8 0.6,-0.8 0.4,-0.5 -0.4,0.1 -0.8,0.4 h -0.5 l 0.3,-0.4 v -0.2 l 0.7,-0.6 0.5,-0.4 0.2,-0.4 0.2,-0.2 0.3,-0.4 0.1,-0.3 h -0.2 v -0.2 l 0.1,-0.3 h -0.2 l -1,0.7 -0.6,0.4 -0.7,0.2 -0.4,0.5 -0.5,0.5 -0.4,0.3 -0.5,0.2 -0.5,0.1 -0.4,-0.1 -0.3,0.4 -0.9,0.8 -0.6,0.4 h -0.2 l 0.5,-0.7 0.6,-0.7 0.6,-0.5 0.5,-0.4 v -0.5 l 0.3,-0.4 0.2,-0.3 0.3,-0.3 3.3,-2.3 0.9,-0.5 V 12 l 0.4,-0.2 h 0.3 V 12 l 0.4,-0.1 0.3,-0.1 0.6,-0.1 0.3,-0.1 -0.2,0.2 0.1,0.1 h 0.5 l 0.3,-0.1 0.4,-0.2 0.4,-0.1 0.3,-0.1 0.3,-0.3 0.1,-0.2 v -0.2 l -0.5,0.3 -0.6,0.1 -0.5,0.1 0.5,-0.3 0.5,-0.2 0.5,-0.3 h -0.5 l 0.7,-0.2 0.2,-0.2 h 0.3 l 0.8,-0.4 0.3,-0.2 0.2,-0.2 h -0.5 l -0.8,0.2 -0.3,0.2 -0.5,0.4 -0.7,0.2 v -0.1 l 0.6,-0.2 h 0.1 l 0.3,-0.1 0.1,-0.1 1.2,-0.5 0.2,0.1 0.8,-0.3 0.4,-0.2 h 0.3 l 0.2,-0.1 V 8.6 l 0.2,-0.1 h -0.2 l 3.3,-0.9 h 0.7 l 0.1,0.1 0.2,-0.1 h 0.1 l 3.3,-0.5 4,-0.5 4.2,0.2 4.2,0.7 1.2,0.3 -0.2,0.2 0.1,0.2 0.2,0.1 h -0.3 v 0.1 l -0.2,-0.1 -0.2,0.1 0.4,0.2 0.3,0.1 0.3,0.1 v 0.1 l 0.4,0.2 h -0.2 l 0.1,0.2 0.2,0.1 0.1,0.2 0.3,0.3 V 10 l 0.4,0.2 0.4,0.1 v 0.2 l -0.1,0.2 0.1,0.2 0.7,0.3 0.6,0.2 h -0.5 l -0.1,0.2 0.2,0.3 0.5,0.2 h -0.2 l -0.6,-0.3 -0.3,-0.1 v 0.1 l 0.5,0.2 0.3,0.4 0.6,0.2 0.6,0.4 0.4,0.2 0.2,-0.1 0.4,0.3 0.4,0.1 0.2,0.3 0.3,0.2 0.1,0.2 0.2,0.2 -0.2,0.1 -0.7,-0.8 -0.4,-0.3 -0.5,-0.1 -0.9,-0.5 -0.5,-0.2 -0.3,-0.1 -0.5,-0.4 -0.4,-0.2 -0.4,0.1 0.1,0.1 0.5,0.4 0.4,0.5 0.2,0.1 0.6,0.2 0.3,0.2 0.2,-0.1 0.1,0.1 0.5,0.1 0.3,0.3 -1.2,-0.1 h -0.4 l -0.7,0.2 0.1,0.2 0.5,0.1 0.2,0.4 -0.5,-0.2 v 0.3 l -0.3,0.2 0.1,0.2 -0.3,0.1 -0.1,-0.3 h -0.2 l -0.2,0.7 -0.2,0.4 0.3,0.3 -0.2,0.2 -0.3,-0.1 -0.3,-0.3 0.2,-0.2 h -1.1 l 0.4,0.3 0.2,0.3 0.4,0.2 0.2,0.4 -0.4,-0.1 h -0.2 l -0.2,0.7 0.5,0.3 -0.1,0.2 -0.9,-0.2 v 0.3 l 0.3,0.2 0.1,0.3 h -0.3 l -0.5,-0.1 -0.4,-0.6 -0.1,-0.2 -0.7,-0.3 0.1,-0.1 1.4,0.1 0.3,-0.3 0.1,-0.4 -0.3,-0.3 -0.4,-0.2 -1.3,-0.3 h -0.7 l -0.6,-0.2 -0.1,0.2 -0.4,-0.2 0.2,-0.2 -0.9,-0.2 -0.3,0.2 h -0.4 l -0.2,0.5 h -0.4 l -0.5,0.3 -0.5,0.8 -0.4,0.4 -0.5,1.1 -0.4,0.8 -0.6,0.6 -0.8,0.7 -0.3,0.4 0.1,1.4 0.2,0.7 0.6,0.3 0.5,-0.2 0.7,-0.8 0.3,0.4 0.4,0.9 0.4,0.7 0.2,0.6 0.5,-0.1 0.1,-0.5 h 0.5 l 0.1,-0.6 -0.1,-1.1 0.4,-0.2 0.2,-0.7 -0.5,-0.3 -0.4,-0.4 v -0.9 l 0.5,-0.6 0.3,-0.5 -0.2,-0.3 0.1,-0.4 0.4,-0.2 0.5,0.2 0.1,0.2 -0.1,0.2 -0.2,0.6 -0.2,0.4 v 0.4 l 0.3,0.5 0.1,0.6 0.4,0.2 0.3,0.3 0.5,-0.2 0.5,-0.3 0.6,-0.2 0.5,0.2 -0.2,0.4 -0.4,0.1 h -0.4 l -0.4,0.2 -0.4,0.2 0.2,0.4 0.3,0.2 0.1,-0.1 0.1,0.4 0.1,0.5 h -0.3 l -0.5,-0.4 -0.2,0.2 -0.1,0.4 0.1,0.5 0.2,0.5 -0.5,0.3 v 0.3 h -0.4 l -0.1,-0.2 -0.4,-0.1 -0.5,0.5 -0.6,0.4 -0.3,0.2 -0.2,-0.2 -0.5,-0.2 -0.2,0.2 -0.5,0.1 v -0.2 l -0.5,-0.1 v -0.3 l -0.1,-0.3 0.3,-0.5 0.1,0.1 0.1,-0.3 -0.2,-0.1 -0.1,-0.2 0.1,-0.2 v -0.3 l -0.3,0.2 -0.1,0.2 -0.4,0.1 -0.1,0.2 -0.1,0.2 0.1,0.7 0.2,0.4 v 0.4 l 0.1,0.3 -0.3,0.3 -0.1,-0.1 h -0.4 l -0.1,0.1 h -0.4 l -0.6,0.3 -0.4,1 -0.2,0.2 -0.4,0.1 -0.4,0.1 -0.2,0.6 -1.2,0.5 -0.4,-0.3 0.1,0.8 -0.7,-0.4 -0.6,0.1 v 0.5 l 0.7,0.3 0.3,0.4 0.5,0.8 -0.2,1.5 -0.3,0.4 h -1.3 l -0.6,-0.2 h -0.7 l -0.6,-0.2 -0.8,0.5 0.2,0.3 -0.1,0.5 v 0.3 l 0.1,0.3 v 0.3 l -0.2,0.4 -0.1,0.3 -0.3,0.3 -0.1,0.5 0.1,0.3 0.2,0.1 v 0.5 l -0.2,0.6 0.3,-0.1 0.3,0.1 0.3,-0.2 0.5,0.2 0.1,0.5 0.2,0.3 0.3,0.1 0.3,-0.3 0.4,-0.2 h 1.4 l 0.5,-0.6 0.5,-0.1 0.2,-0.5 0.4,-0.3 -0.2,-0.4 0.2,-0.6 0.4,-0.4 0.1,-0.3 0.7,-0.1 0.5,-0.5 V 35 l 0.1,-0.5 0.8,-0.2 1.1,0.2 0.5,-0.4 0.2,-0.1 0.3,-0.4 0.2,-0.1 0.5,0.2 0.3,0.1 0.2,0.7 0.4,0.4 0.5,0.5 0.5,0.3 h 0.4 l 0.3,0.3 h -0.1 l 0.2,0.3 0.2,0.1 0.2,0.4 0.3,0.4 -0.1,0.2 -0.1,0.4 V 38 l 0.2,-0.1 0.2,-0.7 0.2,-0.1 v -0.4 l -0.4,-0.2 0.2,-0.5 0.5,0.1 0.4,0.3 0.1,-0.3 V 36 l -0.5,-0.3 -0.4,-0.2 -0.5,-0.2 0.1,-0.2 -0.2,-0.2 h -0.4 l -0.7,-0.6 -0.3,-0.6 -0.5,-0.3 -0.2,-0.4 v -0.2 l -0.1,-0.4 0.4,-0.3 0.4,0.1 -0.1,0.1 v 0.3 l 0.2,0.2 0.1,-0.3 0.3,0.1 v 0.2 l 0.3,0.3 v 0.2 l 0.5,0.5 0.5,0.2 0.4,0.2 0.5,0.2 0.3,0.1 0.2,0.2 h 0.1 l 0.1,0.1 v 0.7 l 0.1,0.4 0.3,0.2 v 0.2 h 0.1 l 0.1,0.2 0.4,0.4 0.3,0.3 0.2,0.5 0.3,0.6 0.5,0.3 0.4,-0.1 -0.3,-0.5 0.3,-0.1 -0.2,-0.4 0.6,0.1 -0.1,-0.4 -0.4,-0.2 -0.4,-0.3 0.2,-0.2 -0.3,-0.3 -0.2,-0.4 0.1,-0.2 0.4,0.3 h 0.3 l 0.2,-0.2 -0.5,-0.3 0.6,-0.3 h 0.6 v 0.2 l 0.3,0.3 0.3,-0.5 0.2,-0.3 0.6,-0.2 v -0.2 l -0.5,-0.2 -0.1,-0.2 -0.3,-0.4 V 33 l 0.2,-0.3 -0.1,-0.9 h 0.2 l 0.2,-0.2 -0.2,-0.1 0.2,-0.6 v -0.4 l 0.4,-0.2 0.1,0.3 h 0.8 l 0.2,0.1 -0.3,0.3 v 0.2 l 0.6,0.1 v 0.4 l 0.3,0.1 0.5,-0.6 0.4,-0.2 v -0.3 l -0.4,0.2 -0.3,-0.1 -0.2,-0.4 0.3,-0.4 0.4,-0.1 0.2,-0.3 0.3,-0.1 0.3,-0.2 0.1,0.1 -0.5,0.5 0.4,0.2 -0.1,0.7 -0.3,0.2 0.6,0.3 0.6,0.1 0.8,0.4 0.3,0.2 h 0.3 l 0.4,0.2 0.3,0.4 0.1,0.3 -0.4,0.5 -0.4,0.1 -0.5,0.3 -0.8,-0.1 -1,-0.3 -0.8,0.2 -0.5,0.3 -0.4,0.6 -1,0.1 -0.1,0.6 -0.8,0.2 -0.4,0.8 0.4,0.3 -0.3,0.5 0.5,0.3 0.5,0.7 0.6,-0.1 0.6,0.3 0.4,-0.2 v -0.3 l 0.6,-0.1 0.5,0.3 0.8,-0.3 0.2,-0.5 0.5,0.1 0.3,-0.1 -0.1,0.3 0.3,0.3 V 38 l 0.2,0.6 -0.1,0.6 v 1.5 l -0.1,0.4 -0.1,0.3 -0.2,0.3 -0.4,0.1 -0.5,-0.1 -0.1,0.3 -0.2,-0.4 h -0.4 l -0.5,0.2 -0.2,0.2 -0.4,0.3 -0.3,-0.1 -0.6,-0.1 h -0.6 l -0.8,0.1 -0.2,-0.2 h -0.6 l -0.2,-0.1 h -0.2 l -0.3,-0.3 h -0.8 l -0.4,0.2 -0.4,0.4 -0.1,0.4 0.2,0.6 -0.2,0.4 -0.3,0.2 -0.7,-0.3 -1,-0.3 -0.6,-0.1 -0.4,-0.7 -0.9,-0.3 -0.4,-0.1 -0.3,0.1 -0.7,-0.2 -0.2,-0.1 -0.2,-0.4 h -0.3 l -0.2,-0.4 0.4,-0.4 v -0.7 l -0.2,-0.2 v -0.4 l 0.3,-0.4 -0.1,-0.1 -0.5,0.3 v -0.4 l -0.4,-0.1 -0.7,0.4 h -0.4 l -0.2,-0.1 h -0.6 l -0.6,0.3 -0.3,-0.1 -1,0.1 -1,0.1 -0.6,0.2 -0.4,0.3 -0.7,0.1 -0.6,0.4 h -0.3 l -0.6,-0.2 h -0.6 l -0.3,-0.4 h -0.4 l -0.2,0.5 -0.5,0.8 -0.5,0.3 -0.7,0.3 -0.4,0.4 -0.1,0.4 -0.3,0.6 v 1 l -0.6,0.6 -0.3,0.2 -0.6,0.5 h -0.6 l -0.4,0.3 -0.5,0.7 -0.5,0.2 -0.3,0.5 -0.1,0.4 -0.2,0.4 -0.2,0.2 -0.4,0.4 -0.3,0.6 v 0.3 l -0.3,0.3 -0.3,0.2 -0.1,0.4 -0.1,0.3 0.3,0.4 0.1,0.4 -0.1,0.4 v 1.2 l -0.2,0.7 -0.2,0.4 v 0.4 l -0.2,0.4 -0.2,0.4 -0.3,0.1 0.3,0.3 0.2,0.7 -0.1,0.3 0.1,0.6 v 0.2 l 0.2,0.2 v 0.1 l 0.1,0.2 0.3,0.1 0.4,0.4 0.2,0.2 0.1,0.2 0.1,0.4 0.2,0.2 0.2,0.1 0.3,0.3 0.3,0.5 0.1,0.6 0.1,0.3 0.4,0.5 0.5,0.4 0.2,0.1 0.5,0.5 0.6,0.5 0.6,0.6 0.7,0.4 h 0.3 l 0.7,-0.2 0.5,-0.2 0.9,-0.1 h 0.5 l 0.5,0.2 h 0.3 l 0.7,0.2 0.7,-0.2 0.4,-0.2 1.2,-0.4 0.6,-0.1 0.6,-0.1 h 1.3 l 0.5,0.5 0.2,0.5 0.4,0.5 h 0.6 l 0.3,-0.2 h 0.3 l 0.8,-0.3 v 0.2 l 0.2,0.1 0.2,0.3 0.3,0.1 0.3,0.5 -0.4,0.7 -0.2,0.9 0.1,0.1 -0.1,0.5 -0.2,0.5 -0.2,0.2 v 0.2 l 0.5,0.7 0.5,0.6 0.8,0.7 0.6,0.7 0.2,0.5 0.1,0.2 -0.1,0.1 0.4,0.4 0.1,0.4 0.2,0.6 -0.2,0.3 v 0.1 l 0.2,0.4 0.2,0.4 0.2,0.2 v 0.4 l -0.3,0.8 -0.2,0.3 -0.4,0.4 -0.2,0.3 -0.3,0.6 -0.1,0.3 -0.3,0.6 -0.1,0.5 v 0.9 l 0.5,0.5 0.1,0.4 0.3,0.7 0.3,0.4 0.2,0.2 0.1,0.3 V 83 l 0.1,0.8 0.1,0.4 0.1,0.5 0.2,0.3 0.4,0.3 0.4,0.6 0.2,0.4 0.3,0.4 0.2,0.3 -0.2,0.1 0.1,0.3 -0.1,0.3 0.1,0.1 v -0.1 l 0.2,0.2 h 0.2 l 0.2,0.1 h 0.3 l 0.4,-0.2 0.5,-0.1 0.7,-0.3 h 0.2 l 0.4,-0.1 h 0.6 l 0.3,-0.1 h 0.3 l 0.1,-0.1 0.3,-0.1 0.7,-0.3 0.5,-0.3 0.5,-0.4 0.8,-0.6 0.4,-0.4 0.2,-0.3 0.3,-0.3 0.1,-0.1 0.5,-0.3 0.2,-0.3 0.2,-0.4 0.3,-0.4 0.1,-0.3 h -0.1 v -0.2 l 0.3,-0.3 0.8,-0.5 0.5,-0.3 0.3,-0.3 0.2,-0.3 -0.1,-0.1 0.2,-0.3 0.2,-0.6 -0.1,0.1 V 79 l 0.1,-0.4 0.3,-0.2 0.5,-0.5 0.3,-0.2 0.8,-0.8 0.7,-0.5 0.6,-0.4 0.4,-0.5 0.3,-0.5 0.3,-0.5 v -0.3 l 0.1,-1 v -0.6 l 0.1,-0.7 v -0.3 l -0.2,-0.1 -0.2,-0.6 -0.2,-0.4 0.1,-0.3 V 70 l 0.2,-0.5 v -0.2 l -0.4,-0.1 v -0.4 l 0.3,-1 0.3,-0.3 0.1,-0.5 0.2,-0.3 0.1,-0.5 0.2,-0.1 0.2,-0.3 0.4,-0.4 0.1,-0.2 0.1,-0.4 0.6,-1.1 0.5,-0.7 0.8,-1 0.8,-1 0.6,-1.3 0.4,-1 0.4,-1.3 0.2,-1.1 0.2,-1 v -0.9 l 0.1,-0.3 -0.1,-0.4 V 53 l -0.2,0.1 -0.2,0.4 -0.3,0.2 -0.2,0.3 -0.2,0.1 -0.3,0.1 -0.2,0.2 -0.2,0.2 -0.5,0.4 -0.6,0.3 -0.5,0.4 -0.3,0.1 -0.3,-0.2 -0.1,-0.3 -0.2,-0.1 -0.3,-0.1 0.3,-0.3 v -0.3 l -0.2,-0.2 -0.3,-0.1 -0.2,-0.2 -0.4,-0.3 -0.4,-0.3 -0.9,-0.5 -0.4,-0.3 -0.3,-0.7 -0.4,-0.9 -0.4,-0.2 -0.3,-0.1 -0.3,-0.9 -0.2,-0.8 0.1,-0.2 -0.3,-0.7 -0.2,-0.1 -0.8,-0.5 -0.1,-0.5 0.1,-0.2 -0.7,-0.7 -0.3,-0.4 -0.3,-0.4 -0.7,-1.1 -0.5,-0.7 -0.4,-0.8 v -0.1 l 0.7,1 0.3,0.3 0.2,0.2 0.1,-0.1 0.1,-0.4 V 43 l 0.1,-0.3 v 1.1 l 0.3,-0.1 0.4,0.5 0.5,0.5 0.4,0.5 0.2,0.1 0.2,0.4 v 0.2 l 0.3,0.4 0.3,0.1 0.3,0.2 0.5,0.8 0.1,0.5 0.2,0.5 0.5,0.6 h 0.3 l 0.5,0.4 0.3,0.6 0.4,0.6 0.3,0.2 0.1,0.3 0.2,0.2 0.1,0.3 0.1,0.3 v 0.2 l 0.1,0.3 -0.1,0.1 0.2,0.3 0.2,0.5 0.1,0.2 v 0.4 l 0.2,0.4 0.4,-0.1 0.2,-0.2 0.3,-0.1 0.1,-0.2 0.1,-0.1 0.1,-0.2 0.1,-0.1 0.4,-0.2 0.3,-0.3 0.3,-0.4 h 0.2 l 0.2,-0.1 0.4,-0.7 0.7,-0.7 0.4,-0.5 v -0.7 l 0.3,-0.4 0.2,-0.1 0.3,-0.4 0.3,-0.1 0.2,-0.3 -0.1,-0.3 0.1,-0.3 0.3,-0.1 0.1,-0.2 v -0.4 l 0.2,-0.4 0.2,-0.1 v -0.1 l -0.2,-0.5 v -0.6 l 0.2,-0.1 v -0.6 l 0.1,-0.3 v -0.7 l -0.1,-0.2 h -0.2 l -0.1,-0.5 -0.3,-0.3 h -0.3 l -0.3,0.1 -0.3,-0.1 -0.4,-0.4 -0.3,-0.6 v -0.2 l -0.1,-0.3 h -0.1 V 42 l -0.2,0.6 -0.1,0.7 -0.3,0.1 -0.4,0.2 -0.3,0.3 -0.1,-0.2 -0.1,0.1 -0.2,-0.2 v -0.5 l -0.1,-0.4 -0.2,-0.2 -0.1,0.1 V 43 l 0.2,0.5 -0.1,-0.2 -0.1,-0.2 -0.3,-0.1 -0.1,-0.2 v -0.3 l -0.1,-0.3 -0.5,-0.2 -0.2,-0.2 -0.3,-0.1 -0.4,-0.6 -0.3,-0.5 v -0.2 l -0.2,-0.3 0.3,-0.1 0.1,-0.4 0.4,0.1 0.2,-0.2 0.7,0.8 0.5,0.7 h 0.5 l 0.6,0.4 h 0.6 l 0.3,-0.6 0.3,-0.3 h 0.2 l 0.5,0.8 0.5,-0.2 0.5,-0.1 0.8,-0.2 0.5,-0.4 0.5,-0.4 0.5,-0.6 0.5,0.4 0.3,0.4 h 0.3 l 0.6,0.3 0.2,0.2 v 0.4 l 0.7,0.5 0.2,-0.1 0.2,-0.8 0.3,0.6 0.3,0.9 0.4,0.9 0.5,1.3 0.5,0.8 0.2,0.4 0.3,0.8 0.3,0.6 0.1,0.2 0.2,0.6 0.3,0.9 0.3,0.4 v 0.8 z m -25.6,6 -0.5,-0.3 h 0.1 z"
               style="fill:#ffffff;fill-opacity:1"
               id="path1530" />
          </g>
          <metadata
             id="metadata1534">
            <d:name
               style="animation-play-state:paused">globe</d:name>
            <d:tags
               style="animation-play-state:paused">globe,world map,atlas,earth,planet,visualization,visualize</d:tags>
            <d:license
               style="animation-play-state:paused">by</d:license>
            <d:slug
               style="animation-play-state:paused">f00uly</d:slug>
          </metadata>
        </g>
        <g
           id="g1541"
           transform="translate(18.520839,9.5250005)">
          <path
             d="m 271.91102,438.84901 37.60777,37.60777 -27.20173,27.20174 h -73.0248 l 27.20173,-27.20174 h 34.50422 l -37.60777,-37.60777 z m 0,0 v -27.74942 h -38.52058 l 27.20174,-27.20174 h 38.52058 v 27.56686 z m -65.90488,-0.36512 27.3843,-27.3843 v 27.74942 37.60777 l -27.3843,27.20174 z"
             style="font-weight:bold;font-size:182.562px;line-height:1.25;font-family:Nero;-inkscape-font-specification:'Nero Bold';fill:#ff0000;fill-opacity:1;stroke-width:0.264583"
             id="path1450"
             transform="translate(116.946)" />
          <path
             d="m 276.22717,464.31087 v -53.49785 l 37.18014,-38.76666 v 131.03089 z m 0,-57.89139 v -34.37312 h -58.14082 l 37.42976,-38.50818 h 57.8912 v 34.11461 z m 74.60968,-72.8813 h 19.46331 v 38.50818 h -56.89285 z"
             style="font-weight:bold;font-size:14.8167px;line-height:1.25;font-family:Nero;-inkscape-font-specification:'Nero Bold';fill:#ff0000;stroke-width:4.53479"
             id="path1452" />
        </g>
      </g>
    </g>
  </g>
</svg>
