<?xml version="1.0" encoding="UTF-8" standalone="no"?>
<svg
   width="1500"
   zoomAndPan="magnify"
   viewBox="0 0 1125 375"
   height="500"
   preserveAspectRatio="xMidYMid"
   version="1.0"
   id="svg762"
   sodipodi:docname="logo-oscuro2.svg"
   xml:space="preserve"
   inkscape:version="1.2.1 (9c6d41e410, 2022-07-14)"
   xmlns:inkscape="http://www.inkscape.org/namespaces/inkscape"
   xmlns:sodipodi="http://sodipodi.sourceforge.net/DTD/sodipodi-0.dtd"
   xmlns:xlink="http://www.w3.org/1999/xlink"
   xmlns="http://www.w3.org/2000/svg"
   xmlns:svg="http://www.w3.org/2000/svg"><sodipodi:namedview
     id="namedview764"
     pagecolor="#ffffff"
     bordercolor="#000000"
     borderopacity="0.25"
     inkscape:showpageshadow="2"
     inkscape:pageopacity="0.0"
     inkscape:pagecheckerboard="0"
     inkscape:deskcolor="#d1d1d1"
     showgrid="false"
     inkscape:zoom="0.43109756"
     inkscape:cx="546.28005"
     inkscape:cy="-80.028288"
     inkscape:window-width="1920"
     inkscape:window-height="991"
     inkscape:window-x="-9"
     inkscape:window-y="-9"
     inkscape:window-maximized="1"
     inkscape:current-layer="svg762" /><defs
     id="defs488"><linearGradient
       id="linearGradient2954"
       inkscape:swatch="solid"><stop
         style="stop-color:#ffffff;stop-opacity:1;"
         offset="0"
         id="stop2952" /></linearGradient><g
       id="g483" /><clipPath
       id="id1"><path
         d="M 0.886719,0 H 1229.1133 V 692 H 0.886719 Z m 0,0"
         clip-rule="nonzero"
         id="path485" /></clipPath><path
       d="M 0,0 H 251 V 268 H 0 Z m 73.47,240.01 c -14.81,1.03 -29.87,2.24 -44.48,4.93 -5.26,1.06 -10.87,2.13 -15.74,4.42 -1.8,0.8 -2.79,2.23 -4.05,3.67 3.46,4.78 10.9,5.85 16.29,7.19 25.07,4.86 51.08,6.01 76.55,6.86 24.25,0.72 48.49,0.33 72.71,-0.91 17.65,-1.08 35.62,-2.38 52.99,-5.8 5.05,-1.18 11.05,-2.25 15.29,-5.35 1.66,-1.22 1.16,-3.56 -0.49,-4.55 -3.88,-2.6 -9.01,-3.66 -13.51,-4.72 -15.88,-3.31 -32.34,-4.6 -48.49,-5.74 24.07,-11.95 43.75,-32.1 55.14,-56.44 16.4,-34.65 14.91,-76.8 -4.17,-110.08 C 218.26,49.98 196.91,31.21 171.86,21.17 153.63,13.85 133.53,11.07 114.01,13.23 92.31,15.5 71.42,23.87 54.11,37.14 35.21,51.57 20.72,71.63 13.22,94.22 6.2,114.94 5.13,137.67 9.89,159.01 c 7.67,34.83 31.59,65.25 63.58,81 z"
       id="p0" /><path
       d="m 114.01,13.23 c 19.52,-2.16 39.62,0.62 57.85,7.94 25.05,10.04 46.4,28.81 59.65,52.32 19.08,33.28 20.57,75.43 4.17,110.08 -11.39,24.34 -31.07,44.49 -55.14,56.44 16.15,1.14 32.61,2.43 48.49,5.74 4.5,1.06 9.63,2.12 13.51,4.72 1.65,0.99 2.15,3.33 0.49,4.55 -4.24,3.1 -10.24,4.17 -15.29,5.35 -17.37,3.42 -35.34,4.72 -52.99,5.8 -24.22,1.24 -48.46,1.63 -72.71,0.91 -25.47,-0.85 -51.48,-2 -76.55,-6.86 -5.39,-1.34 -12.83,-2.41 -16.29,-7.19 1.26,-1.44 2.25,-2.87 4.05,-3.67 4.87,-2.29 10.48,-3.36 15.74,-4.42 14.61,-2.69 29.67,-3.9 44.48,-4.93 C 41.48,224.26 17.56,193.84 9.89,159.01 5.13,137.67 6.2,114.94 13.22,94.22 20.72,71.63 35.21,51.57 54.11,37.14 71.42,23.87 92.31,15.5 114.01,13.23 Z m -3.51,6.49 C 90.26,22.62 70.93,31.19 55.08,44.11 37.06,58.72 23.67,78.92 17.34,101.25 c -4.89,17.08 -5.71,35.3 -2.34,52.76 4.1,21.65 14.74,42.09 30.17,57.83 13.04,13.57 29.58,23.82 47.54,29.45 21.12,6.71 44.25,7.02 65.56,0.91 19.36,-5.51 37.18,-16.29 51.06,-30.87 24.92,-25.7 36.35,-63.14 29.97,-98.38 C 235.78,92.41 226.41,73.01 212.66,57.36 199.71,42.56 182.8,31.2 164.21,24.76 147.04,18.83 128.48,17.04 110.5,19.72 Z"
       id="p1" /><path
       d="m 110.5,19.72 c 17.98,-2.68 36.54,-0.89 53.71,5.04 18.59,6.44 35.5,17.8 48.45,32.6 13.75,15.65 23.12,35.05 26.64,55.59 6.38,35.24 -5.05,72.68 -29.97,98.38 -13.88,14.58 -31.7,25.36 -51.06,30.87 -21.31,6.11 -44.44,5.8 -65.56,-0.91 C 74.75,235.66 58.21,225.41 45.17,211.84 29.74,196.1 19.1,175.66 15,154.01 11.63,136.55 12.45,118.33 17.34,101.25 23.67,78.92 37.06,58.72 55.08,44.11 70.93,31.19 90.26,22.62 110.5,19.72 Z m 4,15.03 c -31.83,3.79 -60.6,24.08 -75.17,52.58 -15.13,28.98 -14.46,65.22 1.72,93.62 10.62,18.9 27.56,34.04 47.53,42.45 27.01,11.45 59.11,10.08 84.94,-3.89 17.97,-9.62 32.83,-24.87 41.82,-43.18 13.18,-26.25 13.6,-58.3 1.28,-84.95 -8.49,-18.53 -22.9,-34.3 -40.6,-44.41 C 157.53,36.28 135.67,32.09 114.5,34.75 Z"
       id="p2" /><path
       d="m 114.5,34.75 c 21.17,-2.66 43.03,1.53 61.52,12.22 17.7,10.11 32.11,25.88 40.6,44.41 12.32,26.65 11.9,58.7 -1.28,84.95 -8.99,18.31 -23.85,33.56 -41.82,43.18 -25.83,13.97 -57.93,15.34 -84.94,3.89 C 68.61,214.99 51.67,199.85 41.05,180.95 24.87,152.55 24.2,116.31 39.33,87.33 53.9,58.83 82.67,38.54 114.5,34.75 Z m -0.01,5.04 c -16.53,2.2 -32.35,8.98 -45.43,19.3 -12.81,10.22 -23,23.6 -29.03,38.87 -5.85,14.55 -7.78,30.5 -5.92,46.05 2.02,16.64 8.67,32.72 19,45.91 11.23,14.56 26.96,25.63 44.38,31.45 15.61,5.22 32.66,6.08 48.76,2.76 27.07,-5.59 50.91,-23.71 63.66,-48.23 9.49,-17.98 12.74,-38.99 9.35,-59.02 C 214.58,88.63 196.28,63.39 171,50 153.82,40.77 133.81,37.15 114.49,39.79 Z"
       id="p3" /><path
       d="m 114.49,39.79 c 19.32,-2.64 39.33,0.98 56.51,10.21 25.28,13.39 43.58,38.63 48.26,66.88 3.39,20.03 0.14,41.04 -9.35,59.02 -12.75,24.52 -36.59,42.64 -63.66,48.23 -16.1,3.32 -33.15,2.46 -48.76,-2.76 -17.42,-5.82 -33.15,-16.89 -44.38,-31.45 -10.33,-13.19 -16.98,-29.27 -19,-45.91 -1.86,-15.55 0.07,-31.5 5.92,-46.05 6.03,-15.27 16.22,-28.65 29.03,-38.87 13.08,-10.32 28.9,-17.1 45.43,-19.3 z M 83.72,158.62 c -4.21,12.1 -4.02,25.43 1.57,37.06 7.52,16.37 24.67,27.33 42.71,27.15 17.62,0.36 34.28,-9.91 42.35,-25.48 6.26,-11.93 6.78,-26.1 2.34,-38.74 11.94,-1.93 22.81,-8.05 30.28,-17.61 9.59,-11.99 12.52,-28.4 8.19,-43.08 -3.48,-11.91 -12.03,-22.27 -22.94,-28.14 -10.3,-5.62 -23.04,-6.86 -34.48,-4.93 -9.52,1.53 -17,6.62 -25.48,10.92 -6.73,-3.34 -13.21,-7.55 -20.32,-9.68 -8.46,-2.56 -17.28,-2.55 -25.95,-1.13 -15.46,2.7 -28.92,13.64 -34.95,28.09 -6.76,15.79 -4.24,34.92 6.67,48.23 7.51,9.41 18.16,15.39 30.01,17.34 z"
       id="p4" /><path
       d="m 107.94,66.09 c 7.11,2.13 13.59,6.34 20.32,9.68 8.48,-4.3 15.96,-9.39 25.48,-10.92 11.44,-1.93 24.18,-0.69 34.48,4.93 10.91,5.87 19.46,16.23 22.94,28.14 4.33,14.68 1.4,31.09 -8.19,43.08 -7.47,9.56 -18.34,15.68 -30.28,17.61 4.44,12.64 3.92,26.81 -2.34,38.74 -8.07,15.57 -24.73,25.84 -42.35,25.48 C 109.96,223.01 92.81,212.05 85.29,195.68 79.7,184.05 79.51,170.72 83.72,158.62 71.87,156.67 61.22,150.69 53.71,141.28 42.8,127.97 40.28,108.84 47.04,93.05 53.07,78.6 66.53,67.66 81.99,64.96 c 8.67,-1.42 17.49,-1.43 25.95,1.13 z m -21.46,90.04 c -1.26,4.94 -2.47,9.97 -3.27,15 -0.25,3.38 0.85,6.81 1.07,10.2 1.32,5.31 3.02,10.88 5.93,15.57 4.97,7.86 12.05,14.51 20.63,18.24 11.76,5.26 25.75,4.78 37.16,-1.15 14.02,-7.2 23.56,-22.14 23.52,-37.99 0.26,-6.9 -1.68,-13.2 -3.86,-19.64 0.96,-0.37 1.93,-0.74 2.89,-1.12 11.16,-2.18 21.35,-7.19 28.6,-16.13 9.44,-11.26 12.4,-27.11 7.73,-41.04 -5.15,-16.04 -20.05,-28.1 -36.86,-29.61 -9.57,-1.3 -18.8,0.57 -27.83,3.64 -5.43,1.97 -9.79,5.23 -15.02,7.83 C 118.41,74.8 109.31,69.49 99.02,68.42 89.2,67.33 78.38,68.73 69.7,73.71 c -10.42,5.82 -18.42,16.1 -21.12,27.76 -2.7,11.21 -0.82,23.77 5.39,33.53 3.13,4.22 6.3,8.89 10.44,12.17 6.56,4.69 14.35,7.04 22.07,8.96 z"
       id="p5" /><path
       d="m 99.02,68.42 c 10.29,1.07 19.39,6.38 28.15,11.51 5.23,-2.6 9.59,-5.86 15.02,-7.83 9.03,-3.07 18.26,-4.94 27.83,-3.64 16.81,1.51 31.71,13.57 36.86,29.61 4.67,13.93 1.71,29.78 -7.73,41.04 -7.25,8.94 -17.44,13.95 -28.6,16.13 -0.96,0.38 -1.93,0.75 -2.89,1.12 2.18,6.44 4.12,12.74 3.86,19.64 0.04,15.85 -9.5,30.79 -23.52,37.99 -11.41,5.93 -25.4,6.41 -37.16,1.15 -8.58,-3.73 -15.66,-10.38 -20.63,-18.24 -2.91,-4.69 -4.61,-10.26 -5.93,-15.57 -0.22,-3.39 -1.32,-6.82 -1.07,-10.2 0.8,-5.03 2.01,-10.06 3.27,-15 -7.72,-1.92 -15.51,-4.27 -22.07,-8.96 -4.14,-3.28 -7.31,-7.95 -10.44,-12.17 -6.21,-9.76 -8.09,-22.32 -5.39,-33.53 2.7,-11.66 10.7,-21.94 21.12,-27.76 8.68,-4.98 19.5,-6.38 29.32,-5.29 z m -40.88,47.22 c 2.67,-4.76 2.96,-9.75 7.32,-13.51 -0.47,4.3 -1.35,8.16 -0.45,12.51 1.06,4.77 2.99,9.46 6.49,12.95 4.92,4.93 11.32,7.13 17.99,8.55 -2.96,1 -5.98,1.69 -9.04,2.3 8.04,0.91 15.66,-0.3 22.83,-4.07 1.91,-1.21 3.25,-0.45 5.24,0.01 0.03,0.79 0.06,1.58 0.1,2.37 1.76,1.38 3.56,2.73 5.36,4.06 -1.74,-2.79 -3.2,-5.54 -4.43,-8.59 0.71,-1.11 1.4,-2.24 2.08,-3.37 1.8,-1.37 3.8,-4.46 6.31,-3.82 2.72,0.44 4.98,3.34 7.05,4.95 -1.15,-4.55 -5.55,-8.44 -10.36,-8.55 -0.59,0.83 -1.18,1.65 -1.78,2.47 1.18,-3.63 2.58,-6.95 2.86,-10.81 0.29,-4.26 -0.14,-8.49 -0.41,-12.72 1.15,1.52 2.31,3.03 3.49,4.52 -2.39,-7.5 -5.89,-14.71 -12.94,-18.8 -6.69,-4.4 -15.82,-4.73 -23.36,-2.78 -6.47,2.31 -13.5,6.04 -17.18,12.08 -3.85,5.9 -7.06,13.11 -7.17,20.25 z m 79.79,-18.29 c -0.72,2.5 -1.61,4.94 -2.49,7.39 1.09,-1.45 2.17,-2.9 3.26,-4.34 -0.29,4.45 -0.8,9.23 -0.34,13.67 0.4,3.44 1.68,6.53 2.8,9.78 -0.57,-0.69 -1.13,-1.38 -1.69,-2.06 -0.9,-0.13 -1.79,-0.26 -2.69,-0.4 -4.07,2.34 -6.48,5.2 -9.11,9.2 3.57,-2.46 5.83,-5.5 10.33,-5.84 2.36,2.27 4.65,4.59 6.75,7.1 -1.37,3.11 -3.01,6.05 -4.69,9.01 2.85,-1.75 4.67,-3.24 5.87,-6.42 3.4,-1.89 5.06,0.45 8.19,1.57 6.06,2.51 12.8,3.15 19.29,2.42 -3.06,-0.63 -6.08,-1.33 -9.06,-2.28 6.31,-1.32 12.19,-3.24 17.11,-7.58 4.24,-3.74 6.56,-9.12 7.66,-14.56 0.81,-4.11 -0.26,-7.87 -0.57,-12.02 4.58,3.34 4.75,10.37 8.18,15.03 -1.5,-9.44 -5.18,-19.82 -12.22,-26.58 -6.22,-4.88 -13.39,-8.45 -21.49,-8.21 -7.28,-0.37 -14.21,2.34 -19.42,7.39 -2.21,2.26 -3.96,5.09 -5.67,7.73 z m -20.67,33.99 c -0.04,3.86 1.5,5.64 3.8,8.32 2.53,0.98 4.88,2.44 7.68,1.69 4.52,-1.2 8.3,-5.07 7.97,-10.02 -4.37,2.4 -6.12,6.61 -9.75,9.85 -3.49,-3.37 -5.25,-7.48 -9.7,-9.84 z m 11.75,16.15 c 0.54,1.81 0.97,3.57 2.16,5.09 l 0.01,0.02 0.03,0.01 c 2.15,1 4.43,1.56 6.73,2.14 -3.09,-2.12 -5.11,-6.76 -8.93,-7.26 z m -1.33,39.84 c 1.05,-3.8 1.66,-7.14 4.99,-9.55 4.14,-3.73 9.79,-4.06 14.83,-2.09 2.95,1.36 4.98,5.02 6.9,7.41 -0.88,-3.03 -1.01,-6.72 -3.12,-9.14 -3.24,-3.66 -8.39,-6.2 -13.34,-5.19 -4.62,1.56 -8.81,4.33 -10.29,9.23 -1.24,3.22 -0.31,6.01 0.03,9.33 z"
       id="p6" /><path
       d="m 105.85,86.09 c 7.05,4.09 10.55,11.3 12.94,18.8 -1.18,-1.49 -2.34,-3 -3.49,-4.52 0.27,4.23 0.7,8.46 0.41,12.72 -0.28,3.86 -1.68,7.18 -2.86,10.81 0.6,-0.82 1.19,-1.64 1.78,-2.47 4.81,0.11 9.21,4 10.36,8.55 -2.07,-1.61 -4.33,-4.51 -7.05,-4.95 -2.51,-0.64 -4.51,2.45 -6.31,3.82 -0.68,1.13 -1.37,2.26 -2.08,3.37 1.23,3.05 2.69,5.8 4.43,8.59 -1.8,-1.33 -3.6,-2.68 -5.36,-4.06 -0.04,-0.79 -0.07,-1.58 -0.1,-2.37 -1.99,-0.46 -3.33,-1.22 -5.24,-0.01 -7.17,3.77 -14.79,4.98 -22.83,4.07 3.06,-0.61 6.08,-1.3 9.04,-2.3 -6.67,-1.42 -13.07,-3.62 -17.99,-8.55 -3.5,-3.49 -5.43,-8.18 -6.49,-12.95 -0.9,-4.35 -0.02,-8.21 0.45,-12.51 -4.36,3.76 -4.65,8.75 -7.32,13.51 0.11,-7.14 3.32,-14.35 7.17,-20.25 3.68,-6.04 10.71,-9.77 17.18,-12.08 7.54,-1.95 16.67,-1.62 23.36,2.78 z m -37.56,28.56 c 0.27,1.04 0.61,2.04 1.03,3.02 0.53,1.12 0.98,2.26 1.45,3.41 4.02,6.79 11.15,11.62 19.24,11.31 5.08,0.37 9.05,-1.78 13.41,-4.01 1.77,-1.97 3.67,-3.82 5.66,-5.57 1.3,-2.72 2.44,-5.44 3.18,-8.37 -4.09,0.33 -8.12,1 -12.23,1.07 -1.48,1.52 -2.78,2.94 -4.97,3.33 -2.54,-0.05 -3.58,-1.81 -5.28,-3.32 -7.24,-0.12 -14.2,-1.56 -21.49,-0.87 z"
       id="p7" /><path
       d="m 163.02,82.23 c 8.1,-0.24 15.27,3.33 21.49,8.21 7.04,6.76 10.72,17.14 12.22,26.58 -3.43,-4.66 -3.6,-11.69 -8.18,-15.03 0.31,4.15 1.38,7.91 0.57,12.02 -1.1,5.44 -3.42,10.82 -7.66,14.56 -4.92,4.34 -10.8,6.26 -17.11,7.58 2.98,0.95 6,1.65 9.06,2.28 -6.49,0.73 -13.23,0.09 -19.29,-2.42 -3.13,-1.12 -4.79,-3.46 -8.19,-1.57 -1.2,3.18 -3.02,4.67 -5.87,6.42 1.68,-2.96 3.32,-5.9 4.69,-9.01 -2.1,-2.51 -4.39,-4.83 -6.75,-7.1 -4.5,0.34 -6.76,3.38 -10.33,5.84 2.63,-4 5.04,-6.86 9.11,-9.2 0.9,0.14 1.79,0.27 2.69,0.4 0.56,0.68 1.12,1.37 1.69,2.06 -1.12,-3.25 -2.4,-6.34 -2.8,-9.78 -0.46,-4.44 0.05,-9.22 0.34,-13.67 -1.09,1.44 -2.17,2.89 -3.26,4.34 0.88,-2.45 1.77,-4.89 2.49,-7.39 1.71,-2.64 3.46,-5.47 5.67,-7.73 5.21,-5.05 12.14,-7.76 19.42,-7.39 z m -21.14,33.13 c 0.85,2.55 1.89,5.01 3.02,7.45 1.99,1.72 3.83,3.54 5.56,5.52 3.19,1.57 6.05,3.24 9.6,3.88 5.76,0.52 11.32,0.17 16,-3.61 0.72,-0.4 1.44,-0.79 2.16,-1.18 3.66,-3.43 5.33,-7.79 7.79,-12 -2.95,-0.18 -5.89,-0.51 -8.84,-0.75 -1.96,2.1 -3.6,3.88 -6.58,4.37 -0.99,-0.63 -1.98,-1.24 -2.98,-1.84 -0.41,-0.59 -0.82,-1.17 -1.23,-1.75 -4.71,-0.03 -9.79,0.37 -14.38,-0.62 -3.48,-0.23 -6.68,-0.07 -10.12,0.53 z"
       id="p8" /><path
       d="m 68.29,114.65 c 7.29,-0.69 14.25,0.75 21.49,0.87 1.7,1.51 2.74,3.27 5.28,3.32 2.19,-0.39 3.49,-1.81 4.97,-3.33 4.11,-0.07 8.14,-0.74 12.23,-1.07 -0.74,2.93 -1.88,5.65 -3.18,8.37 -1.99,1.75 -3.89,3.6 -5.66,5.57 -4.36,2.23 -8.33,4.38 -13.41,4.01 -8.09,0.31 -15.22,-4.52 -19.24,-11.31 -0.47,-1.15 -0.92,-2.29 -1.45,-3.41 -0.42,-0.98 -0.76,-1.98 -1.03,-3.02 z"
       id="p9" /><path
       d="m 141.88,115.36 c 3.44,-0.6 6.64,-0.76 10.12,-0.53 4.59,0.99 9.67,0.59 14.38,0.62 0.41,0.58 0.82,1.16 1.23,1.75 1,0.6 1.99,1.21 2.98,1.84 2.98,-0.49 4.62,-2.27 6.58,-4.37 2.95,0.24 5.89,0.57 8.84,0.75 -2.46,4.21 -4.13,8.57 -7.79,12 -0.72,0.39 -1.44,0.78 -2.16,1.18 -4.68,3.78 -10.24,4.13 -16,3.61 -3.55,-0.64 -6.41,-2.31 -9.6,-3.88 -1.73,-1.98 -3.57,-3.8 -5.56,-5.52 -1.13,-2.44 -2.17,-4.9 -3.02,-7.45 z"
       id="p10" /><path
       d="m 117.26,131.34 c 4.45,2.36 6.21,6.47 9.7,9.84 3.63,-3.24 5.38,-7.45 9.75,-9.85 0.33,4.95 -3.45,8.82 -7.97,10.02 -2.8,0.75 -5.15,-0.71 -7.68,-1.69 -2.3,-2.68 -3.84,-4.46 -3.8,-8.32 z"
       id="p11" /><path
       d="m 129.01,147.49 c 3.82,0.5 5.84,5.14 8.93,7.26 -2.3,-0.58 -4.58,-1.14 -6.73,-2.14 l -0.04,-0.03 c -1.19,-1.52 -1.62,-3.28 -2.16,-5.09 z"
       id="p12" /><path
       d="m 131.17,152.58 0.04,0.03 -0.03,-0.01 z"
       id="p13" /><path
       d="m 137.94,168.77 c 4.95,-1.01 10.1,1.53 13.34,5.19 2.11,2.42 2.24,6.11 3.12,9.14 -1.92,-2.39 -3.95,-6.05 -6.9,-7.41 -5.04,-1.97 -10.69,-1.64 -14.83,2.09 -3.33,2.41 -3.94,5.75 -4.99,9.55 -0.34,-3.32 -1.27,-6.11 -0.03,-9.33 1.48,-4.9 5.67,-7.67 10.29,-9.23 z"
       id="p14" /><linearGradient
       inkscape:collect="always"
       xlink:href="#linearGradient2954"
       id="linearGradient2956"
       x1="4.6171875"
       y1="-39.890625"
       x2="39.140625"
       y2="-39.890625"
       gradientUnits="userSpaceOnUse" /></defs><g
     id="g2880"
     transform="matrix(1.0178677,0,0,1.0178677,8.7730526,-10.096664)"><g
       id="g1169"
       transform="matrix(1.6948048,0,0,1.6948048,-683.83656,-396.39648)"><g
         fill="#ff914d"
         fill-opacity="0.4"
         id="g504"><g
           transform="translate(469.78138,339.17997)"
           id="g502"><g
             id="g500"><path
               d="M 21.765625,0.90625 C 15.710938,0.90625 11.40625,-0.375 8.84375,-2.9375 6.28125,-5.507812 4.929688,-9.753906 4.796875,-15.671875 c -0.074219,-5 -0.125,-10.289063 -0.15625,-15.875 -0.03125,-5.59375 -0.03125,-11.1875 0,-16.78125 0.03125,-5.59375 0.082031,-10.882813 0.15625,-15.875 0.0625,-5.195313 1.421875,-9.242187 4.078125,-12.140625 2.664062,-2.894531 6.960938,-4.34375 12.890625,-4.34375 5.863281,0 10.109375,1.28125 12.734375,3.84375 2.632812,2.5625 4.015625,6.777344 4.140625,12.640625 0.07031,1.792969 0.109375,3.992187 0.109375,6.59375 0,2.59375 -0.03906,4.789063 -0.109375,6.578125 h -10.78125 c 0,-2.195312 0.01563,-4.691406 0.04687,-7.484375 0.03125,-2.800781 0.01563,-5.332031 -0.04687,-7.59375 -0.0625,-3.789063 -2.09375,-5.6875 -6.09375,-5.6875 -3.992187,0 -6.054687,1.898437 -6.1875,5.6875 -0.199219,8.460937 -0.296875,17.183594 -0.296875,26.171875 0,8.980469 0.09766,17.699219 0.296875,26.15625 0.132813,3.867188 2.195313,5.796875 6.1875,5.796875 4.257813,0 6.425781,-1.929687 6.5,-5.796875 0.0625,-2.332031 0.09375,-4.945312 0.09375,-7.84375 0,-2.894531 -0.03125,-5.472656 -0.09375,-7.734375 h 10.78125 c 0.0625,2.199219 0.09375,4.464844 0.09375,6.796875 0,2.324219 -0.03125,4.621094 -0.09375,6.890625 -0.136719,5.917969 -1.554687,10.164063 -4.25,12.734375 -2.699219,2.5625 -7.042969,3.84375 -13.03125,3.84375 z m 0,0"
               id="path498" /></g></g></g><g
         fill="#ff914d"
         fill-opacity="0.4"
         id="g512"><g
           transform="translate(511.91895,339.17997)"
           id="g510"><g
             id="g508"><path
               d="M 21.875,0.796875 C 15.8125,0.796875 11.460938,-0.46875 8.828125,-3 c -2.625,-2.53125 -3.96875,-6.753906 -4.03125,-12.671875 -0.273437,-21.375 -0.273437,-42.78125 0,-64.21875 h 10.78125 c -0.136719,10.65625 -0.203125,21.679687 -0.203125,33.0625 0,11.375 0.06641,22.390625 0.203125,33.046875 0,3.792969 2.097656,5.6875 6.296875,5.6875 4.125,0 6.1875,-1.894531 6.1875,-5.6875 0.0625,-10.65625 0.109375,-21.671875 0.140625,-33.046875 0.03906,-11.382813 -0.0078,-22.40625 -0.140625,-33.0625 h 10.78125 c 0.269531,21.4375 0.269531,42.84375 0,64.21875 C 38.78125,-9.753906 37.429688,-5.53125 34.796875,-3 32.171875,-0.46875 27.863281,0.796875 21.875,0.796875 Z m 0,0"
               id="path506" /></g></g></g><g
         fill="#ff914d"
         fill-opacity="0.4"
         id="g520"><g
           transform="translate(555.5543,339.17997)"
           id="g518"><g
             id="g516"><path
               d="M 13.875,0 V -70.296875 H 2.296875 v -9.59375 H 36.15625 v 9.59375 H 24.671875 V 0 Z m 0,0"
               id="path514" /></g></g></g><g
         fill="#ff914d"
         fill-opacity="0.4"
         id="g528"><g
           transform="translate(593.99734,339.17997)"
           id="g526"><g
             id="g524"><path
               d="m 4.59375,0 v -79.890625 h 28.5625 v 9.59375 H 15.484375 v 25.0625 H 32.15625 v 9.578125 H 15.484375 v 26.0625 H 33.15625 V 0 Z m 0,0"
               id="path522" /></g></g></g><g
         fill="#ff914d"
         fill-opacity="0.4"
         id="g542"><g
           transform="translate(651.21257,339.17997)"
           id="g540"><g
             id="g538"><path
               d="m 2.296875,0 9.78125,-79.890625 H 30.0625 L 39.84375,0 H 28.859375 L 26.96875,-19.96875 H 15.28125 L 13.375,0 Z M 16.28125,-29.453125 h 9.578125 L 24.171875,-47.03125 22.46875,-70.296875 H 19.671875 L 17.96875,-47.03125 Z m 0,0"
               id="path536" /></g></g></g><g
         fill="#ff914d"
         fill-opacity="0.4"
         id="g550"><g
           transform="translate(693.05059,339.17997)"
           id="g548"><g
             id="g546"><path
               d="M 4.59375,0 V -79.890625 H 20.375 c 5.925781,0 10.234375,1.265625 12.921875,3.796875 2.695313,2.53125 4.144531,6.664062 4.34375,12.390625 0.132813,3.65625 0.203125,6.96875 0.203125,9.9375 0,2.960937 -0.07031,6.070313 -0.203125,9.328125 -0.199219,5.730469 -1.648437,9.859375 -4.34375,12.390625 -2.6875,2.523437 -7.03125,3.78125 -13.03125,3.78125 h -4.78125 V 0 Z m 10.890625,-37.84375 h 4.78125 c 4.195313,0 6.394531,-2.03125 6.59375,-6.09375 0.132813,-3.195312 0.203125,-6.578125 0.203125,-10.140625 0,-3.5625 -0.07031,-6.9375 -0.203125,-10.125 -0.199219,-4.0625 -2.359375,-6.09375 -6.484375,-6.09375 h -4.890625 z m 0,0"
               id="path544" /></g></g></g><g
         fill="#ff914d"
         fill-opacity="0.4"
         id="g558"><g
           transform="translate(733.19111,339.17997)"
           id="g556"><g
             id="g554"><path
               d="m 4.59375,0 v -79.890625 h 28.5625 v 9.59375 H 15.484375 v 25.0625 H 32.15625 v 9.578125 H 15.484375 v 26.0625 H 33.15625 V 0 Z m 0,0"
               id="path552" /></g></g></g><g
         fill="#000000"
         fill-opacity="1"
         id="g566"><g
           transform="translate(465.36834,334.76694)"
           id="g564"><g
             id="g562"><path
               d="M 21.765625,0.90625 C 15.710938,0.90625 11.40625,-0.375 8.84375,-2.9375 6.28125,-5.507812 4.929688,-9.753906 4.796875,-15.671875 c -0.074219,-5 -0.125,-10.289063 -0.15625,-15.875 -0.03125,-5.59375 -0.03125,-11.1875 0,-16.78125 0.03125,-5.59375 0.082031,-10.882813 0.15625,-15.875 0.0625,-5.195313 1.421875,-9.242187 4.078125,-12.140625 2.664062,-2.894531 6.960938,-4.34375 12.890625,-4.34375 5.863281,0 10.109375,1.28125 12.734375,3.84375 2.632812,2.5625 4.015625,6.777344 4.140625,12.640625 0.07031,1.792969 0.109375,3.992187 0.109375,6.59375 0,2.59375 -0.03906,4.789063 -0.109375,6.578125 h -10.78125 c 0,-2.195312 0.01563,-4.691406 0.04687,-7.484375 0.03125,-2.800781 0.01563,-5.332031 -0.04687,-7.59375 -0.0625,-3.789063 -2.09375,-5.6875 -6.09375,-5.6875 -3.992187,0 -6.054687,1.898437 -6.1875,5.6875 -0.199219,8.460937 -0.296875,17.183594 -0.296875,26.171875 0,8.980469 0.09766,17.699219 0.296875,26.15625 0.132813,3.867188 2.195313,5.796875 6.1875,5.796875 4.257813,0 6.425781,-1.929687 6.5,-5.796875 0.0625,-2.332031 0.09375,-4.945312 0.09375,-7.84375 0,-2.894531 -0.03125,-5.472656 -0.09375,-7.734375 h 10.78125 c 0.0625,2.199219 0.09375,4.464844 0.09375,6.796875 0,2.324219 -0.03125,4.621094 -0.09375,6.890625 -0.136719,5.917969 -1.554687,10.164063 -4.25,12.734375 -2.699219,2.5625 -7.042969,3.84375 -13.03125,3.84375 z m 0,0"
               id="path560"
               style="fill:url(#linearGradient2956);fill-opacity:1" /></g></g></g><g
         fill="#000000"
         fill-opacity="1"
         id="g574"><g
           transform="translate(507.50591,334.76694)"
           id="g572"><g
             id="g570"><path
               d="M 21.875,0.796875 C 15.8125,0.796875 11.460938,-0.46875 8.828125,-3 c -2.625,-2.53125 -3.96875,-6.753906 -4.03125,-12.671875 -0.273437,-21.375 -0.273437,-42.78125 0,-64.21875 h 10.78125 c -0.136719,10.65625 -0.203125,21.679687 -0.203125,33.0625 0,11.375 0.06641,22.390625 0.203125,33.046875 0,3.792969 2.097656,5.6875 6.296875,5.6875 4.125,0 6.1875,-1.894531 6.1875,-5.6875 0.0625,-10.65625 0.109375,-21.671875 0.140625,-33.046875 0.03906,-11.382813 -0.0078,-22.40625 -0.140625,-33.0625 h 10.78125 c 0.269531,21.4375 0.269531,42.84375 0,64.21875 C 38.78125,-9.753906 37.429688,-5.53125 34.796875,-3 32.171875,-0.46875 27.863281,0.796875 21.875,0.796875 Z m 0,0"
               id="path568"
               style="fill:#ffffff;fill-opacity:1" /></g></g></g><g
         fill="#000000"
         fill-opacity="1"
         id="g582"><g
           transform="translate(551.14126,334.76694)"
           id="g580"><g
             id="g578"><path
               d="M 13.875,0 V -70.296875 H 2.296875 v -9.59375 H 36.15625 v 9.59375 H 24.671875 V 0 Z m 0,0"
               id="path576"
               style="fill:#ffffff;fill-opacity:1" /></g></g></g><g
         fill="#000000"
         fill-opacity="1"
         id="g590"><g
           transform="translate(589.5843,334.76694)"
           id="g588"><g
             id="g586"><path
               d="m 4.59375,0 v -79.890625 h 28.5625 v 9.59375 H 15.484375 v 25.0625 H 32.15625 v 9.578125 H 15.484375 v 26.0625 H 33.15625 V 0 Z m 0,0"
               id="path584"
               style="fill:#ffffff;fill-opacity:1" /></g></g></g><g
         fill="#000000"
         fill-opacity="1"
         id="g604"><g
           transform="translate(646.79953,334.76694)"
           id="g602"><g
             id="g600"><path
               d="m 2.296875,0 9.78125,-79.890625 H 30.0625 L 39.84375,0 H 28.859375 L 26.96875,-19.96875 H 15.28125 L 13.375,0 Z M 16.28125,-29.453125 h 9.578125 L 24.171875,-47.03125 22.46875,-70.296875 H 19.671875 L 17.96875,-47.03125 Z m 0,0"
               id="path598"
               style="fill:#ffffff;fill-opacity:1" /></g></g></g><g
         fill="#000000"
         fill-opacity="1"
         id="g612"><g
           transform="translate(688.63755,334.76694)"
           id="g610"><g
             id="g608"><path
               d="M 4.59375,0 V -79.890625 H 20.375 c 5.925781,0 10.234375,1.265625 12.921875,3.796875 2.695313,2.53125 4.144531,6.664062 4.34375,12.390625 0.132813,3.65625 0.203125,6.96875 0.203125,9.9375 0,2.960937 -0.07031,6.070313 -0.203125,9.328125 -0.199219,5.730469 -1.648437,9.859375 -4.34375,12.390625 -2.6875,2.523437 -7.03125,3.78125 -13.03125,3.78125 h -4.78125 V 0 Z m 10.890625,-37.84375 h 4.78125 c 4.195313,0 6.394531,-2.03125 6.59375,-6.09375 0.132813,-3.195312 0.203125,-6.578125 0.203125,-10.140625 0,-3.5625 -0.07031,-6.9375 -0.203125,-10.125 -0.199219,-4.0625 -2.359375,-6.09375 -6.484375,-6.09375 h -4.890625 z m 0,0"
               id="path606"
               style="fill:#ffffff;fill-opacity:1" /></g></g></g><g
         fill="#000000"
         fill-opacity="1"
         id="g620"><g
           transform="translate(728.77807,334.76694)"
           id="g618"><g
             id="g616"><path
               d="m 4.59375,0 v -79.890625 h 28.5625 v 9.59375 H 15.484375 v 25.0625 H 32.15625 v 9.578125 H 15.484375 v 26.0625 H 33.15625 V 0 Z m 0,0"
               id="path614"
               style="fill:#ffffff;fill-opacity:1" /></g></g></g><g
         fill="#ff914d"
         fill-opacity="0.4"
         id="g628"><g
           transform="translate(442.2235,438.78624)"
           id="g626"><g
             id="g624"><path
               d="M 13.875,0 V -70.296875 H 2.296875 v -9.59375 H 36.15625 v 9.59375 H 24.671875 V 0 Z m 0,0"
               id="path622" /></g></g></g><g
         fill="#ff914d"
         fill-opacity="0.4"
         id="g636"><g
           transform="translate(480.66654,438.78624)"
           id="g634"><g
             id="g632"><path
               d="M 4.59375,0 V -79.890625 H 20.375 c 5.925781,0 10.234375,1.265625 12.921875,3.796875 2.695313,2.53125 4.144531,6.664062 4.34375,12.390625 0.132813,3.65625 0.203125,6.886719 0.203125,9.6875 0,2.792969 -0.07031,5.820313 -0.203125,9.078125 -0.261719,7.460938 -2.726563,12.25 -7.390625,14.375 L 38.9375,0 H 27.46875 l -7.390625,-28.765625 h -4.59375 V 0 Z m 10.890625,-38.34375 h 4.78125 c 4.195313,0 6.394531,-2 6.59375,-6 0.332031,-6.65625 0.332031,-13.273438 0,-19.859375 -0.199219,-4.0625 -2.359375,-6.09375 -6.484375,-6.09375 h -4.890625 z m 0,0"
               id="path630" /></g></g></g><g
         fill="#ff914d"
         fill-opacity="0.4"
         id="g644"><g
           transform="translate(522.0053,438.78624)"
           id="g642"><g
             id="g640"><path
               d="M 21.96875,0.796875 C 15.976562,0.796875 11.664062,-0.46875 9.03125,-3 6.40625,-5.53125 5.023438,-9.753906 4.890625,-15.671875 c -0.335937,-16.175781 -0.335937,-32.390625 0,-48.640625 0.132813,-5.851562 1.515625,-10.046875 4.140625,-12.578125 2.632812,-2.53125 6.945312,-3.796875 12.9375,-3.796875 5.988281,0 10.28125,1.265625 12.875,3.796875 2.601562,2.53125 4.003906,6.726563 4.203125,12.578125 0.394531,16.3125 0.394531,32.527344 0,48.640625 C 38.847656,-9.753906 37.445312,-5.53125 34.84375,-3 32.25,-0.46875 27.957031,0.796875 21.96875,0.796875 Z m 0,-8.890625 c 4.0625,0 6.160156,-1.894531 6.296875,-5.6875 0.195313,-5.519531 0.3125,-11.273438 0.34375,-17.265625 0.03125,-6 0.0078,-11.992187 -0.0625,-17.984375 -0.0625,-5.988281 -0.15625,-11.710938 -0.28125,-17.171875 -0.136719,-3.726563 -2.234375,-5.59375 -6.296875,-5.59375 -4.125,0 -6.226562,1.867187 -6.296875,5.59375 -0.199219,5.460937 -0.335937,11.183594 -0.40625,17.171875 -0.0625,5.992188 -0.0625,11.984375 0,17.984375 0.07031,5.992187 0.207031,11.746094 0.40625,17.265625 0.07031,3.792969 2.171875,5.6875 6.296875,5.6875 z m 0,0"
               id="path638" /></g></g></g><g
         fill="#ff914d"
         fill-opacity="0.4"
         id="g652"><g
           transform="translate(565.9402,438.78624)"
           id="g650"><g
             id="g648"><path
               d="M 4.59375,0 V -79.890625 H 21.375 l 5.1875,25.375 6.484375,44.921875 H 35.34375 L 33.453125,-48.734375 32.65625,-79.890625 H 43.140625 V 0 H 25.65625 l -5.390625,-27.359375 -5.28125,-43.046875 h -2.5 L 14.1875,-30.453125 15.078125,0 Z m 0,0"
               id="path646" /></g></g></g><g
         fill="#ff914d"
         fill-opacity="0.4"
         id="g666"><g
           transform="translate(635.03785,438.78624)"
           id="g664"><g
             id="g662"><path
               d="M 21.765625,0.90625 C 15.710938,0.90625 11.40625,-0.375 8.84375,-2.9375 6.28125,-5.507812 4.929688,-9.753906 4.796875,-15.671875 c -0.074219,-5 -0.125,-10.289063 -0.15625,-15.875 -0.03125,-5.59375 -0.03125,-11.1875 0,-16.78125 0.03125,-5.59375 0.082031,-10.882813 0.15625,-15.875 0.0625,-5.195313 1.421875,-9.242187 4.078125,-12.140625 2.664062,-2.894531 6.960938,-4.34375 12.890625,-4.34375 5.863281,0 10.109375,1.28125 12.734375,3.84375 2.632812,2.5625 4.015625,6.777344 4.140625,12.640625 0.07031,1.792969 0.109375,3.992187 0.109375,6.59375 0,2.59375 -0.03906,4.789063 -0.109375,6.578125 h -10.78125 c 0,-2.195312 0.01563,-4.691406 0.04687,-7.484375 0.03125,-2.800781 0.01563,-5.332031 -0.04687,-7.59375 -0.0625,-3.789063 -2.09375,-5.6875 -6.09375,-5.6875 -3.992187,0 -6.054687,1.898437 -6.1875,5.6875 -0.199219,8.460937 -0.296875,17.183594 -0.296875,26.171875 0,8.980469 0.09766,17.699219 0.296875,26.15625 0.132813,3.867188 2.195313,5.796875 6.1875,5.796875 4.257813,0 6.425781,-1.929687 6.5,-5.796875 0.0625,-2.332031 0.09375,-4.945312 0.09375,-7.84375 0,-2.894531 -0.03125,-5.472656 -0.09375,-7.734375 h 10.78125 c 0.0625,2.199219 0.09375,4.464844 0.09375,6.796875 0,2.324219 -0.03125,4.621094 -0.09375,6.890625 -0.136719,5.917969 -1.554687,10.164063 -4.25,12.734375 -2.699219,2.5625 -7.042969,3.84375 -13.03125,3.84375 z m 0,0"
               id="path660" /></g></g></g><g
         fill="#ff914d"
         fill-opacity="0.4"
         id="g674"><g
           transform="translate(677.17541,438.78624)"
           id="g672"><g
             id="g670"><path
               d="M 4.59375,0 V -79.890625 H 15.484375 V -9.59375 H 33.25 V 0 Z m 0,0"
               id="path668" /></g></g></g><g
         fill="#ff914d"
         fill-opacity="0.4"
         id="g682"><g
           transform="translate(712.72275,438.78624)"
           id="g680"><g
             id="g678"><path
               d="M 21.875,0.796875 C 15.8125,0.796875 11.460938,-0.46875 8.828125,-3 c -2.625,-2.53125 -3.96875,-6.753906 -4.03125,-12.671875 -0.273437,-21.375 -0.273437,-42.78125 0,-64.21875 h 10.78125 c -0.136719,10.65625 -0.203125,21.679687 -0.203125,33.0625 0,11.375 0.06641,22.390625 0.203125,33.046875 0,3.792969 2.097656,5.6875 6.296875,5.6875 4.125,0 6.1875,-1.894531 6.1875,-5.6875 0.0625,-10.65625 0.109375,-21.671875 0.140625,-33.046875 0.03906,-11.382813 -0.0078,-22.40625 -0.140625,-33.0625 h 10.78125 c 0.269531,21.4375 0.269531,42.84375 0,64.21875 C 38.78125,-9.753906 37.429688,-5.53125 34.796875,-3 32.171875,-0.46875 27.863281,0.796875 21.875,0.796875 Z m 0,0"
               id="path676" /></g></g></g><g
         fill="#ff914d"
         fill-opacity="0.4"
         id="g690"><g
           transform="translate(756.35811,438.78624)"
           id="g688"><g
             id="g686"><path
               d="m 4.59375,0 v -79.890625 h 15.171875 c 6,0 10.378906,1.265625 13.140625,3.796875 2.757812,2.53125 4.171875,6.664062 4.234375,12.390625 0,2.125 0,4.039063 0,5.734375 0,1.699219 -0.03125,3.34375 -0.09375,4.9375 -0.199219,3.199219 -0.882813,5.730469 -2.046875,7.59375 -1.167969,1.867188 -2.980469,3.230469 -5.4375,4.09375 V -39.25 c 2.53125,0.804688 4.394531,2.152344 5.59375,4.046875 1.195312,1.898437 1.859375,4.476563 1.984375,7.734375 0.132813,3.730469 0.132813,7.496094 0,11.296875 -0.261719,5.71875 -1.710937,9.84375 -4.34375,12.375 C 30.171875,-1.265625 25.863281,0 19.875,0 Z m 10.890625,-45.234375 h 4.28125 c 4.332031,0 6.53125,-2.695313 6.59375,-8.09375 0.07031,-3.65625 0.07031,-7.28125 0,-10.875 -0.0625,-4.0625 -2.261719,-6.09375 -6.59375,-6.09375 h -4.28125 z m 0,35.640625 H 19.875 c 4.257812,0 6.421875,-2.226562 6.484375,-6.6875 0.07031,-3.59375 0.07031,-7.15625 0,-10.6875 -0.0625,-3.125 -0.609375,-5.351562 -1.640625,-6.6875 -1.03125,-1.332031 -2.714844,-2 -5.046875,-2 h -4.1875 z m 0,0"
               id="path684" /></g></g></g><g
         fill="#000000"
         fill-opacity="1"
         id="g698"><g
           transform="translate(437.81046,434.3732)"
           id="g696"><g
             id="g694"><path
               d="M 13.875,0 V -70.296875 H 2.296875 v -9.59375 H 36.15625 v 9.59375 H 24.671875 V 0 Z m 0,0"
               id="path692"
               style="fill:#ffffff;fill-opacity:1" /></g></g></g><g
         fill="#000000"
         fill-opacity="1"
         id="g706"><g
           transform="translate(476.2535,434.3732)"
           id="g704"><g
             id="g702"><path
               d="M 4.59375,0 V -79.890625 H 20.375 c 5.925781,0 10.234375,1.265625 12.921875,3.796875 2.695313,2.53125 4.144531,6.664062 4.34375,12.390625 0.132813,3.65625 0.203125,6.886719 0.203125,9.6875 0,2.792969 -0.07031,5.820313 -0.203125,9.078125 -0.261719,7.460938 -2.726563,12.25 -7.390625,14.375 L 38.9375,0 H 27.46875 l -7.390625,-28.765625 h -4.59375 V 0 Z m 10.890625,-38.34375 h 4.78125 c 4.195313,0 6.394531,-2 6.59375,-6 0.332031,-6.65625 0.332031,-13.273438 0,-19.859375 -0.199219,-4.0625 -2.359375,-6.09375 -6.484375,-6.09375 h -4.890625 z m 0,0"
               id="path700"
               style="fill:#ffffff;fill-opacity:1" /></g></g></g><g
         fill="#000000"
         fill-opacity="1"
         id="g714"><g
           transform="translate(517.59226,434.3732)"
           id="g712"><g
             id="g710"><path
               d="M 21.96875,0.796875 C 15.976562,0.796875 11.664062,-0.46875 9.03125,-3 6.40625,-5.53125 5.023438,-9.753906 4.890625,-15.671875 c -0.335937,-16.175781 -0.335937,-32.390625 0,-48.640625 0.132813,-5.851562 1.515625,-10.046875 4.140625,-12.578125 2.632812,-2.53125 6.945312,-3.796875 12.9375,-3.796875 5.988281,0 10.28125,1.265625 12.875,3.796875 2.601562,2.53125 4.003906,6.726563 4.203125,12.578125 0.394531,16.3125 0.394531,32.527344 0,48.640625 C 38.847656,-9.753906 37.445312,-5.53125 34.84375,-3 32.25,-0.46875 27.957031,0.796875 21.96875,0.796875 Z m 0,-8.890625 c 4.0625,0 6.160156,-1.894531 6.296875,-5.6875 0.195313,-5.519531 0.3125,-11.273438 0.34375,-17.265625 0.03125,-6 0.0078,-11.992187 -0.0625,-17.984375 -0.0625,-5.988281 -0.15625,-11.710938 -0.28125,-17.171875 -0.136719,-3.726563 -2.234375,-5.59375 -6.296875,-5.59375 -4.125,0 -6.226562,1.867187 -6.296875,5.59375 -0.199219,5.460937 -0.335937,11.183594 -0.40625,17.171875 -0.0625,5.992188 -0.0625,11.984375 0,17.984375 0.07031,5.992187 0.207031,11.746094 0.40625,17.265625 0.07031,3.792969 2.171875,5.6875 6.296875,5.6875 z m 0,0"
               id="path708"
               style="fill:#ffffff;fill-opacity:1" /></g></g></g><g
         fill="#000000"
         fill-opacity="1"
         id="g722"><g
           transform="translate(561.52717,434.3732)"
           id="g720"><g
             id="g718"><path
               d="M 4.59375,0 V -79.890625 H 21.375 l 5.1875,25.375 6.484375,44.921875 H 35.34375 L 33.453125,-48.734375 32.65625,-79.890625 H 43.140625 V 0 H 25.65625 l -5.390625,-27.359375 -5.28125,-43.046875 h -2.5 L 14.1875,-30.453125 15.078125,0 Z m 0,0"
               id="path716"
               style="fill:#ffffff;fill-opacity:1" /></g></g></g><g
         fill="#000000"
         fill-opacity="1"
         id="g736"><g
           transform="translate(630.62481,434.3732)"
           id="g734"><g
             id="g732"><path
               d="M 21.765625,0.90625 C 15.710938,0.90625 11.40625,-0.375 8.84375,-2.9375 6.28125,-5.507812 4.929688,-9.753906 4.796875,-15.671875 c -0.074219,-5 -0.125,-10.289063 -0.15625,-15.875 -0.03125,-5.59375 -0.03125,-11.1875 0,-16.78125 0.03125,-5.59375 0.082031,-10.882813 0.15625,-15.875 0.0625,-5.195313 1.421875,-9.242187 4.078125,-12.140625 2.664062,-2.894531 6.960938,-4.34375 12.890625,-4.34375 5.863281,0 10.109375,1.28125 12.734375,3.84375 2.632812,2.5625 4.015625,6.777344 4.140625,12.640625 0.07031,1.792969 0.109375,3.992187 0.109375,6.59375 0,2.59375 -0.03906,4.789063 -0.109375,6.578125 h -10.78125 c 0,-2.195312 0.01563,-4.691406 0.04687,-7.484375 0.03125,-2.800781 0.01563,-5.332031 -0.04687,-7.59375 -0.0625,-3.789063 -2.09375,-5.6875 -6.09375,-5.6875 -3.992187,0 -6.054687,1.898437 -6.1875,5.6875 -0.199219,8.460937 -0.296875,17.183594 -0.296875,26.171875 0,8.980469 0.09766,17.699219 0.296875,26.15625 0.132813,3.867188 2.195313,5.796875 6.1875,5.796875 4.257813,0 6.425781,-1.929687 6.5,-5.796875 0.0625,-2.332031 0.09375,-4.945312 0.09375,-7.84375 0,-2.894531 -0.03125,-5.472656 -0.09375,-7.734375 h 10.78125 c 0.0625,2.199219 0.09375,4.464844 0.09375,6.796875 0,2.324219 -0.03125,4.621094 -0.09375,6.890625 -0.136719,5.917969 -1.554687,10.164063 -4.25,12.734375 -2.699219,2.5625 -7.042969,3.84375 -13.03125,3.84375 z m 0,0"
               id="path730"
               style="fill:#ffffff;fill-opacity:1" /></g></g></g><g
         fill="#000000"
         fill-opacity="1"
         id="g744"><g
           transform="translate(672.76237,434.3732)"
           id="g742"><g
             id="g740"><path
               d="M 4.59375,0 V -79.890625 H 15.484375 V -9.59375 H 33.25 V 0 Z m 0,0"
               id="path738"
               style="fill:#ffffff;fill-opacity:1" /></g></g></g><g
         fill="#000000"
         fill-opacity="1"
         id="g752"><g
           transform="translate(708.30971,434.3732)"
           id="g750"><g
             id="g748"><path
               d="M 21.875,0.796875 C 15.8125,0.796875 11.460938,-0.46875 8.828125,-3 c -2.625,-2.53125 -3.96875,-6.753906 -4.03125,-12.671875 -0.273437,-21.375 -0.273437,-42.78125 0,-64.21875 h 10.78125 c -0.136719,10.65625 -0.203125,21.679687 -0.203125,33.0625 0,11.375 0.06641,22.390625 0.203125,33.046875 0,3.792969 2.097656,5.6875 6.296875,5.6875 4.125,0 6.1875,-1.894531 6.1875,-5.6875 0.0625,-10.65625 0.109375,-21.671875 0.140625,-33.046875 0.03906,-11.382813 -0.0078,-22.40625 -0.140625,-33.0625 h 10.78125 c 0.269531,21.4375 0.269531,42.84375 0,64.21875 C 38.78125,-9.753906 37.429688,-5.53125 34.796875,-3 32.171875,-0.46875 27.863281,0.796875 21.875,0.796875 Z m 0,0"
               id="path746"
               style="fill:#ffffff;fill-opacity:1" /></g></g></g><g
         fill="#000000"
         fill-opacity="1"
         id="g760"><g
           transform="translate(751.94507,434.3732)"
           id="g758"><g
             id="g756"><path
               d="m 4.59375,0 v -79.890625 h 15.171875 c 6,0 10.378906,1.265625 13.140625,3.796875 2.757812,2.53125 4.171875,6.664062 4.234375,12.390625 0,2.125 0,4.039063 0,5.734375 0,1.699219 -0.03125,3.34375 -0.09375,4.9375 -0.199219,3.199219 -0.882813,5.730469 -2.046875,7.59375 -1.167969,1.867188 -2.980469,3.230469 -5.4375,4.09375 V -39.25 c 2.53125,0.804688 4.394531,2.152344 5.59375,4.046875 1.195312,1.898437 1.859375,4.476563 1.984375,7.734375 0.132813,3.730469 0.132813,7.496094 0,11.296875 -0.261719,5.71875 -1.710937,9.84375 -4.34375,12.375 C 30.171875,-1.265625 25.863281,0 19.875,0 Z m 10.890625,-45.234375 h 4.28125 c 4.332031,0 6.53125,-2.695313 6.59375,-8.09375 0.07031,-3.65625 0.07031,-7.28125 0,-10.875 -0.0625,-4.0625 -2.261719,-6.09375 -6.59375,-6.09375 h -4.28125 z m 0,35.640625 H 19.875 c 4.257812,0 6.421875,-2.226562 6.484375,-6.6875 0.07031,-3.59375 0.07031,-7.15625 0,-10.6875 -0.0625,-3.125 -0.609375,-5.351562 -1.640625,-6.6875 -1.03125,-1.332031 -2.714844,-2 -5.046875,-2 h -4.1875 z m 0,0"
               id="path754"
               style="fill:#ffffff;fill-opacity:1" /></g></g></g><g
         id="g983"
         transform="matrix(0.8082982,0,0,0.8082982,809.20502,235.28776)"><g
           id="g930"><path
             d="m 73.47,240.01 c -14.81,1.03 -29.87,2.24 -44.48,4.93 -5.26,1.06 -10.87,2.13 -15.74,4.42 -1.8,0.8 -2.79,2.23 -4.05,3.67 3.46,4.78 10.9,5.85 16.29,7.19 25.07,4.86 51.08,6.01 76.55,6.86 24.25,0.72 48.49,0.33 72.71,-0.91 17.65,-1.08 35.62,-2.38 52.99,-5.8 5.05,-1.18 11.05,-2.25 15.29,-5.35 1.66,-1.22 1.16,-3.56 -0.49,-4.55 -3.88,-2.6 -9.01,-3.66 -13.51,-4.72 -15.88,-3.31 -32.34,-4.6 -48.49,-5.74 24.07,-11.95 43.75,-32.1 55.14,-56.44 16.4,-34.65 14.91,-76.8 -4.17,-110.08 C 218.26,49.98 196.91,31.21 171.86,21.17 153.63,13.85 133.53,11.07 114.01,13.23 92.31,15.5 71.42,23.87 54.11,37.14 35.21,51.57 20.72,71.63 13.22,94.22 6.2,114.94 5.13,137.67 9.89,159.01 c 7.67,34.83 31.59,65.25 63.58,81 z"
             id="use900"
             style="fill:#000000;fill-opacity:1"
             sodipodi:nodetypes="cccccccccccccccccccc" /><path
             d="m 114.01,13.23 c 19.52,-2.16 39.62,0.62 57.85,7.94 25.05,10.04 46.4,28.81 59.65,52.32 19.08,33.28 20.57,75.43 4.17,110.08 -11.39,24.34 -31.07,44.49 -55.14,56.44 16.15,1.14 32.61,2.43 48.49,5.74 4.5,1.06 9.63,2.12 13.51,4.72 1.65,0.99 2.15,3.33 0.49,4.55 -4.24,3.1 -10.24,4.17 -15.29,5.35 -17.37,3.42 -35.34,4.72 -52.99,5.8 -24.22,1.24 -48.46,1.63 -72.71,0.91 -25.47,-0.85 -51.48,-2 -76.55,-6.86 -5.39,-1.34 -12.83,-2.41 -16.29,-7.19 1.26,-1.44 2.25,-2.87 4.05,-3.67 4.87,-2.29 10.48,-3.36 15.74,-4.42 14.61,-2.69 29.67,-3.9 44.48,-4.93 C 41.48,224.26 17.56,193.84 9.89,159.01 5.13,137.67 6.2,114.94 13.22,94.22 20.72,71.63 35.21,51.57 54.11,37.14 71.42,23.87 92.31,15.5 114.01,13.23 Z m -3.51,6.49 C 90.26,22.62 70.93,31.19 55.08,44.11 37.06,58.72 23.67,78.92 17.34,101.25 c -4.89,17.08 -5.71,35.3 -2.34,52.76 4.1,21.65 14.74,42.09 30.17,57.83 13.04,13.57 29.58,23.82 47.54,29.45 21.12,6.71 44.25,7.02 65.56,0.91 19.36,-5.51 37.18,-16.29 51.06,-30.87 24.92,-25.7 36.35,-63.14 29.97,-98.38 C 235.78,92.41 226.41,73.01 212.66,57.36 199.71,42.56 182.8,31.2 164.21,24.76 147.04,18.83 128.48,17.04 110.5,19.72 Z"
             id="use902"
             style="fill:#ffffff;fill-opacity:1" /><path
             d="m 110.5,19.72 c 17.98,-2.68 36.54,-0.89 53.71,5.04 18.59,6.44 35.5,17.8 48.45,32.6 13.75,15.65 23.12,35.05 26.64,55.59 6.38,35.24 -5.05,72.68 -29.97,98.38 -13.88,14.58 -31.7,25.36 -51.06,30.87 -21.31,6.11 -44.44,5.8 -65.56,-0.91 C 74.75,235.66 58.21,225.41 45.17,211.84 29.74,196.1 19.1,175.66 15,154.01 11.63,136.55 12.45,118.33 17.34,101.25 23.67,78.92 37.06,58.72 55.08,44.11 70.93,31.19 90.26,22.62 110.5,19.72 Z m 4,15.03 c -31.83,3.79 -60.6,24.08 -75.17,52.58 -15.13,28.98 -14.46,65.22 1.72,93.62 10.62,18.9 27.56,34.04 47.53,42.45 27.01,11.45 59.11,10.08 84.94,-3.89 17.97,-9.62 32.83,-24.87 41.82,-43.18 13.18,-26.25 13.6,-58.3 1.28,-84.95 -8.49,-18.53 -22.9,-34.3 -40.6,-44.41 C 157.53,36.28 135.67,32.09 114.5,34.75 Z"
             id="use904"
             style="fill:#f7931e" /><path
             d="m 114.5,34.75 c 21.17,-2.66 43.03,1.53 61.52,12.22 17.7,10.11 32.11,25.88 40.6,44.41 12.32,26.65 11.9,58.7 -1.28,84.95 -8.99,18.31 -23.85,33.56 -41.82,43.18 -25.83,13.97 -57.93,15.34 -84.94,3.89 C 68.61,214.99 51.67,199.85 41.05,180.95 24.87,152.55 24.2,116.31 39.33,87.33 53.9,58.83 82.67,38.54 114.5,34.75 Z m -0.01,5.04 c -16.53,2.2 -32.35,8.98 -45.43,19.3 -12.81,10.22 -23,23.6 -29.03,38.87 -5.85,14.55 -7.78,30.5 -5.92,46.05 2.02,16.64 8.67,32.72 19,45.91 11.23,14.56 26.96,25.63 44.38,31.45 15.61,5.22 32.66,6.08 48.76,2.76 27.07,-5.59 50.91,-23.71 63.66,-48.23 9.49,-17.98 12.74,-38.99 9.35,-59.02 C 214.58,88.63 196.28,63.39 171,50 153.82,40.77 133.81,37.15 114.49,39.79 Z"
             id="use906"
             style="fill:#000000;fill-opacity:1" /><path
             d="m 114.49,39.79 c 19.32,-2.64 39.33,0.98 56.51,10.21 25.28,13.39 43.58,38.63 48.26,66.88 3.39,20.03 0.14,41.04 -9.35,59.02 -12.75,24.52 -36.59,42.64 -63.66,48.23 -16.1,3.32 -33.15,2.46 -48.76,-2.76 -17.42,-5.82 -33.15,-16.89 -44.38,-31.45 -10.33,-13.19 -16.98,-29.27 -19,-45.91 -1.86,-15.55 0.07,-31.5 5.92,-46.05 6.03,-15.27 16.22,-28.65 29.03,-38.87 13.08,-10.32 28.9,-17.1 45.43,-19.3 z M 83.72,158.62 c -4.21,12.1 -4.02,25.43 1.57,37.06 7.52,16.37 24.67,27.33 42.71,27.15 17.62,0.36 34.28,-9.91 42.35,-25.48 6.26,-11.93 6.78,-26.1 2.34,-38.74 11.94,-1.93 22.81,-8.05 30.28,-17.61 9.59,-11.99 12.52,-28.4 8.19,-43.08 -3.48,-11.91 -12.03,-22.27 -22.94,-28.14 -10.3,-5.62 -23.04,-6.86 -34.48,-4.93 -9.52,1.53 -17,6.62 -25.48,10.92 -6.73,-3.34 -13.21,-7.55 -20.32,-9.68 -8.46,-2.56 -17.28,-2.55 -25.95,-1.13 -15.46,2.7 -28.92,13.64 -34.95,28.09 -6.76,15.79 -4.24,34.92 6.67,48.23 7.51,9.41 18.16,15.39 30.01,17.34 z"
             id="use908"
             style="fill:#f85100" /><path
             d="m 107.94,66.09 c 7.11,2.13 13.59,6.34 20.32,9.68 8.48,-4.3 15.96,-9.39 25.48,-10.92 11.44,-1.93 24.18,-0.69 34.48,4.93 10.91,5.87 19.46,16.23 22.94,28.14 4.33,14.68 1.4,31.09 -8.19,43.08 -7.47,9.56 -18.34,15.68 -30.28,17.61 4.44,12.64 3.92,26.81 -2.34,38.74 -8.07,15.57 -24.73,25.84 -42.35,25.48 C 109.96,223.01 92.81,212.05 85.29,195.68 79.7,184.05 79.51,170.72 83.72,158.62 71.87,156.67 61.22,150.69 53.71,141.28 42.8,127.97 40.28,108.84 47.04,93.05 53.07,78.6 66.53,67.66 81.99,64.96 c 8.67,-1.42 17.49,-1.43 25.95,1.13 z m -21.46,90.04 c -1.26,4.94 -2.47,9.97 -3.27,15 -0.25,3.38 0.85,6.81 1.07,10.2 1.32,5.31 3.02,10.88 5.93,15.57 4.97,7.86 12.05,14.51 20.63,18.24 11.76,5.26 25.75,4.78 37.16,-1.15 14.02,-7.2 23.56,-22.14 23.52,-37.99 0.26,-6.9 -1.68,-13.2 -3.86,-19.64 0.96,-0.37 1.93,-0.74 2.89,-1.12 11.16,-2.18 21.35,-7.19 28.6,-16.13 9.44,-11.26 12.4,-27.11 7.73,-41.04 -5.15,-16.04 -20.05,-28.1 -36.86,-29.61 -9.57,-1.3 -18.8,0.57 -27.83,3.64 -5.43,1.97 -9.79,5.23 -15.02,7.83 C 118.41,74.8 109.31,69.49 99.02,68.42 89.2,67.33 78.38,68.73 69.7,73.71 c -10.42,5.82 -18.42,16.1 -21.12,27.76 -2.7,11.21 -0.82,23.77 5.39,33.53 3.13,4.22 6.3,8.89 10.44,12.17 6.56,4.69 14.35,7.04 22.07,8.96 z"
             id="use910"
             style="fill:none" /><path
             d="m 99.02,68.42 c 10.29,1.07 19.39,6.38 28.15,11.51 5.23,-2.6 9.59,-5.86 15.02,-7.83 9.03,-3.07 18.26,-4.94 27.83,-3.64 16.81,1.51 31.71,13.57 36.86,29.61 4.67,13.93 1.71,29.78 -7.73,41.04 -7.25,8.94 -17.44,13.95 -28.6,16.13 -0.96,0.38 -1.93,0.75 -2.89,1.12 2.18,6.44 4.12,12.74 3.86,19.64 0.04,15.85 -9.5,30.79 -23.52,37.99 -11.41,5.93 -25.4,6.41 -37.16,1.15 -8.58,-3.73 -15.66,-10.38 -20.63,-18.24 -2.91,-4.69 -4.61,-10.26 -5.93,-15.57 -0.22,-3.39 -1.32,-6.82 -1.07,-10.2 0.8,-5.03 2.01,-10.06 3.27,-15 -7.72,-1.92 -15.51,-4.27 -22.07,-8.96 -4.14,-3.28 -7.31,-7.95 -10.44,-12.17 -6.21,-9.76 -8.09,-22.32 -5.39,-33.53 2.7,-11.66 10.7,-21.94 21.12,-27.76 8.68,-4.98 19.5,-6.38 29.32,-5.29 z m -40.88,47.22 c 2.67,-4.76 2.96,-9.75 7.32,-13.51 -0.47,4.3 -1.35,8.16 -0.45,12.51 1.06,4.77 2.99,9.46 6.49,12.95 4.92,4.93 11.32,7.13 17.99,8.55 -2.96,1 -5.98,1.69 -9.04,2.3 8.04,0.91 15.66,-0.3 22.83,-4.07 1.91,-1.21 3.25,-0.45 5.24,0.01 0.03,0.79 0.06,1.58 0.1,2.37 1.76,1.38 3.56,2.73 5.36,4.06 -1.74,-2.79 -3.2,-5.54 -4.43,-8.59 0.71,-1.11 1.4,-2.24 2.08,-3.37 1.8,-1.37 3.8,-4.46 6.31,-3.82 2.72,0.44 4.98,3.34 7.05,4.95 -1.15,-4.55 -5.55,-8.44 -10.36,-8.55 -0.59,0.83 -1.18,1.65 -1.78,2.47 1.18,-3.63 2.58,-6.95 2.86,-10.81 0.29,-4.26 -0.14,-8.49 -0.41,-12.72 1.15,1.52 2.31,3.03 3.49,4.52 -2.39,-7.5 -5.89,-14.71 -12.94,-18.8 -6.69,-4.4 -15.82,-4.73 -23.36,-2.78 -6.47,2.31 -13.5,6.04 -17.18,12.08 -3.85,5.9 -7.06,13.11 -7.17,20.25 z m 79.79,-18.29 c -0.72,2.5 -1.61,4.94 -2.49,7.39 1.09,-1.45 2.17,-2.9 3.26,-4.34 -0.29,4.45 -0.8,9.23 -0.34,13.67 0.4,3.44 1.68,6.53 2.8,9.78 -0.57,-0.69 -1.13,-1.38 -1.69,-2.06 -0.9,-0.13 -1.79,-0.26 -2.69,-0.4 -4.07,2.34 -6.48,5.2 -9.11,9.2 3.57,-2.46 5.83,-5.5 10.33,-5.84 2.36,2.27 4.65,4.59 6.75,7.1 -1.37,3.11 -3.01,6.05 -4.69,9.01 2.85,-1.75 4.67,-3.24 5.87,-6.42 3.4,-1.89 5.06,0.45 8.19,1.57 6.06,2.51 12.8,3.15 19.29,2.42 -3.06,-0.63 -6.08,-1.33 -9.06,-2.28 6.31,-1.32 12.19,-3.24 17.11,-7.58 4.24,-3.74 6.56,-9.12 7.66,-14.56 0.81,-4.11 -0.26,-7.87 -0.57,-12.02 4.58,3.34 4.75,10.37 8.18,15.03 -1.5,-9.44 -5.18,-19.82 -12.22,-26.58 -6.22,-4.88 -13.39,-8.45 -21.49,-8.21 -7.28,-0.37 -14.21,2.34 -19.42,7.39 -2.21,2.26 -3.96,5.09 -5.67,7.73 z m -20.67,33.99 c -0.04,3.86 1.5,5.64 3.8,8.32 2.53,0.98 4.88,2.44 7.68,1.69 4.52,-1.2 8.3,-5.07 7.97,-10.02 -4.37,2.4 -6.12,6.61 -9.75,9.85 -3.49,-3.37 -5.25,-7.48 -9.7,-9.84 z m 11.75,16.15 c 0.54,1.81 0.97,3.57 2.16,5.09 l 0.01,0.02 0.03,0.01 c 2.15,1 4.43,1.56 6.73,2.14 -3.09,-2.12 -5.11,-6.76 -8.93,-7.26 z m -1.33,39.84 c 1.05,-3.8 1.66,-7.14 4.99,-9.55 4.14,-3.73 9.79,-4.06 14.83,-2.09 2.95,1.36 4.98,5.02 6.9,7.41 -0.88,-3.03 -1.01,-6.72 -3.12,-9.14 -3.24,-3.66 -8.39,-6.2 -13.34,-5.19 -4.62,1.56 -8.81,4.33 -10.29,9.23 -1.24,3.22 -0.31,6.01 0.03,9.33 z"
             id="use912"
             style="fill:#f7931e" /><path
             d="m 105.85,86.09 c 7.05,4.09 10.55,11.3 12.94,18.8 -1.18,-1.49 -2.34,-3 -3.49,-4.52 0.27,4.23 0.7,8.46 0.41,12.72 -0.28,3.86 -1.68,7.18 -2.86,10.81 0.6,-0.82 1.19,-1.64 1.78,-2.47 4.81,0.11 9.21,4 10.36,8.55 -2.07,-1.61 -4.33,-4.51 -7.05,-4.95 -2.51,-0.64 -4.51,2.45 -6.31,3.82 -0.68,1.13 -1.37,2.26 -2.08,3.37 1.23,3.05 2.69,5.8 4.43,8.59 -1.8,-1.33 -3.6,-2.68 -5.36,-4.06 -0.04,-0.79 -0.07,-1.58 -0.1,-2.37 -1.99,-0.46 -3.33,-1.22 -5.24,-0.01 -7.17,3.77 -14.79,4.98 -22.83,4.07 3.06,-0.61 6.08,-1.3 9.04,-2.3 -6.67,-1.42 -13.07,-3.62 -17.99,-8.55 -3.5,-3.49 -5.43,-8.18 -6.49,-12.95 -0.9,-4.35 -0.02,-8.21 0.45,-12.51 -4.36,3.76 -4.65,8.75 -7.32,13.51 0.11,-7.14 3.32,-14.35 7.17,-20.25 3.68,-6.04 10.71,-9.77 17.18,-12.08 7.54,-1.95 16.67,-1.62 23.36,2.78 z m -37.56,28.56 c 0.27,1.04 0.61,2.04 1.03,3.02 0.53,1.12 0.98,2.26 1.45,3.41 4.02,6.79 11.15,11.62 19.24,11.31 5.08,0.37 9.05,-1.78 13.41,-4.01 1.77,-1.97 3.67,-3.82 5.66,-5.57 1.3,-2.72 2.44,-5.44 3.18,-8.37 -4.09,0.33 -8.12,1 -12.23,1.07 -1.48,1.52 -2.78,2.94 -4.97,3.33 -2.54,-0.05 -3.58,-1.81 -5.28,-3.32 -7.24,-0.12 -14.2,-1.56 -21.49,-0.87 z"
             id="use914"
             style="fill:#0b0f1d" /><path
             d="m 163.02,82.23 c 8.1,-0.24 15.27,3.33 21.49,8.21 7.04,6.76 10.72,17.14 12.22,26.58 -3.43,-4.66 -3.6,-11.69 -8.18,-15.03 0.31,4.15 1.38,7.91 0.57,12.02 -1.1,5.44 -3.42,10.82 -7.66,14.56 -4.92,4.34 -10.8,6.26 -17.11,7.58 2.98,0.95 6,1.65 9.06,2.28 -6.49,0.73 -13.23,0.09 -19.29,-2.42 -3.13,-1.12 -4.79,-3.46 -8.19,-1.57 -1.2,3.18 -3.02,4.67 -5.87,6.42 1.68,-2.96 3.32,-5.9 4.69,-9.01 -2.1,-2.51 -4.39,-4.83 -6.75,-7.1 -4.5,0.34 -6.76,3.38 -10.33,5.84 2.63,-4 5.04,-6.86 9.11,-9.2 0.9,0.14 1.79,0.27 2.69,0.4 0.56,0.68 1.12,1.37 1.69,2.06 -1.12,-3.25 -2.4,-6.34 -2.8,-9.78 -0.46,-4.44 0.05,-9.22 0.34,-13.67 -1.09,1.44 -2.17,2.89 -3.26,4.34 0.88,-2.45 1.77,-4.89 2.49,-7.39 1.71,-2.64 3.46,-5.47 5.67,-7.73 5.21,-5.05 12.14,-7.76 19.42,-7.39 z m -21.14,33.13 c 0.85,2.55 1.89,5.01 3.02,7.45 1.99,1.72 3.83,3.54 5.56,5.52 3.19,1.57 6.05,3.24 9.6,3.88 5.76,0.52 11.32,0.17 16,-3.61 0.72,-0.4 1.44,-0.79 2.16,-1.18 3.66,-3.43 5.33,-7.79 7.79,-12 -2.95,-0.18 -5.89,-0.51 -8.84,-0.75 -1.96,2.1 -3.6,3.88 -6.58,4.37 -0.99,-0.63 -1.98,-1.24 -2.98,-1.84 -0.41,-0.59 -0.82,-1.17 -1.23,-1.75 -4.71,-0.03 -9.79,0.37 -14.38,-0.62 -3.48,-0.23 -6.68,-0.07 -10.12,0.53 z"
             id="use916"
             style="fill:#0b0f1d" /><path
             d="m 68.29,114.65 c 7.29,-0.69 14.25,0.75 21.49,0.87 1.7,1.51 2.74,3.27 5.28,3.32 2.19,-0.39 3.49,-1.81 4.97,-3.33 4.11,-0.07 8.14,-0.74 12.23,-1.07 -0.74,2.93 -1.88,5.65 -3.18,8.37 -1.99,1.75 -3.89,3.6 -5.66,5.57 -4.36,2.23 -8.33,4.38 -13.41,4.01 -8.09,0.31 -15.22,-4.52 -19.24,-11.31 -0.47,-1.15 -0.92,-2.29 -1.45,-3.41 -0.42,-0.98 -0.76,-1.98 -1.03,-3.02 z"
             id="use918"
             style="fill:#ffffff" /><path
             d="m 141.88,115.36 c 3.44,-0.6 6.64,-0.76 10.12,-0.53 4.59,0.99 9.67,0.59 14.38,0.62 0.41,0.58 0.82,1.16 1.23,1.75 1,0.6 1.99,1.21 2.98,1.84 2.98,-0.49 4.62,-2.27 6.58,-4.37 2.95,0.24 5.89,0.57 8.84,0.75 -2.46,4.21 -4.13,8.57 -7.79,12 -0.72,0.39 -1.44,0.78 -2.16,1.18 -4.68,3.78 -10.24,4.13 -16,3.61 -3.55,-0.64 -6.41,-2.31 -9.6,-3.88 -1.73,-1.98 -3.57,-3.8 -5.56,-5.52 -1.13,-2.44 -2.17,-4.9 -3.02,-7.45 z"
             id="use920"
             style="fill:#ffffff" /><path
             d="m 117.26,131.34 c 4.45,2.36 6.21,6.47 9.7,9.84 3.63,-3.24 5.38,-7.45 9.75,-9.85 0.33,4.95 -3.45,8.82 -7.97,10.02 -2.8,0.75 -5.15,-0.71 -7.68,-1.69 -2.3,-2.68 -3.84,-4.46 -3.8,-8.32 z"
             id="use922"
             style="fill:#0b0f1d" /><path
             d="m 129.01,147.49 c 3.82,0.5 5.84,5.14 8.93,7.26 -2.3,-0.58 -4.58,-1.14 -6.73,-2.14 l -0.04,-0.03 c -1.19,-1.52 -1.62,-3.28 -2.16,-5.09 z"
             id="use924"
             style="fill:#0b0f1d" /><path
             d="m 131.17,152.58 0.04,0.03 -0.03,-0.01 z"
             id="use926"
             style="fill:#ffffff" /><path
             d="m 137.94,168.77 c 4.95,-1.01 10.1,1.53 13.34,5.19 2.11,2.42 2.24,6.11 3.12,9.14 -1.92,-2.39 -3.95,-6.05 -6.9,-7.41 -5.04,-1.97 -10.69,-1.64 -14.83,2.09 -3.33,2.41 -3.94,5.75 -4.99,9.55 -0.34,-3.32 -1.27,-6.11 -0.03,-9.33 1.48,-4.9 5.67,-7.67 10.29,-9.23 z"
             id="use928"
             style="fill:#0b0f1d" /></g></g></g></g></svg>
