<?xml version="1.0" encoding="UTF-8" standalone="no"?>
<svg
   width="1500"
   zoomAndPan="magnify"
   viewBox="0 0 1125 375"
   height="500"
   preserveAspectRatio="xMidYMid"
   version="1.0"
   id="svg762"
   sodipodi:docname="logoclaro-oscuro.svg"
   xml:space="preserve"
   inkscape:version="1.2.1 (9c6d41e410, 2022-07-14)"
   xmlns:inkscape="http://www.inkscape.org/namespaces/inkscape"
   xmlns:sodipodi="http://sodipodi.sourceforge.net/DTD/sodipodi-0.dtd"
   xmlns:xlink="http://www.w3.org/1999/xlink"
   xmlns="http://www.w3.org/2000/svg"
   xmlns:svg="http://www.w3.org/2000/svg"><sodipodi:namedview
     id="namedview764"
     pagecolor="#ffffff"
     bordercolor="#000000"
     borderopacity="0.25"
     inkscape:showpageshadow="2"
     inkscape:pageopacity="0.0"
     inkscape:pagecheckerboard="0"
     inkscape:deskcolor="#d1d1d1"
     showgrid="false"
     inkscape:zoom="0.70710678"
     inkscape:cx="557.20014"
     inkscape:cy="337.28993"
     inkscape:window-width="1920"
     inkscape:window-height="991"
     inkscape:window-x="-9"
     inkscape:window-y="-9"
     inkscape:window-maximized="1"
     inkscape:current-layer="svg762" /><defs
     id="defs488"><linearGradient
       id="linearGradient2954"
       inkscape:swatch="solid"><stop
         style="stop-color:#ffffff;stop-opacity:1;"
         offset="0"
         id="stop2952" /></linearGradient><g
       id="g483" /><clipPath
       id="id1"><path
         d="M 0.886719,0 H 1229.1133 V 692 H 0.886719 Z m 0,0"
         clip-rule="nonzero"
         id="path485" /></clipPath><path
       d="M 0,0 H 251 V 268 H 0 Z m 73.47,240.01 c -14.81,1.03 -29.87,2.24 -44.48,4.93 -5.26,1.06 -10.87,2.13 -15.74,4.42 -1.8,0.8 -2.79,2.23 -4.05,3.67 3.46,4.78 10.9,5.85 16.29,7.19 25.07,4.86 51.08,6.01 76.55,6.86 24.25,0.72 48.49,0.33 72.71,-0.91 17.65,-1.08 35.62,-2.38 52.99,-5.8 5.05,-1.18 11.05,-2.25 15.29,-5.35 1.66,-1.22 1.16,-3.56 -0.49,-4.55 -3.88,-2.6 -9.01,-3.66 -13.51,-4.72 -15.88,-3.31 -32.34,-4.6 -48.49,-5.74 24.07,-11.95 43.75,-32.1 55.14,-56.44 16.4,-34.65 14.91,-76.8 -4.17,-110.08 C 218.26,49.98 196.91,31.21 171.86,21.17 153.63,13.85 133.53,11.07 114.01,13.23 92.31,15.5 71.42,23.87 54.11,37.14 35.21,51.57 20.72,71.63 13.22,94.22 6.2,114.94 5.13,137.67 9.89,159.01 c 7.67,34.83 31.59,65.25 63.58,81 z"
       id="p0" /><path
       d="m 114.01,13.23 c 19.52,-2.16 39.62,0.62 57.85,7.94 25.05,10.04 46.4,28.81 59.65,52.32 19.08,33.28 20.57,75.43 4.17,110.08 -11.39,24.34 -31.07,44.49 -55.14,56.44 16.15,1.14 32.61,2.43 48.49,5.74 4.5,1.06 9.63,2.12 13.51,4.72 1.65,0.99 2.15,3.33 0.49,4.55 -4.24,3.1 -10.24,4.17 -15.29,5.35 -17.37,3.42 -35.34,4.72 -52.99,5.8 -24.22,1.24 -48.46,1.63 -72.71,0.91 -25.47,-0.85 -51.48,-2 -76.55,-6.86 -5.39,-1.34 -12.83,-2.41 -16.29,-7.19 1.26,-1.44 2.25,-2.87 4.05,-3.67 4.87,-2.29 10.48,-3.36 15.74,-4.42 14.61,-2.69 29.67,-3.9 44.48,-4.93 C 41.48,224.26 17.56,193.84 9.89,159.01 5.13,137.67 6.2,114.94 13.22,94.22 20.72,71.63 35.21,51.57 54.11,37.14 71.42,23.87 92.31,15.5 114.01,13.23 Z m -3.51,6.49 C 90.26,22.62 70.93,31.19 55.08,44.11 37.06,58.72 23.67,78.92 17.34,101.25 c -4.89,17.08 -5.71,35.3 -2.34,52.76 4.1,21.65 14.74,42.09 30.17,57.83 13.04,13.57 29.58,23.82 47.54,29.45 21.12,6.71 44.25,7.02 65.56,0.91 19.36,-5.51 37.18,-16.29 51.06,-30.87 24.92,-25.7 36.35,-63.14 29.97,-98.38 C 235.78,92.41 226.41,73.01 212.66,57.36 199.71,42.56 182.8,31.2 164.21,24.76 147.04,18.83 128.48,17.04 110.5,19.72 Z"
       id="p1" /><path
       d="m 110.5,19.72 c 17.98,-2.68 36.54,-0.89 53.71,5.04 18.59,6.44 35.5,17.8 48.45,32.6 13.75,15.65 23.12,35.05 26.64,55.59 6.38,35.24 -5.05,72.68 -29.97,98.38 -13.88,14.58 -31.7,25.36 -51.06,30.87 -21.31,6.11 -44.44,5.8 -65.56,-0.91 C 74.75,235.66 58.21,225.41 45.17,211.84 29.74,196.1 19.1,175.66 15,154.01 11.63,136.55 12.45,118.33 17.34,101.25 23.67,78.92 37.06,58.72 55.08,44.11 70.93,31.19 90.26,22.62 110.5,19.72 Z m 4,15.03 c -31.83,3.79 -60.6,24.08 -75.17,52.58 -15.13,28.98 -14.46,65.22 1.72,93.62 10.62,18.9 27.56,34.04 47.53,42.45 27.01,11.45 59.11,10.08 84.94,-3.89 17.97,-9.62 32.83,-24.87 41.82,-43.18 13.18,-26.25 13.6,-58.3 1.28,-84.95 -8.49,-18.53 -22.9,-34.3 -40.6,-44.41 C 157.53,36.28 135.67,32.09 114.5,34.75 Z"
       id="p2" /><path
       d="m 114.5,34.75 c 21.17,-2.66 43.03,1.53 61.52,12.22 17.7,10.11 32.11,25.88 40.6,44.41 12.32,26.65 11.9,58.7 -1.28,84.95 -8.99,18.31 -23.85,33.56 -41.82,43.18 -25.83,13.97 -57.93,15.34 -84.94,3.89 C 68.61,214.99 51.67,199.85 41.05,180.95 24.87,152.55 24.2,116.31 39.33,87.33 53.9,58.83 82.67,38.54 114.5,34.75 Z m -0.01,5.04 c -16.53,2.2 -32.35,8.98 -45.43,19.3 -12.81,10.22 -23,23.6 -29.03,38.87 -5.85,14.55 -7.78,30.5 -5.92,46.05 2.02,16.64 8.67,32.72 19,45.91 11.23,14.56 26.96,25.63 44.38,31.45 15.61,5.22 32.66,6.08 48.76,2.76 27.07,-5.59 50.91,-23.71 63.66,-48.23 9.49,-17.98 12.74,-38.99 9.35,-59.02 C 214.58,88.63 196.28,63.39 171,50 153.82,40.77 133.81,37.15 114.49,39.79 Z"
       id="p3" /><path
       d="m 114.49,39.79 c 19.32,-2.64 39.33,0.98 56.51,10.21 25.28,13.39 43.58,38.63 48.26,66.88 3.39,20.03 0.14,41.04 -9.35,59.02 -12.75,24.52 -36.59,42.64 -63.66,48.23 -16.1,3.32 -33.15,2.46 -48.76,-2.76 -17.42,-5.82 -33.15,-16.89 -44.38,-31.45 -10.33,-13.19 -16.98,-29.27 -19,-45.91 -1.86,-15.55 0.07,-31.5 5.92,-46.05 6.03,-15.27 16.22,-28.65 29.03,-38.87 13.08,-10.32 28.9,-17.1 45.43,-19.3 z M 83.72,158.62 c -4.21,12.1 -4.02,25.43 1.57,37.06 7.52,16.37 24.67,27.33 42.71,27.15 17.62,0.36 34.28,-9.91 42.35,-25.48 6.26,-11.93 6.78,-26.1 2.34,-38.74 11.94,-1.93 22.81,-8.05 30.28,-17.61 9.59,-11.99 12.52,-28.4 8.19,-43.08 -3.48,-11.91 -12.03,-22.27 -22.94,-28.14 -10.3,-5.62 -23.04,-6.86 -34.48,-4.93 -9.52,1.53 -17,6.62 -25.48,10.92 -6.73,-3.34 -13.21,-7.55 -20.32,-9.68 -8.46,-2.56 -17.28,-2.55 -25.95,-1.13 -15.46,2.7 -28.92,13.64 -34.95,28.09 -6.76,15.79 -4.24,34.92 6.67,48.23 7.51,9.41 18.16,15.39 30.01,17.34 z"
       id="p4" /><path
       d="m 107.94,66.09 c 7.11,2.13 13.59,6.34 20.32,9.68 8.48,-4.3 15.96,-9.39 25.48,-10.92 11.44,-1.93 24.18,-0.69 34.48,4.93 10.91,5.87 19.46,16.23 22.94,28.14 4.33,14.68 1.4,31.09 -8.19,43.08 -7.47,9.56 -18.34,15.68 -30.28,17.61 4.44,12.64 3.92,26.81 -2.34,38.74 -8.07,15.57 -24.73,25.84 -42.35,25.48 C 109.96,223.01 92.81,212.05 85.29,195.68 79.7,184.05 79.51,170.72 83.72,158.62 71.87,156.67 61.22,150.69 53.71,141.28 42.8,127.97 40.28,108.84 47.04,93.05 53.07,78.6 66.53,67.66 81.99,64.96 c 8.67,-1.42 17.49,-1.43 25.95,1.13 z m -21.46,90.04 c -1.26,4.94 -2.47,9.97 -3.27,15 -0.25,3.38 0.85,6.81 1.07,10.2 1.32,5.31 3.02,10.88 5.93,15.57 4.97,7.86 12.05,14.51 20.63,18.24 11.76,5.26 25.75,4.78 37.16,-1.15 14.02,-7.2 23.56,-22.14 23.52,-37.99 0.26,-6.9 -1.68,-13.2 -3.86,-19.64 0.96,-0.37 1.93,-0.74 2.89,-1.12 11.16,-2.18 21.35,-7.19 28.6,-16.13 9.44,-11.26 12.4,-27.11 7.73,-41.04 -5.15,-16.04 -20.05,-28.1 -36.86,-29.61 -9.57,-1.3 -18.8,0.57 -27.83,3.64 -5.43,1.97 -9.79,5.23 -15.02,7.83 C 118.41,74.8 109.31,69.49 99.02,68.42 89.2,67.33 78.38,68.73 69.7,73.71 c -10.42,5.82 -18.42,16.1 -21.12,27.76 -2.7,11.21 -0.82,23.77 5.39,33.53 3.13,4.22 6.3,8.89 10.44,12.17 6.56,4.69 14.35,7.04 22.07,8.96 z"
       id="p5" /><path
       d="m 99.02,68.42 c 10.29,1.07 19.39,6.38 28.15,11.51 5.23,-2.6 9.59,-5.86 15.02,-7.83 9.03,-3.07 18.26,-4.94 27.83,-3.64 16.81,1.51 31.71,13.57 36.86,29.61 4.67,13.93 1.71,29.78 -7.73,41.04 -7.25,8.94 -17.44,13.95 -28.6,16.13 -0.96,0.38 -1.93,0.75 -2.89,1.12 2.18,6.44 4.12,12.74 3.86,19.64 0.04,15.85 -9.5,30.79 -23.52,37.99 -11.41,5.93 -25.4,6.41 -37.16,1.15 -8.58,-3.73 -15.66,-10.38 -20.63,-18.24 -2.91,-4.69 -4.61,-10.26 -5.93,-15.57 -0.22,-3.39 -1.32,-6.82 -1.07,-10.2 0.8,-5.03 2.01,-10.06 3.27,-15 -7.72,-1.92 -15.51,-4.27 -22.07,-8.96 -4.14,-3.28 -7.31,-7.95 -10.44,-12.17 -6.21,-9.76 -8.09,-22.32 -5.39,-33.53 2.7,-11.66 10.7,-21.94 21.12,-27.76 8.68,-4.98 19.5,-6.38 29.32,-5.29 z m -40.88,47.22 c 2.67,-4.76 2.96,-9.75 7.32,-13.51 -0.47,4.3 -1.35,8.16 -0.45,12.51 1.06,4.77 2.99,9.46 6.49,12.95 4.92,4.93 11.32,7.13 17.99,8.55 -2.96,1 -5.98,1.69 -9.04,2.3 8.04,0.91 15.66,-0.3 22.83,-4.07 1.91,-1.21 3.25,-0.45 5.24,0.01 0.03,0.79 0.06,1.58 0.1,2.37 1.76,1.38 3.56,2.73 5.36,4.06 -1.74,-2.79 -3.2,-5.54 -4.43,-8.59 0.71,-1.11 1.4,-2.24 2.08,-3.37 1.8,-1.37 3.8,-4.46 6.31,-3.82 2.72,0.44 4.98,3.34 7.05,4.95 -1.15,-4.55 -5.55,-8.44 -10.36,-8.55 -0.59,0.83 -1.18,1.65 -1.78,2.47 1.18,-3.63 2.58,-6.95 2.86,-10.81 0.29,-4.26 -0.14,-8.49 -0.41,-12.72 1.15,1.52 2.31,3.03 3.49,4.52 -2.39,-7.5 -5.89,-14.71 -12.94,-18.8 -6.69,-4.4 -15.82,-4.73 -23.36,-2.78 -6.47,2.31 -13.5,6.04 -17.18,12.08 -3.85,5.9 -7.06,13.11 -7.17,20.25 z m 79.79,-18.29 c -0.72,2.5 -1.61,4.94 -2.49,7.39 1.09,-1.45 2.17,-2.9 3.26,-4.34 -0.29,4.45 -0.8,9.23 -0.34,13.67 0.4,3.44 1.68,6.53 2.8,9.78 -0.57,-0.69 -1.13,-1.38 -1.69,-2.06 -0.9,-0.13 -1.79,-0.26 -2.69,-0.4 -4.07,2.34 -6.48,5.2 -9.11,9.2 3.57,-2.46 5.83,-5.5 10.33,-5.84 2.36,2.27 4.65,4.59 6.75,7.1 -1.37,3.11 -3.01,6.05 -4.69,9.01 2.85,-1.75 4.67,-3.24 5.87,-6.42 3.4,-1.89 5.06,0.45 8.19,1.57 6.06,2.51 12.8,3.15 19.29,2.42 -3.06,-0.63 -6.08,-1.33 -9.06,-2.28 6.31,-1.32 12.19,-3.24 17.11,-7.58 4.24,-3.74 6.56,-9.12 7.66,-14.56 0.81,-4.11 -0.26,-7.87 -0.57,-12.02 4.58,3.34 4.75,10.37 8.18,15.03 -1.5,-9.44 -5.18,-19.82 -12.22,-26.58 -6.22,-4.88 -13.39,-8.45 -21.49,-8.21 -7.28,-0.37 -14.21,2.34 -19.42,7.39 -2.21,2.26 -3.96,5.09 -5.67,7.73 z m -20.67,33.99 c -0.04,3.86 1.5,5.64 3.8,8.32 2.53,0.98 4.88,2.44 7.68,1.69 4.52,-1.2 8.3,-5.07 7.97,-10.02 -4.37,2.4 -6.12,6.61 -9.75,9.85 -3.49,-3.37 -5.25,-7.48 -9.7,-9.84 z m 11.75,16.15 c 0.54,1.81 0.97,3.57 2.16,5.09 l 0.01,0.02 0.03,0.01 c 2.15,1 4.43,1.56 6.73,2.14 -3.09,-2.12 -5.11,-6.76 -8.93,-7.26 z m -1.33,39.84 c 1.05,-3.8 1.66,-7.14 4.99,-9.55 4.14,-3.73 9.79,-4.06 14.83,-2.09 2.95,1.36 4.98,5.02 6.9,7.41 -0.88,-3.03 -1.01,-6.72 -3.12,-9.14 -3.24,-3.66 -8.39,-6.2 -13.34,-5.19 -4.62,1.56 -8.81,4.33 -10.29,9.23 -1.24,3.22 -0.31,6.01 0.03,9.33 z"
       id="p6" /><path
       d="m 105.85,86.09 c 7.05,4.09 10.55,11.3 12.94,18.8 -1.18,-1.49 -2.34,-3 -3.49,-4.52 0.27,4.23 0.7,8.46 0.41,12.72 -0.28,3.86 -1.68,7.18 -2.86,10.81 0.6,-0.82 1.19,-1.64 1.78,-2.47 4.81,0.11 9.21,4 10.36,8.55 -2.07,-1.61 -4.33,-4.51 -7.05,-4.95 -2.51,-0.64 -4.51,2.45 -6.31,3.82 -0.68,1.13 -1.37,2.26 -2.08,3.37 1.23,3.05 2.69,5.8 4.43,8.59 -1.8,-1.33 -3.6,-2.68 -5.36,-4.06 -0.04,-0.79 -0.07,-1.58 -0.1,-2.37 -1.99,-0.46 -3.33,-1.22 -5.24,-0.01 -7.17,3.77 -14.79,4.98 -22.83,4.07 3.06,-0.61 6.08,-1.3 9.04,-2.3 -6.67,-1.42 -13.07,-3.62 -17.99,-8.55 -3.5,-3.49 -5.43,-8.18 -6.49,-12.95 -0.9,-4.35 -0.02,-8.21 0.45,-12.51 -4.36,3.76 -4.65,8.75 -7.32,13.51 0.11,-7.14 3.32,-14.35 7.17,-20.25 3.68,-6.04 10.71,-9.77 17.18,-12.08 7.54,-1.95 16.67,-1.62 23.36,2.78 z m -37.56,28.56 c 0.27,1.04 0.61,2.04 1.03,3.02 0.53,1.12 0.98,2.26 1.45,3.41 4.02,6.79 11.15,11.62 19.24,11.31 5.08,0.37 9.05,-1.78 13.41,-4.01 1.77,-1.97 3.67,-3.82 5.66,-5.57 1.3,-2.72 2.44,-5.44 3.18,-8.37 -4.09,0.33 -8.12,1 -12.23,1.07 -1.48,1.52 -2.78,2.94 -4.97,3.33 -2.54,-0.05 -3.58,-1.81 -5.28,-3.32 -7.24,-0.12 -14.2,-1.56 -21.49,-0.87 z"
       id="p7" /><path
       d="m 163.02,82.23 c 8.1,-0.24 15.27,3.33 21.49,8.21 7.04,6.76 10.72,17.14 12.22,26.58 -3.43,-4.66 -3.6,-11.69 -8.18,-15.03 0.31,4.15 1.38,7.91 0.57,12.02 -1.1,5.44 -3.42,10.82 -7.66,14.56 -4.92,4.34 -10.8,6.26 -17.11,7.58 2.98,0.95 6,1.65 9.06,2.28 -6.49,0.73 -13.23,0.09 -19.29,-2.42 -3.13,-1.12 -4.79,-3.46 -8.19,-1.57 -1.2,3.18 -3.02,4.67 -5.87,6.42 1.68,-2.96 3.32,-5.9 4.69,-9.01 -2.1,-2.51 -4.39,-4.83 -6.75,-7.1 -4.5,0.34 -6.76,3.38 -10.33,5.84 2.63,-4 5.04,-6.86 9.11,-9.2 0.9,0.14 1.79,0.27 2.69,0.4 0.56,0.68 1.12,1.37 1.69,2.06 -1.12,-3.25 -2.4,-6.34 -2.8,-9.78 -0.46,-4.44 0.05,-9.22 0.34,-13.67 -1.09,1.44 -2.17,2.89 -3.26,4.34 0.88,-2.45 1.77,-4.89 2.49,-7.39 1.71,-2.64 3.46,-5.47 5.67,-7.73 5.21,-5.05 12.14,-7.76 19.42,-7.39 z m -21.14,33.13 c 0.85,2.55 1.89,5.01 3.02,7.45 1.99,1.72 3.83,3.54 5.56,5.52 3.19,1.57 6.05,3.24 9.6,3.88 5.76,0.52 11.32,0.17 16,-3.61 0.72,-0.4 1.44,-0.79 2.16,-1.18 3.66,-3.43 5.33,-7.79 7.79,-12 -2.95,-0.18 -5.89,-0.51 -8.84,-0.75 -1.96,2.1 -3.6,3.88 -6.58,4.37 -0.99,-0.63 -1.98,-1.24 -2.98,-1.84 -0.41,-0.59 -0.82,-1.17 -1.23,-1.75 -4.71,-0.03 -9.79,0.37 -14.38,-0.62 -3.48,-0.23 -6.68,-0.07 -10.12,0.53 z"
       id="p8" /><path
       d="m 68.29,114.65 c 7.29,-0.69 14.25,0.75 21.49,0.87 1.7,1.51 2.74,3.27 5.28,3.32 2.19,-0.39 3.49,-1.81 4.97,-3.33 4.11,-0.07 8.14,-0.74 12.23,-1.07 -0.74,2.93 -1.88,5.65 -3.18,8.37 -1.99,1.75 -3.89,3.6 -5.66,5.57 -4.36,2.23 -8.33,4.38 -13.41,4.01 -8.09,0.31 -15.22,-4.52 -19.24,-11.31 -0.47,-1.15 -0.92,-2.29 -1.45,-3.41 -0.42,-0.98 -0.76,-1.98 -1.03,-3.02 z"
       id="p9" /><path
       d="m 141.88,115.36 c 3.44,-0.6 6.64,-0.76 10.12,-0.53 4.59,0.99 9.67,0.59 14.38,0.62 0.41,0.58 0.82,1.16 1.23,1.75 1,0.6 1.99,1.21 2.98,1.84 2.98,-0.49 4.62,-2.27 6.58,-4.37 2.95,0.24 5.89,0.57 8.84,0.75 -2.46,4.21 -4.13,8.57 -7.79,12 -0.72,0.39 -1.44,0.78 -2.16,1.18 -4.68,3.78 -10.24,4.13 -16,3.61 -3.55,-0.64 -6.41,-2.31 -9.6,-3.88 -1.73,-1.98 -3.57,-3.8 -5.56,-5.52 -1.13,-2.44 -2.17,-4.9 -3.02,-7.45 z"
       id="p10" /><path
       d="m 117.26,131.34 c 4.45,2.36 6.21,6.47 9.7,9.84 3.63,-3.24 5.38,-7.45 9.75,-9.85 0.33,4.95 -3.45,8.82 -7.97,10.02 -2.8,0.75 -5.15,-0.71 -7.68,-1.69 -2.3,-2.68 -3.84,-4.46 -3.8,-8.32 z"
       id="p11" /><path
       d="m 129.01,147.49 c 3.82,0.5 5.84,5.14 8.93,7.26 -2.3,-0.58 -4.58,-1.14 -6.73,-2.14 l -0.04,-0.03 c -1.19,-1.52 -1.62,-3.28 -2.16,-5.09 z"
       id="p12" /><path
       d="m 131.17,152.58 0.04,0.03 -0.03,-0.01 z"
       id="p13" /><path
       d="m 137.94,168.77 c 4.95,-1.01 10.1,1.53 13.34,5.19 2.11,2.42 2.24,6.11 3.12,9.14 -1.92,-2.39 -3.95,-6.05 -6.9,-7.41 -5.04,-1.97 -10.69,-1.64 -14.83,2.09 -3.33,2.41 -3.94,5.75 -4.99,9.55 -0.34,-3.32 -1.27,-6.11 -0.03,-9.33 1.48,-4.9 5.67,-7.67 10.29,-9.23 z"
       id="p14" /><linearGradient
       inkscape:collect="always"
       xlink:href="#linearGradient2954"
       id="linearGradient2956"
       x1="4.6171875"
       y1="-39.890625"
       x2="39.140625"
       y2="-39.890625"
       gradientUnits="userSpaceOnUse"
       gradientTransform="matrix(1.7250871,0,0,1.7250871,115.51883,163.92629)" /></defs><path
     id="path498"
     style="fill:#ff0a0a;fill-opacity:0.74927115;stroke-width:1.72509"
     d="M 160.67871 32.34668 C 150.44949 32.34668 143.03812 34.846042 138.44238 39.839355 C 133.86013 44.839408 131.51456 51.821333 131.40674 60.783691 C 131.2787 69.395641 131.19111 78.519249 131.13721 88.168945 C 131.08331 97.818642 131.08331 107.46896 131.13721 117.11865 C 131.19112 126.75487 131.2787 135.87848 131.40674 144.50391 C 131.63585 154.71291 133.96765 162.03815 138.38818 166.47217 C 142.80871 170.89269 150.23386 173.10205 160.67871 173.10205 C 171.00901 173.10205 178.50328 170.89269 183.15967 166.47217 C 187.80931 162.03815 190.25536 154.71291 190.49121 144.50391 C 190.59904 140.58877 190.65234 136.62618 190.65234 132.6167 C 190.65234 128.59375 190.59903 124.68594 190.49121 120.89209 L 171.89209 120.89209 C 171.99991 124.79375 172.05469 129.24057 172.05469 134.23389 C 172.05469 139.23394 171.9999 143.7417 171.89209 147.76465 C 171.76405 154.43588 168.0238 157.76514 160.67871 157.76514 C 153.79185 157.76514 150.23498 154.43588 150.00586 147.76465 C 149.6622 133.17555 149.49316 118.13515 149.49316 102.64307 C 149.49316 87.137518 149.66219 72.090956 150.00586 57.495117 C 150.23498 50.95866 153.79185 47.683594 160.67871 47.683594 C 167.57905 47.683594 171.08407 50.95866 171.19189 57.495117 C 171.29969 61.396775 171.32636 65.763629 171.27246 70.595215 C 171.21866 75.413325 171.19189 79.719247 171.19189 83.506348 L 189.78955 83.506348 C 189.91084 80.420063 189.97852 76.632644 189.97852 72.158203 C 189.97852 67.670286 189.91084 63.876716 189.78955 60.783691 C 189.57392 50.669032 187.1888 43.397094 182.64697 38.976562 C 178.11863 34.556031 170.79337 32.34668 160.67871 32.34668 z M 204.09814 33.720703 C 203.62644 70.702221 203.62644 107.6302 204.09814 144.50391 C 204.20596 154.71291 206.52341 161.99714 211.05176 166.36377 C 215.59359 170.7304 223.10075 172.91455 233.55908 172.91455 C 243.88938 172.91455 251.32126 170.7304 255.84961 166.36377 C 260.39143 161.99714 262.72323 154.71291 262.83105 144.50391 C 263.29602 107.6302 263.29602 70.702221 262.83105 33.720703 L 244.2334 33.720703 C 244.46249 52.103645 244.5425 71.119535 244.4751 90.755859 C 244.42119 110.3787 244.34121 129.38171 244.2334 147.76465 C 244.2334 154.30785 240.67505 157.57617 233.55908 157.57617 C 226.31507 157.57617 222.6958 154.30785 222.6958 147.76465 C 222.45996 129.38171 222.3457 110.3787 222.3457 90.755859 C 222.3457 71.119535 222.45995 52.103645 222.6958 33.720703 L 204.09814 33.720703 z M 275.05957 33.720703 L 275.05957 50.270508 L 295.03271 50.270508 L 295.03271 171.53906 L 313.6582 171.53906 L 313.6582 50.270508 L 333.47021 50.270508 L 333.47021 33.720703 L 275.05957 33.720703 z M 345.33984 33.720703 L 345.33984 171.53906 L 394.61279 171.53906 L 394.61279 154.98926 L 364.12646 154.98926 L 364.12646 110.02881 L 392.88721 110.02881 L 392.88721 93.505371 L 364.12646 93.505371 L 364.12646 50.270508 L 394.61279 50.270508 L 394.61279 33.720703 L 345.33984 33.720703 z M 456.95215 33.720703 L 440.07861 171.53906 L 459.18896 171.53906 L 462.47754 137.0918 L 482.63965 137.0918 L 485.90186 171.53906 L 504.84961 171.53906 L 487.97607 33.720703 L 456.95215 33.720703 z M 516.21533 33.720703 L 516.21533 171.53906 L 535.00195 171.53906 L 535.00195 122.77881 L 543.25049 122.77881 C 553.601 122.77881 561.09382 120.60901 565.72998 116.25586 C 570.37963 111.88923 572.88045 104.76641 573.22412 94.880859 C 573.45323 89.260856 573.57422 83.895955 573.57422 78.788086 C 573.57422 73.666739 573.45323 67.952363 573.22412 61.64502 C 572.88045 51.766209 570.37963 44.638107 565.72998 40.271484 C 561.09382 35.904863 553.66193 33.720703 543.43945 33.720703 L 516.21533 33.720703 z M 585.46143 33.720703 L 585.46143 171.53906 L 634.73438 171.53906 L 634.73438 154.98926 L 604.24805 154.98926 L 604.24805 110.02881 L 633.00879 110.02881 L 633.00879 93.505371 L 604.24805 93.505371 L 604.24805 50.270508 L 634.73438 50.270508 L 634.73438 33.720703 L 585.46143 33.720703 z M 470.05225 50.270508 L 474.87744 50.270508 L 477.81445 90.405762 L 480.72656 120.72949 L 464.20312 120.72949 L 467.11377 90.405762 L 470.05225 50.270508 z M 535.00195 50.270508 L 543.43945 50.270508 C 550.55543 50.270508 554.28133 53.775532 554.625 60.783691 C 554.85412 66.282401 554.9751 72.103407 554.9751 78.249023 C 554.9751 84.39464 554.85412 90.231466 554.625 95.743652 C 554.28133 102.75181 550.48776 106.25537 543.25049 106.25537 L 535.00195 106.25537 L 535.00195 50.270508 z "
     inkscape:label="CUTEAPESOMBRA" /><path
     id="path560"
     style="fill:url(#linearGradient2956);fill-opacity:1;stroke:#000000;stroke-width:1.72509;stroke-opacity:1"
     d="M 153.06592 24.733887 C 142.8367 24.733887 135.42533 27.233249 130.82959 32.226562 C 126.24733 37.226615 123.90177 44.20854 123.79395 53.170898 C 123.66591 61.782848 123.57831 70.906456 123.52441 80.556152 C 123.47051 90.205849 123.47051 99.856166 123.52441 109.50586 C 123.57832 119.14208 123.66591 128.26569 123.79395 136.89111 C 124.02306 147.10011 126.35486 154.42536 130.77539 158.85938 C 135.19592 163.2799 142.62107 165.48926 153.06592 165.48926 C 163.39622 165.48926 170.89049 163.2799 175.54688 158.85938 C 180.19652 154.42536 182.64257 147.10011 182.87842 136.89111 C 182.98625 132.97598 183.03955 129.01338 183.03955 125.00391 C 183.03955 120.98096 182.98624 117.07314 182.87842 113.2793 L 164.2793 113.2793 C 164.38712 117.18095 164.44189 121.62778 164.44189 126.62109 C 164.44189 131.62115 164.38711 136.12891 164.2793 140.15186 C 164.15126 146.82309 160.41101 150.15234 153.06592 150.15234 C 146.17905 150.15234 142.62219 146.82309 142.39307 140.15186 C 142.04941 125.56276 141.88037 110.52235 141.88037 95.030273 C 141.88037 79.524721 142.0494 64.478163 142.39307 49.882324 C 142.62219 43.345867 146.17905 40.070801 153.06592 40.070801 C 159.96626 40.070801 163.47128 43.345867 163.5791 49.882324 C 163.6869 53.783982 163.71357 58.150836 163.65967 62.982422 C 163.60587 67.800532 163.5791 72.106454 163.5791 75.893555 L 182.17676 75.893555 C 182.29805 72.80727 182.36572 69.019851 182.36572 64.54541 C 182.36572 60.057493 182.29805 56.263923 182.17676 53.170898 C 181.96113 43.056239 179.57601 35.784301 175.03418 31.36377 C 170.50583 26.943238 163.18058 24.733887 153.06592 24.733887 z M 196.48535 26.10791 C 196.01364 63.089428 196.01364 100.01741 196.48535 136.89111 C 196.59317 147.10011 198.91062 154.38435 203.43896 158.75098 C 207.9808 163.1176 215.48796 165.30029 225.94629 165.30029 C 236.27659 165.30029 243.70847 163.1176 248.23682 158.75098 C 252.77864 154.38435 255.11044 147.10011 255.21826 136.89111 C 255.68323 100.01741 255.68323 63.089428 255.21826 26.10791 L 236.62061 26.10791 C 236.8497 44.490852 236.9297 63.506742 236.8623 83.143066 C 236.80839 102.76591 236.72842 121.76891 236.62061 140.15186 C 236.62061 146.69506 233.06226 149.96338 225.94629 149.96338 C 218.70228 149.96338 215.08301 146.69506 215.08301 140.15186 C 214.84717 121.76891 214.73291 102.76591 214.73291 83.143066 C 214.73291 63.506742 214.84716 44.490852 215.08301 26.10791 L 196.48535 26.10791 z M 267.44678 26.10791 L 267.44678 42.657715 L 287.41992 42.657715 L 287.41992 163.92627 L 306.04541 163.92627 L 306.04541 42.657715 L 325.85742 42.657715 L 325.85742 26.10791 L 267.44678 26.10791 z M 337.72705 26.10791 L 337.72705 163.92627 L 387 163.92627 L 387 147.37646 L 356.51367 147.37646 L 356.51367 102.41602 L 385.27441 102.41602 L 385.27441 85.892578 L 356.51367 85.892578 L 356.51367 42.657715 L 387 42.657715 L 387 26.10791 L 337.72705 26.10791 z M 449.33936 26.10791 L 432.46582 163.92627 L 451.57617 163.92627 L 454.86475 129.479 L 475.02686 129.479 L 478.28906 163.92627 L 497.23682 163.92627 L 480.36328 26.10791 L 449.33936 26.10791 z M 508.60254 26.10791 L 508.60254 163.92627 L 527.38916 163.92627 L 527.38916 115.16602 L 535.6377 115.16602 C 545.9882 115.16602 553.48102 112.99621 558.11719 108.64307 C 562.76683 104.27644 565.26766 97.153615 565.61133 87.268066 C 565.84044 81.648063 565.96143 76.283162 565.96143 71.175293 C 565.96143 66.053946 565.84044 60.33957 565.61133 54.032227 C 565.26766 44.153416 562.76683 37.023849 558.11719 32.657227 C 553.48102 28.290605 546.04914 26.10791 535.82666 26.10791 L 508.60254 26.10791 z M 577.84863 26.10791 L 577.84863 163.92627 L 627.12158 163.92627 L 627.12158 147.37646 L 596.63525 147.37646 L 596.63525 102.41602 L 625.396 102.41602 L 625.396 85.892578 L 596.63525 85.892578 L 596.63525 42.657715 L 627.12158 42.657715 L 627.12158 26.10791 L 577.84863 26.10791 z M 462.43945 42.657715 L 467.26465 42.657715 L 470.20166 82.792969 L 473.11377 113.1167 L 456.59033 113.1167 L 459.50098 82.792969 L 462.43945 42.657715 z M 527.38916 42.657715 L 535.82666 42.657715 C 542.94263 42.657715 546.66854 46.162739 547.01221 53.170898 C 547.24133 58.669608 547.3623 64.490614 547.3623 70.63623 C 547.3623 76.781847 547.24133 82.618673 547.01221 88.130859 C 546.66854 95.139018 542.87497 98.642578 535.6377 98.642578 L 527.38916 98.642578 L 527.38916 42.657715 z "
     inkscape:label="CUTEAPE" /><path
     id="path622"
     style="fill:#ff0808;fill-opacity:0.74927115;stroke-width:1.72509"
     d="M 251.12109 204.17578 C 240.78405 204.17578 233.34456 206.35848 228.80273 210.7251 C 224.27439 215.09172 221.88781 222.32938 221.65869 232.42383 C 221.07917 260.45646 221.07917 288.42841 221.65869 316.33301 C 221.88781 326.54201 224.27439 333.82625 228.80273 338.19287 C 233.34456 342.5595 240.78405 344.74365 251.12109 344.74365 C 261.45138 344.74365 268.85662 342.5595 273.33105 338.19287 C 277.81897 333.82625 280.23836 326.54201 280.58203 316.33301 C 281.26263 288.53623 281.26263 260.56428 280.58203 232.42383 C 280.23836 222.32938 277.81897 215.09172 273.33105 210.7251 C 268.85662 206.35848 261.45138 204.17578 251.12109 204.17578 z M 445.76074 204.17578 C 435.53152 204.17578 428.11868 206.67514 423.52295 211.66846 C 418.94069 216.66851 416.59659 223.65043 416.48877 232.61279 C 416.36073 241.22473 416.27314 250.34836 416.21924 259.99805 C 416.16534 269.64775 416.16534 279.29806 416.21924 288.94775 C 416.27315 298.58397 416.36073 307.70759 416.48877 316.33301 C 416.71788 326.54201 419.04968 333.86725 423.47021 338.30127 C 427.89074 342.7218 435.31589 344.93262 445.76074 344.93262 C 456.09104 344.93262 463.58531 342.7218 468.2417 338.30127 C 472.89134 333.86725 475.33739 326.54201 475.57324 316.33301 C 475.68107 312.41787 475.73438 308.45528 475.73438 304.4458 C 475.73437 300.42285 475.68106 296.51504 475.57324 292.72119 L 456.97412 292.72119 C 457.08194 296.62285 457.13525 301.06967 457.13525 306.06299 C 457.13525 311.06304 457.08193 315.57227 456.97412 319.59521 C 456.84608 326.26645 453.10583 329.59424 445.76074 329.59424 C 438.87388 329.59424 435.31555 326.26645 435.08643 319.59521 C 434.74277 305.00612 434.5752 289.96572 434.5752 274.47363 C 434.5752 258.96809 434.74276 243.92005 435.08643 229.32422 C 435.31555 222.78777 438.87388 219.5127 445.76074 219.5127 C 452.66109 219.5127 456.16611 222.78777 456.27393 229.32422 C 456.38173 233.22587 456.40839 237.59273 456.35449 242.42432 C 456.30069 247.24242 456.27393 251.54834 456.27393 255.33545 L 474.87158 255.33545 C 474.99287 252.24916 475.06055 248.46175 475.06055 243.9873 C 475.06055 239.49939 474.99287 235.70581 474.87158 232.61279 C 474.65595 222.49813 472.27083 215.22765 467.729 210.80713 C 463.20066 206.38659 455.8754 204.17578 445.76074 204.17578 z M 79.554199 205.5498 L 79.554199 222.10107 L 99.527344 222.10107 L 99.527344 343.36816 L 118.15283 343.36816 L 118.15283 222.10107 L 137.96484 222.10107 L 137.96484 205.5498 L 79.554199 205.5498 z M 149.83447 205.5498 L 149.83447 343.36816 L 168.62109 343.36816 L 168.62109 293.74512 L 176.5459 293.74512 L 189.2959 343.36816 L 209.08008 343.36816 L 194.09326 290.64551 C 202.13917 286.9797 206.39177 278.71793 206.84326 265.84717 C 207.07237 260.22716 207.19336 255.00464 207.19336 250.18652 C 207.19336 245.35494 207.07237 239.78293 206.84326 233.47559 C 206.49959 223.59678 203.99877 216.46721 199.34912 212.10059 C 194.71296 207.73397 187.28107 205.5498 177.05859 205.5498 L 149.83447 205.5498 z M 296.93848 205.5498 L 296.93848 343.36816 L 315.0249 343.36816 L 313.48828 290.83447 L 310.55127 221.91211 L 314.86377 221.91211 L 323.97363 296.1709 L 333.27393 343.36816 L 363.43506 343.36816 L 363.43506 205.5498 L 345.34863 205.5498 L 346.72412 259.29785 L 349.98486 326.81836 L 346.02246 326.81836 L 334.83691 249.32373 L 325.88818 205.5498 L 296.93848 205.5498 z M 488.82861 205.5498 L 488.82861 343.36816 L 538.26416 343.36816 L 538.26416 326.81836 L 507.6167 326.81836 L 507.6167 205.5498 L 488.82861 205.5498 z M 550.50146 205.5498 C 550.02976 242.53133 550.02976 279.4593 550.50146 316.33301 C 550.60928 326.54201 552.9282 333.82625 557.45654 338.19287 C 561.99838 342.5595 569.50407 344.74365 579.9624 344.74365 C 590.2927 344.74365 597.72605 342.5595 602.25439 338.19287 C 606.79622 333.82625 609.12802 326.54201 609.23584 316.33301 C 609.70081 279.4593 609.70081 242.53133 609.23584 205.5498 L 590.63672 205.5498 C 590.86581 223.93275 590.94728 242.9501 590.87988 262.58643 C 590.82597 282.20927 590.74453 301.21227 590.63672 319.59521 C 590.63672 326.13842 587.07838 329.40674 579.9624 329.40674 C 572.71839 329.40674 569.10059 326.13842 569.10059 319.59521 C 568.86475 301.21227 568.75049 282.20927 568.75049 262.58643 C 568.75049 242.9501 568.86474 223.93275 569.10059 205.5498 L 550.50146 205.5498 z M 625.42676 205.5498 L 625.42676 343.36816 L 651.78809 343.36816 C 662.11838 343.36816 669.55026 341.18547 674.07861 336.81885 C 678.62044 332.45222 681.12127 325.33554 681.57275 315.47021 C 681.80187 308.91354 681.80187 302.41732 681.57275 295.98193 C 681.35712 290.36193 680.21143 285.9151 678.14941 282.64014 C 676.08067 279.37191 672.86564 277.04685 668.49902 275.65869 L 668.49902 272.04639 C 672.73761 270.55716 675.86503 268.20544 677.87988 264.98438 C 679.88799 261.77006 681.06649 257.40468 681.41016 251.88574 C 681.51798 249.13639 681.57275 246.29897 681.57275 243.36768 L 681.57275 233.47559 C 681.46494 223.59678 679.02503 216.46721 674.26758 212.10059 C 669.50337 207.73397 661.94964 205.5498 651.59912 205.5498 L 625.42676 205.5498 z M 251.12109 219.5127 C 258.12925 219.5127 261.74705 222.73445 261.98291 229.16309 C 262.19854 238.58368 262.35995 248.45487 262.46777 258.78516 C 262.58908 269.1222 262.63007 279.46003 262.57617 289.81055 C 262.52226 300.14758 262.31984 310.07355 261.98291 319.59521 C 261.74705 326.13842 258.12925 329.40674 251.12109 329.40674 C 244.00511 329.40674 240.3791 326.13842 240.25781 319.59521 C 239.91414 310.07355 239.67891 300.14758 239.55762 289.81055 C 239.4498 279.46003 239.4498 269.1222 239.55762 258.78516 C 239.67892 248.45487 239.91414 238.58368 240.25781 229.16309 C 240.37911 222.73445 244.00511 219.5127 251.12109 219.5127 z M 168.62109 222.10107 L 177.05859 222.10107 C 184.17457 222.10107 187.90047 225.60463 188.24414 232.61279 C 188.81692 243.97409 188.81692 255.3885 188.24414 266.87109 C 187.90047 273.77144 184.1069 277.22168 176.86963 277.22168 L 168.62109 277.22168 L 168.62109 222.10107 z M 644.21338 222.10107 L 651.59912 222.10107 C 659.07225 222.10107 662.86581 225.60463 662.97363 232.61279 C 663.09492 238.81232 663.09492 245.0657 662.97363 251.37305 C 662.86581 260.68581 659.07225 265.33594 651.59912 265.33594 L 644.21338 265.33594 L 644.21338 222.10107 z M 644.21338 281.85791 L 651.43652 281.85791 C 655.45947 281.85791 658.36456 283.01121 660.14355 285.30908 C 661.92254 287.61369 662.86581 291.45383 662.97363 296.84473 C 663.09492 302.93643 663.09492 309.08318 662.97363 315.28271 C 662.86581 322.97821 659.13317 326.81836 651.78809 326.81836 L 644.21338 326.81836 L 644.21338 281.85791 z "
     inkscape:label="TRONCLUBSOMBRA" /><path
     id="path692"
     style="fill:#ffffff;fill-opacity:1;stroke:#000000;stroke-width:1.72509;stroke-opacity:1"
     d="M 243.5083 196.56299 C 233.17126 196.56299 225.73177 198.74569 221.18994 203.1123 C 216.6616 207.47893 214.27502 214.71659 214.0459 224.81104 C 213.46638 252.84367 213.46638 280.81561 214.0459 308.72021 C 214.27502 318.92921 216.6616 326.21345 221.18994 330.58008 C 225.73177 334.9467 233.17126 337.13086 243.5083 337.13086 C 253.83859 337.13086 261.24383 334.9467 265.71826 330.58008 C 270.20618 326.21345 272.62557 318.92921 272.96924 308.72021 C 273.64984 280.92343 273.64984 252.95149 272.96924 224.81104 C 272.62557 214.71659 270.20618 207.47893 265.71826 203.1123 C 261.24383 198.74569 253.83859 196.56299 243.5083 196.56299 z M 438.14795 196.56299 C 427.91873 196.56299 420.50589 199.06235 415.91016 204.05566 C 411.3279 209.05572 408.9838 216.03764 408.87598 225 C 408.74794 233.61194 408.66035 242.73556 408.60645 252.38525 C 408.55255 262.03495 408.55255 271.68527 408.60645 281.33496 C 408.66036 290.97118 408.74794 300.09479 408.87598 308.72021 C 409.10509 318.92921 411.43689 326.25446 415.85742 330.68848 C 420.27795 335.109 427.7031 337.31982 438.14795 337.31982 C 448.47825 337.31982 455.97252 335.109 460.62891 330.68848 C 465.27855 326.25446 467.7246 318.92921 467.96045 308.72021 C 468.06828 304.80508 468.12158 300.84248 468.12158 296.83301 C 468.12158 292.81006 468.06827 288.90224 467.96045 285.1084 L 449.36133 285.1084 C 449.46915 289.01005 449.52246 293.45688 449.52246 298.4502 C 449.52246 303.45025 449.46914 307.95948 449.36133 311.98242 C 449.23329 318.65366 445.49304 321.98145 438.14795 321.98145 C 431.26109 321.98145 427.70275 318.65366 427.47363 311.98242 C 427.12997 297.39333 426.9624 282.35146 426.9624 266.85938 C 426.9624 251.35383 427.12996 236.30726 427.47363 221.71143 C 427.70275 215.17497 431.26109 211.8999 438.14795 211.8999 C 445.04829 211.8999 448.55331 215.17497 448.66113 221.71143 C 448.76893 225.61308 448.7956 229.97994 448.7417 234.81152 C 448.6879 239.62963 448.66113 243.93555 448.66113 247.72266 L 467.25879 247.72266 C 467.38008 244.63637 467.44775 240.84896 467.44775 236.37451 C 467.44775 231.8866 467.38008 228.09302 467.25879 225 C 467.04316 214.88534 464.65804 207.6134 460.11621 203.19287 C 455.58787 198.77234 448.26261 196.56299 438.14795 196.56299 z M 71.941406 197.93701 L 71.941406 214.48682 L 91.914551 214.48682 L 91.914551 335.75537 L 110.54004 335.75537 L 110.54004 214.48682 L 130.35205 214.48682 L 130.35205 197.93701 L 71.941406 197.93701 z M 142.22168 197.93701 L 142.22168 335.75537 L 161.0083 335.75537 L 161.0083 286.13232 L 168.93311 286.13232 L 181.68311 335.75537 L 201.46729 335.75537 L 186.48047 283.03271 C 194.52638 279.36691 198.77898 271.10513 199.23047 258.23438 C 199.45958 252.61437 199.58057 247.39185 199.58057 242.57373 C 199.58057 237.74215 199.45958 232.17014 199.23047 225.86279 C 198.8868 215.98398 196.38597 208.85442 191.73633 204.48779 C 187.10016 200.12118 179.66828 197.93701 169.4458 197.93701 L 142.22168 197.93701 z M 289.32568 197.93701 L 289.32568 335.75537 L 307.41211 335.75537 L 305.87549 283.22168 L 302.93848 214.29932 L 307.25098 214.29932 L 316.36084 288.55811 L 325.66113 335.75537 L 355.82227 335.75537 L 355.82227 197.93701 L 337.73584 197.93701 L 339.11133 251.68506 L 342.37207 319.20557 L 338.40967 319.20557 L 327.22412 241.71094 L 318.27539 197.93701 L 289.32568 197.93701 z M 481.21582 197.93701 L 481.21582 335.75537 L 530.65137 335.75537 L 530.65137 319.20557 L 500.00391 319.20557 L 500.00391 197.93701 L 481.21582 197.93701 z M 542.88867 197.93701 C 542.41696 234.91853 542.41696 271.84651 542.88867 308.72021 C 542.99649 318.92921 545.3154 326.21345 549.84375 330.58008 C 554.38559 334.9467 561.89128 337.13086 572.34961 337.13086 C 582.67991 337.13086 590.11326 334.9467 594.6416 330.58008 C 599.18343 326.21345 601.51523 318.92921 601.62305 308.72021 C 602.08802 271.84651 602.08802 234.91853 601.62305 197.93701 L 583.02393 197.93701 C 583.25302 216.31995 583.33449 235.3373 583.26709 254.97363 C 583.21318 274.59647 583.13174 293.59948 583.02393 311.98242 C 583.02393 318.52563 579.46558 321.79395 572.34961 321.79395 C 565.1056 321.79395 561.48779 318.52563 561.48779 311.98242 C 561.25195 293.59948 561.1377 274.59647 561.1377 254.97363 C 561.1377 235.3373 561.25194 216.31995 561.48779 197.93701 L 542.88867 197.93701 z M 617.81396 197.93701 L 617.81396 335.75537 L 644.17529 335.75537 C 654.50558 335.75537 661.93746 333.57268 666.46582 329.20605 C 671.00765 324.83943 673.50848 317.72275 673.95996 307.85742 C 674.18908 301.30075 674.18908 294.80452 673.95996 288.36914 C 673.74433 282.74914 672.59864 278.30231 670.53662 275.02734 C 668.46787 271.75912 665.25285 269.43406 660.88623 268.0459 L 660.88623 264.43359 C 665.12482 262.94437 668.25224 260.59265 670.26709 257.37158 C 672.2752 254.15727 673.45369 249.79188 673.79736 244.27295 C 673.90518 241.5236 673.95996 238.68618 673.95996 235.75488 L 673.95996 225.86279 C 673.85215 215.98398 671.41224 208.85442 666.65479 204.48779 C 661.89058 200.12118 654.33685 197.93701 643.98633 197.93701 L 617.81396 197.93701 z M 243.5083 211.8999 C 250.51645 211.8999 254.13426 215.12166 254.37012 221.55029 C 254.58575 230.97088 254.74716 240.84207 254.85498 251.17236 C 254.97629 261.5094 255.01728 271.84723 254.96338 282.19775 C 254.90947 292.53478 254.70705 302.46076 254.37012 311.98242 C 254.13426 318.52563 250.51645 321.79395 243.5083 321.79395 C 236.39232 321.79395 232.76631 318.52563 232.64502 311.98242 C 232.30135 302.46076 232.06611 292.53478 231.94482 282.19775 C 231.837 271.84723 231.837 261.5094 231.94482 251.17236 C 232.06612 240.84207 232.30135 230.97088 232.64502 221.55029 C 232.76632 215.12166 236.39232 211.8999 243.5083 211.8999 z M 161.0083 214.48682 L 169.4458 214.48682 C 176.56177 214.48682 180.28768 217.99184 180.63135 225 C 181.20413 236.3613 181.20413 247.7757 180.63135 259.2583 C 180.28768 266.15864 176.49411 269.60889 169.25684 269.60889 L 161.0083 269.60889 L 161.0083 214.48682 z M 636.60059 214.48682 L 643.98633 214.48682 C 651.45946 214.48682 655.25302 217.99184 655.36084 225 C 655.48213 231.19952 655.48213 237.45291 655.36084 243.76025 C 655.25302 253.07301 651.45946 257.72314 643.98633 257.72314 L 636.60059 257.72314 L 636.60059 214.48682 z M 636.60059 274.24512 L 643.82373 274.24512 C 647.84668 274.24512 650.75176 275.39842 652.53076 277.69629 C 654.30975 280.0009 655.25302 283.84104 655.36084 289.23193 C 655.48213 295.32364 655.48213 301.47039 655.36084 307.66992 C 655.25302 315.36541 651.52038 319.20557 644.17529 319.20557 L 636.60059 319.20557 L 636.60059 274.24512 z "
     inkscape:label="TRONCLUB" /><g
     id="moneda"
     inkscape:label="moneda"><circle
       style="fill:#000000;fill-opacity:1;stroke-width:0.772728;paint-order:stroke fill markers"
       id="path10520"
       cx="876.10535"
       cy="186.67618"
       r="162.28099" /><path
       d="m 853.02212,29.93515 c 25.01657,-3.728827 50.84012,-1.238305 74.72969,7.01243 25.86524,8.960326 49.3931,24.766115 67.41113,45.358168 19.13116,21.774702 32.16806,48.766982 37.06566,77.345412 8.8769,49.03132 -7.0263,101.12368 -41.69886,136.8815 -19.31201,20.28594 -44.10598,35.28477 -71.04259,42.9511 -29.64978,8.5012 -61.83181,8.06988 -91.21722,-1.26611 -24.98874,-7.83332 -48.00175,-22.09472 -66.14502,-40.97539 -21.4686,-21.89992 -36.27261,-50.33924 -41.97717,-80.46204 -4.68886,-24.29308 -3.54795,-49.64356 3.25577,-73.4079 8.80728,-31.06896 27.43752,-59.17433 52.50973,-79.502024 22.05298,-17.976303 48.94787,-29.900215 77.10888,-33.935146 z m 5.56543,20.912065 c -44.28682,5.273234 -84.3161,33.503824 -104.58815,73.157435 -21.0512,40.32145 -20.11899,90.74416 2.39313,130.25864 14.77619,26.2966 38.34574,47.36171 66.1311,59.06302 37.58052,15.931 82.243,14.02485 118.18168,-5.41236 25.00264,-13.38487 45.67817,-34.60302 58.18647,-60.07871 18.33802,-36.52307 18.92242,-81.11601 1.78092,-118.1956 C 988.86011,103.85783 968.81068,81.916169 944.18368,67.849573 918.45756,52.975988 888.04254,47.146213 858.58755,50.847215 Z"
       id="use904"
       style="fill:#f7931e;stroke-width:1.39137" /><path
       d="m 857.74542,49.474131 c 28.57221,-3.904278 58.16486,1.449315 83.57224,15.099497 37.38642,19.802378 64.45014,57.129632 71.37134,98.908362 5.0135,29.62223 0.2071,60.69377 -13.82761,87.28427 -18.85589,36.26245 -54.1127,63.05999 -94.14633,71.32701 -23.81018,4.90992 -49.0253,3.63807 -72.11082,-4.08175 -25.76232,-8.60716 -49.0253,-24.9785 -65.63327,-46.51118 -15.27697,-19.5066 -25.11161,-43.2872 -28.09897,-67.89598 -2.75074,-22.99679 0.10352,-46.58513 8.75505,-68.10302 8.91772,-22.5827 23.98764,-42.370288 42.93226,-57.484574 19.34392,-15.262176 42.74001,-25.289071 67.18611,-28.542635 z M 812.23988,225.21099 c -6.22614,17.8946 -5.94515,37.60825 2.32186,54.80777 11.12128,24.20948 36.48429,40.41815 63.16352,40.15195 26.0581,0.5324 50.69646,-14.65583 62.63112,-37.6822 9.25787,-17.64319 10.0269,-38.59911 3.46061,-57.29231 17.65798,-2.85427 33.73355,-11.90509 44.78088,-26.04331 14.18263,-17.73193 18.51573,-42.00056 12.11213,-63.71071 C 995.56346,117.82857 982.91892,102.50723 966.7842,93.826132 951.5516,85.514753 932.71051,83.680926 915.79197,86.535189 901.71291,88.797896 890.65079,96.325461 878.10978,102.6847 868.15683,97.745198 858.5736,91.519059 848.05867,88.369017 835.54724,84.583051 822.5034,84.59784 809.6814,86.697868 c -22.86369,3.993011 -42.76959,20.172102 -51.68731,41.542102 -9.99732,23.35172 -6.27051,51.64295 9.86421,71.32701 11.10649,13.91638 26.8567,22.76016 44.38158,25.64401 z"
       id="use908"
       style="fill:#ff0202;stroke-width:1.47889;fill-opacity:0.75510198" /><path
       d="m 848.05867,88.369017 c 10.51493,3.150042 20.09816,9.376181 30.05111,14.315683 12.54101,-6.359239 23.60313,-13.886804 37.68219,-16.149511 16.91854,-2.854263 35.75963,-1.020436 50.99223,7.290943 16.13472,8.681098 28.77926,24.002438 33.9258,41.616048 6.4036,21.71015 2.0705,45.97878 -12.11213,63.71071 -11.04733,14.13822 -27.1229,23.18904 -44.78088,26.04331 6.56629,18.6932 5.79726,39.64912 -3.46061,57.29231 -11.93466,23.02637 -36.57302,38.2146 -62.63112,37.6822 -26.67923,0.2662 -52.04224,-15.94247 -63.16352,-40.15195 -8.26701,-17.19952 -8.548,-36.91317 -2.32186,-54.80777 -17.52488,-2.88385 -33.27509,-11.72763 -44.38158,-25.64401 -16.13472,-19.68406 -19.86153,-47.97529 -9.86421,-71.32701 8.91772,-21.37 28.82362,-37.549091 51.68731,-41.542102 12.822,-2.100028 25.86584,-2.114817 38.37727,1.671149 z M 816.32163,221.52854 c -1.86341,7.30573 -3.65287,14.74457 -4.83598,22.1834 -0.36973,4.99866 1.25706,10.07126 1.58241,15.08471 1.95214,7.85292 4.46626,16.09035 8.76984,23.02636 7.3501,11.6241 17.82066,21.45874 30.50956,26.97501 17.39178,7.77898 38.08149,7.06911 54.95566,-1.70073 20.73408,-10.64803 34.84272,-32.74269 34.78357,-56.18314 0.38451,-10.20437 -2.48454,-19.52139 -5.70853,-29.04546 1.41974,-0.54719 2.85426,-1.09438 4.274,-1.65636 16.50445,-3.22399 31.57437,-10.63324 42.29634,-23.85455 13.96075,-16.65233 18.3383,-40.09279 11.43184,-60.69377 -7.6163,-23.72144 -29.6518,-41.556888 -54.51199,-43.790017 -14.15301,-1.922561 -27.80319,0.842969 -41.15759,5.383171 -8.03039,2.913416 -14.47837,7.734606 -22.21298,11.579736 -12.9551,-7.58673 -26.41303,-15.439647 -41.63084,-17.022063 -14.52272,-1.611993 -30.52435,0.458457 -43.36114,7.823344 -15.41006,8.607159 -27.24121,23.810179 -31.23422,41.054069 -3.99301,16.57839 -1.21269,35.15329 7.97124,49.58728 4.62893,6.24093 9.31702,13.14736 15.43964,17.99813 9.70154,6.93601 21.22211,10.41141 32.63917,13.25088 z"
       id="use910"
       style="fill:none;stroke-width:1.47889" /><path
       d="m 834.86694,91.814837 c 15.21781,1.582416 28.67574,9.435333 41.63084,17.022063 7.73461,-3.84513 14.18259,-8.66632 22.21298,-11.579736 13.3544,-4.540202 27.00458,-7.305732 41.15759,-5.383171 24.86019,2.233129 46.89569,20.068577 54.51199,43.790017 6.90646,20.60098 2.52891,44.04144 -11.43184,60.69377 -10.72197,13.22131 -25.79189,20.63056 -42.29634,23.85455 -1.41974,0.56198 -2.85426,1.10917 -4.274,1.65636 3.22399,9.52407 6.09304,18.84109 5.70853,29.04546 0.0592,23.44045 -14.04949,45.53511 -34.78357,56.18314 -16.87417,8.76984 -37.56388,9.47971 -54.95566,1.70073 -12.6889,-5.51627 -23.15946,-15.35091 -30.50956,-26.97501 -4.30358,-6.93601 -6.8177,-15.17344 -8.76984,-23.02636 -0.32535,-5.01345 -1.95214,-10.08605 -1.58241,-15.08471 1.18311,-7.43883 2.97257,-14.87767 4.83598,-22.1834 -11.41706,-2.83947 -22.93763,-6.31487 -32.63917,-13.25088 -6.12262,-4.85077 -10.81071,-11.7572 -15.43964,-17.99813 -9.18393,-14.43399 -11.96425,-33.00889 -7.97124,-49.58728 3.99301,-17.24389 15.82416,-32.44691 31.23422,-41.054069 12.83679,-7.364887 28.83842,-9.435337 43.36114,-7.823344 z M 774.4098,161.64816 c 3.94864,-7.03953 4.37752,-14.4192 10.8255,-19.97984 -0.69508,6.35924 -1.99651,12.06777 -0.66551,18.50095 1.56763,7.05432 4.42189,13.99033 9.59802,19.15167 7.27615,7.29094 16.74107,10.5445 26.60528,12.64453 -4.37752,1.47889 -8.84378,2.49933 -13.36919,3.40146 11.8903,1.34579 23.15947,-0.44367 33.76313,-6.0191 2.82468,-1.78946 4.8064,-0.6655 7.7494,0.0148 0.0444,1.16833 0.0887,2.33665 0.14789,3.50498 2.60285,2.04087 5.26486,4.03737 7.92686,6.0043 -2.57327,-4.12611 -4.73245,-8.19307 -6.55149,-12.70369 1.05001,-1.64157 2.07045,-3.31272 3.0761,-4.98387 2.662,-2.02608 5.61979,-6.59586 9.33181,-5.64937 4.02259,0.65071 7.36489,4.9395 10.4262,7.32052 -1.70073,-6.72896 -8.20786,-12.48186 -15.32134,-12.64453 -0.87254,1.22748 -1.74509,2.44017 -2.63242,3.65286 1.74509,-5.36838 3.81554,-10.27831 4.22963,-15.98683 0.42888,-6.30009 -0.20705,-12.5558 -0.60635,-18.81152 1.70073,2.24792 3.41625,4.48104 5.16134,6.6846 -3.53455,-11.0917 -8.71068,-21.75452 -19.13688,-27.80319 -9.89379,-6.50713 -23.39608,-6.99517 -34.54694,-4.11133 -9.56843,3.41625 -19.96505,8.93252 -25.40738,17.86503 -5.69374,8.72547 -10.44098,19.38829 -10.60366,29.94758 z m 118.00087,-27.04895 c -1.0648,3.69723 -2.38102,7.30573 -3.68244,10.92902 1.61199,-2.14439 3.2092,-4.28879 4.82119,-6.41839 -0.42888,6.58107 -1.18312,13.65018 -0.50282,20.21646 0.59155,5.08739 2.48454,9.65717 4.1409,14.46358 -0.84297,-1.02044 -1.67115,-2.04088 -2.49933,-3.04652 -1.33101,-0.19226 -2.64722,-0.38452 -3.97823,-0.59156 -6.01909,3.46061 -9.58322,7.69024 -13.47271,13.60582 5.27965,-3.63808 8.62195,-8.13392 15.27696,-8.63674 3.49019,3.35709 6.87686,6.78812 9.98253,10.50014 -2.02608,4.59936 -4.45147,8.9473 -6.93601,13.32483 4.21485,-2.58807 6.90643,-4.79162 8.68111,-9.4945 5.02823,-2.7951 7.48319,0.66551 12.11213,2.32187 8.96209,3.71202 18.92983,4.65851 28.52785,3.57892 -4.52542,-0.93171 -8.99167,-1.96693 -13.39878,-3.37188 9.33182,-1.95214 18.02771,-4.79161 25.30386,-11.21001 6.27051,-5.53106 9.70154,-13.4875 11.32832,-21.53268 1.19791,-6.07825 -0.38451,-11.63889 -0.84296,-17.77629 6.77333,4.9395 7.02474,15.33612 12.09734,22.22776 -2.21834,-13.96075 -7.66067,-29.31166 -18.07207,-39.30898 -9.19872,-7.217 -19.80238,-12.49664 -31.78141,-12.14171 -10.76634,-0.54719 -21.01507,3.46061 -28.72011,10.92902 -3.26835,3.3423 -5.85641,7.52756 -8.38532,11.43184 z m -30.56872,50.26758 c -0.0592,5.70852 2.21834,8.34095 5.6198,12.30438 3.7416,1.44932 7.21699,3.6085 11.35789,2.49933 6.6846,-1.77467 12.27482,-7.49798 11.78678,-14.8185 -6.46276,3.54934 -9.05082,9.77548 -14.4192,14.56709 -5.16134,-4.98387 -7.76419,-11.06212 -14.34527,-14.5523 z m 17.377,23.88412 c 0.7986,2.67679 1.43452,5.27964 3.1944,7.52756 l 0.0148,0.0296 0.0444,0.0148 c 3.17962,1.47889 6.5515,2.30707 9.95295,3.16483 -4.56978,-3.13525 -7.55714,-9.99732 -13.20651,-10.73676 z M 877.25202,267.67 c 1.55284,-5.61979 2.45496,-10.55929 7.37967,-14.12342 6.12262,-5.51627 14.47837,-6.00431 21.93199,-3.09089 4.36273,2.01129 7.36488,7.42404 10.20436,10.9586 -1.30143,-4.48105 -1.49368,-9.93816 -4.61415,-13.51709 -4.79161,-5.41274 -12.40791,-9.16913 -19.72843,-7.67545 -6.83249,2.30707 -13.02905,6.40361 -15.21781,13.65018 -1.83383,4.76204 -0.45846,8.88815 0.0444,13.79807 z"
       id="use912"
       style="fill:#f7931e;stroke-width:1.47889" /><path
       d="m 844.96778,117.94688 c 10.4262,6.04867 15.60233,16.71149 19.13688,27.80319 -1.74509,-2.20356 -3.46061,-4.43668 -5.16134,-6.6846 0.3993,6.25572 1.03523,12.51143 0.60635,18.81152 -0.41409,5.70852 -2.48454,10.61845 -4.22963,15.98683 0.88733,-1.21269 1.75988,-2.42538 2.63242,-3.65286 7.11348,0.16267 13.62061,5.91557 15.32134,12.64453 -3.06131,-2.38102 -6.40361,-6.66981 -10.4262,-7.32052 -3.71202,-0.94649 -6.66981,3.62329 -9.33181,5.64937 -1.00565,1.67115 -2.02609,3.3423 -3.0761,4.98387 1.81904,4.51062 3.97822,8.57758 6.55149,12.70369 -2.662,-1.96693 -5.32401,-3.96343 -7.92686,-6.0043 -0.0592,-1.16833 -0.10352,-2.33665 -0.14789,-3.50498 -2.943,-0.68029 -4.92472,-1.80425 -7.7494,-0.0148 -10.60366,5.57543 -21.87283,7.36489 -33.76313,6.0191 4.52541,-0.90213 8.99167,-1.92257 13.36919,-3.40146 -9.86421,-2.10003 -19.32913,-5.35359 -26.60528,-12.64453 -5.17613,-5.16134 -8.03039,-12.09735 -9.59802,-19.15167 -1.331,-6.43318 -0.0296,-12.14171 0.66551,-18.50095 -6.44798,5.56064 -6.87686,12.94031 -10.8255,19.97984 0.16268,-10.55929 4.90992,-21.22211 10.60366,-29.94758 5.44233,-8.93251 15.83895,-14.44878 25.40738,-17.86503 11.15086,-2.88384 24.65315,-2.3958 34.54694,4.11133 z m -55.54722,42.23718 c 0.3993,1.53805 0.90213,3.01694 1.52326,4.46626 0.78382,1.65636 1.44932,3.3423 2.1444,5.04302 5.94515,10.04169 16.48965,17.18474 28.4539,16.72628 7.51278,0.54719 13.38398,-2.63243 19.83195,-5.93036 2.61764,-2.91342 5.42754,-5.64937 8.37054,-8.23743 1.92256,-4.02259 3.6085,-8.04518 4.70288,-12.37834 -6.04867,0.48804 -12.00861,1.4789 -18.08686,1.58242 -2.18876,2.24792 -4.11133,4.34794 -7.3501,4.92471 -3.75639,-0.0739 -5.29444,-2.67679 -7.80856,-4.90992 -10.70718,-0.17747 -21.00028,-2.30708 -31.78141,-1.28664 z"
       id="use914"
       style="fill:#0b0f1d;stroke-width:1.47889" /><path
       d="m 929.5161,112.23835 c 11.97903,-0.35493 22.58269,4.92471 31.78141,12.14171 10.4114,9.99732 15.85373,25.34823 18.07207,39.30898 -5.0726,-6.89164 -5.32401,-17.28826 -12.09734,-22.22776 0.45845,6.1374 2.04087,11.69804 0.84296,17.77629 -1.62678,8.04518 -5.05781,16.00162 -11.32832,21.53268 -7.27615,6.4184 -15.97204,9.25787 -25.30386,11.21001 4.40711,1.40495 8.87336,2.44017 13.39878,3.37188 -9.59802,1.07959 -19.56576,0.1331 -28.52785,-3.57892 -4.62894,-1.65636 -7.0839,-5.11697 -12.11213,-2.32187 -1.77468,4.70288 -4.46626,6.90643 -8.68111,9.4945 2.48454,-4.37753 4.90993,-8.72547 6.93601,-13.32483 -3.10567,-3.71202 -6.49234,-7.14305 -9.98253,-10.50014 -6.65501,0.50282 -9.99731,4.99866 -15.27696,8.63674 3.88949,-5.91558 7.45362,-10.14521 13.47271,-13.60582 1.33101,0.20704 2.64722,0.3993 3.97823,0.59156 0.82818,1.00564 1.65636,2.02608 2.49933,3.04652 -1.65636,-4.80641 -3.54935,-9.37619 -4.1409,-14.46358 -0.6803,-6.56628 0.0739,-13.63539 0.50282,-20.21646 -1.61199,2.1296 -3.2092,4.274 -4.82119,6.41839 1.30142,-3.62329 2.61764,-7.23179 3.68244,-10.92902 2.52891,-3.90428 5.11697,-8.08954 8.38532,-11.43184 7.70504,-7.46841 17.95377,-11.47621 28.72011,-10.92902 z m -31.2638,48.99572 c 1.25706,3.77118 2.79511,7.40926 4.46626,11.01776 2.94299,2.54369 5.66416,5.23528 8.22264,8.16349 4.71767,2.32186 8.9473,4.79161 14.19737,5.7381 8.51843,0.76903 16.74107,0.25141 23.66229,-5.3388 1.0648,-0.59156 2.12961,-1.16833 3.19441,-1.7451 5.41275,-5.0726 7.8825,-11.52057 11.52058,-17.74671 -4.36274,-0.2662 -8.71068,-0.75424 -13.07342,-1.10917 -2.89863,3.10567 -5.32401,5.7381 -9.73111,6.46276 -1.46411,-0.9317 -2.92821,-1.83383 -4.4071,-2.72116 -0.60635,-0.87255 -1.2127,-1.73031 -1.81904,-2.58806 -6.96559,-0.0444 -14.47837,0.54719 -21.26648,-0.91692 -5.14655,-0.34014 -9.87901,-0.10352 -14.9664,0.78381 z"
       id="use916"
       style="fill:#0b0f1d;stroke-width:1.47889" /><path
       d="m 789.42056,160.18406 c 10.78113,-1.02044 21.07423,1.10917 31.78141,1.28664 2.51412,2.23313 4.05217,4.83598 7.80856,4.90992 3.23877,-0.57677 5.16134,-2.67679 7.3501,-4.92471 6.07825,-0.10352 12.03819,-1.09438 18.08686,-1.58242 -1.09438,4.33316 -2.78032,8.35575 -4.70288,12.37834 -2.943,2.58806 -5.7529,5.32401 -8.37054,8.23743 -6.44797,3.29793 -12.31917,6.47755 -19.83195,5.93036 -11.96425,0.45846 -22.50875,-6.68459 -28.4539,-16.72628 -0.69508,-1.70072 -1.36058,-3.38666 -2.1444,-5.04302 -0.62113,-1.44932 -1.12396,-2.92821 -1.52326,-4.46626 z"
       id="use918"
       style="fill:#ffffff;stroke-width:1.47889" /><path
       d="m 898.2523,161.23407 c 5.08739,-0.88733 9.81985,-1.12395 14.9664,-0.78381 6.78811,1.46411 14.30089,0.87255 21.26648,0.91692 0.60634,0.85775 1.21269,1.71551 1.81904,2.58806 1.47889,0.88733 2.94299,1.78946 4.4071,2.72116 4.4071,-0.72466 6.83248,-3.35709 9.73111,-6.46276 4.36274,0.35493 8.71068,0.84297 13.07342,1.10917 -3.63808,6.22614 -6.10783,12.67411 -11.52058,17.74671 -1.0648,0.57677 -2.12961,1.15354 -3.19441,1.7451 -6.92122,5.59021 -15.14386,6.10783 -23.66229,5.3388 -5.25007,-0.94649 -9.4797,-3.41624 -14.19737,-5.7381 -2.55848,-2.92821 -5.27965,-5.6198 -8.22264,-8.16349 -1.67115,-3.6085 -3.2092,-7.24658 -4.46626,-11.01776 z"
       id="use920"
       style="fill:#ffffff;stroke-width:1.47889" /><path
       d="m 861.84195,184.86679 c 6.58108,3.49018 9.18393,9.56843 14.34527,14.5523 5.36838,-4.79161 7.95644,-11.01775 14.4192,-14.56709 0.48804,7.32052 -5.10218,13.04383 -11.78678,14.8185 -4.1409,1.10917 -7.61629,-1.05001 -11.35789,-2.49933 -3.40146,-3.96343 -5.67895,-6.59586 -5.6198,-12.30438 z"
       id="use922"
       style="fill:#0b0f1d;stroke-width:1.47889" /><path
       d="m 879.21895,208.75091 c 5.64937,0.73944 8.63673,7.60151 13.20651,10.73676 -3.40145,-0.85776 -6.77333,-1.68594 -9.95295,-3.16483 l -0.0592,-0.0444 c -1.75988,-2.24792 -2.3958,-4.85077 -3.1944,-7.52756 z"
       id="use924"
       style="fill:#0b0f1d;stroke-width:1.47889" /><path
       d="m 882.41335,216.27847 0.0592,0.0444 -0.0444,-0.0148 z"
       id="use926"
       style="fill:#ffffff;stroke-width:1.47889" /><path
       d="m 892.42546,240.22175 c 7.32052,-1.49368 14.93682,2.26271 19.72843,7.67545 3.12047,3.57893 3.31272,9.03604 4.61415,13.51709 -2.83948,-3.53456 -5.84163,-8.94731 -10.20436,-10.9586 -7.45362,-2.91342 -15.80937,-2.42538 -21.93199,3.09089 -4.92471,3.56413 -5.82683,8.50363 -7.37967,14.12342 -0.50283,-4.90992 -1.8782,-9.03603 -0.0444,-13.79807 2.18876,-7.24657 8.38532,-11.34311 15.21781,-13.65018 z"
       id="use928"
       style="fill:#0b0f1d;stroke-width:1.47889" /></g></svg>
